<?xml version="1.0" encoding="UTF-8"?>
<svg xmlns="http://www.w3.org/2000/svg" width="434" height="434" viewBox="0 0 434 434" fill="none">
  <path d="M128.326 262.935C128.308 262.773 128.308 262.611 128.326 262.449C128.658 262.847 129.072 263.169 129.539 263.394C130.006 263.618 130.516 263.74 131.034 263.751C131.144 263.751 131.25 263.707 131.329 263.629C131.407 263.551 131.451 263.445 131.451 263.334C131.451 263.224 131.407 263.118 131.329 263.04C131.25 262.962 131.144 262.918 131.034 262.918C130.517 262.885 130.03 262.663 129.665 262.295C129.301 261.927 129.084 261.439 129.055 260.921C129.06 260.811 129.031 260.702 128.972 260.609C128.913 260.516 128.827 260.443 128.725 260.4C127.77 259.984 127.388 262.136 127.579 263.109C127.628 263.175 127.694 263.225 127.771 263.253C127.847 263.282 127.93 263.287 128.01 263.268C128.089 263.25 128.162 263.208 128.218 263.149C128.274 263.09 128.312 263.015 128.326 262.935ZM133.343 260.904C132.926 261.147 132.579 261.13 132.579 261.546C132.574 261.672 132.619 261.795 132.703 261.889C132.787 261.983 132.904 262.041 133.03 262.05C133.305 262.008 133.568 261.911 133.803 261.765C134.039 261.619 134.243 261.426 134.402 261.199C134.438 261.088 134.443 260.969 134.416 260.856C134.388 260.742 134.329 260.638 134.246 260.557C134.246 260.557 133.412 259.185 133.291 259.012C133.169 258.838 132.492 258.56 132.319 258.908C132.145 259.255 132.388 259.168 133.343 260.904ZM131.312 256.13C131.194 256.059 131.053 256.038 130.92 256.07C130.787 256.103 130.672 256.187 130.6 256.304L129.923 257.224C129.864 257.325 129.834 257.441 129.834 257.558C129.835 257.676 129.867 257.791 129.928 257.892C129.988 257.993 130.074 258.076 130.177 258.132C130.28 258.189 130.396 258.217 130.513 258.213C131.034 258.213 131.138 257.744 131.329 257.276C131.52 256.807 131.763 256.39 131.312 256.13ZM135.148 259.394C135.617 259.185 135.513 258.769 135.756 258.126C135.825 258.011 135.845 257.873 135.813 257.743C135.78 257.613 135.697 257.501 135.582 257.432C135.467 257.363 135.329 257.342 135.199 257.375C135.069 257.407 134.957 257.49 134.888 257.606C134.506 258.196 134.089 258.352 134.159 258.855C134.173 258.965 134.212 259.069 134.274 259.16C134.336 259.25 134.419 259.325 134.516 259.378C134.612 259.43 134.72 259.459 134.83 259.462C134.94 259.465 135.049 259.441 135.148 259.394ZM130.201 255.887C130.316 255.517 130.646 255.395 131.19 255.522C131.485 255.522 131.659 255.314 131.694 255.002C131.85 253.89 129.819 253.89 129.246 255.54C129.2 255.666 129.206 255.806 129.263 255.928C129.32 256.05 129.423 256.145 129.55 256.191C129.676 256.237 129.816 256.231 129.938 256.174C130.06 256.117 130.155 256.014 130.201 255.887ZM118.656 269.688C118.402 269.737 118.141 269.729 117.89 269.664C117.64 269.599 117.407 269.479 117.209 269.313C117.011 269.146 116.853 268.938 116.746 268.702C116.639 268.467 116.586 268.211 116.59 267.952C116.209 266.477 114.611 266.511 113.396 267.397C113.302 267.474 113.239 267.582 113.219 267.702C113.199 267.822 113.223 267.945 113.286 268.049C113.349 268.152 113.448 268.23 113.564 268.266C113.68 268.303 113.806 268.296 113.917 268.247C115.306 267.362 115.514 267.831 115.653 268.542C116.122 271.216 119.576 271.233 119.316 270.087C119.3 270.017 119.27 269.951 119.227 269.893C119.185 269.835 119.132 269.786 119.07 269.749C119.009 269.711 118.941 269.687 118.869 269.676C118.798 269.666 118.726 269.67 118.656 269.688ZM283.715 268.039C284.514 268.039 284.375 267.119 284.444 266.008C284.449 265.895 284.41 265.786 284.336 265.701C284.261 265.617 284.157 265.565 284.045 265.556C283.472 265.556 283.559 266.164 283.108 267.049C283.048 267.152 283.017 267.27 283.019 267.389C283.02 267.508 283.054 267.624 283.116 267.725C283.178 267.827 283.267 267.91 283.372 267.965C283.478 268.02 283.596 268.046 283.715 268.039ZM291.649 262.553C290.243 263.178 294.235 264.289 291.024 275.018C291.002 275.088 290.995 275.163 291.002 275.236C291.009 275.31 291.03 275.381 291.065 275.446C291.135 275.578 291.254 275.677 291.397 275.721C291.54 275.764 291.694 275.75 291.826 275.68C291.958 275.61 292.056 275.49 292.1 275.347C293.774 271.333 293.818 266.825 292.222 262.779C292.199 262.726 292.166 262.679 292.125 262.639C292.084 262.599 292.035 262.568 291.982 262.547C291.929 262.526 291.872 262.516 291.815 262.517C291.758 262.518 291.701 262.53 291.649 262.553ZM301.075 108.171C301.496 108.377 301.969 108.453 302.433 108.388C302.897 108.323 303.331 108.12 303.679 107.806C304.309 107.265 304.833 106.612 305.224 105.879C305.284 105.785 305.304 105.67 305.28 105.561C305.255 105.452 305.188 105.357 305.094 105.298C305 105.238 304.885 105.218 304.776 105.242C304.667 105.267 304.572 105.333 304.512 105.428C304.219 105.991 303.766 106.456 303.211 106.765C302.655 107.073 302.021 107.212 301.388 107.164C301.276 107.175 301.17 107.219 301.083 107.29C300.996 107.361 300.932 107.457 300.899 107.564C300.865 107.671 300.864 107.786 300.896 107.894C300.927 108.002 300.989 108.098 301.075 108.171ZM299.235 123.777C300.016 123.777 303.575 120.791 304.096 120.305C305.541 119.082 306.888 117.747 308.123 116.312C308.164 116.275 308.197 116.229 308.22 116.179C308.242 116.128 308.254 116.073 308.254 116.017C308.254 115.962 308.242 115.907 308.22 115.856C308.197 115.805 308.164 115.76 308.123 115.722C307.377 115.063 307.498 117.18 298.975 122.666C298.86 122.727 298.768 122.825 298.714 122.944C298.661 123.062 298.648 123.195 298.677 123.322C298.707 123.449 298.778 123.562 298.879 123.645C298.98 123.727 299.105 123.774 299.235 123.777ZM175.18 53.5387C175.229 53.4 175.244 53.2516 175.224 53.1059C175.203 52.9603 175.148 52.8217 175.063 52.7017C174.978 52.5817 174.866 52.4838 174.735 52.4163C174.604 52.3487 174.46 52.3135 174.312 52.3135C174.165 52.3135 174.02 52.3487 173.89 52.4163C173.759 52.4838 173.647 52.5817 173.562 52.7017C173.477 52.8217 173.422 52.9603 173.401 53.1059C173.381 53.2516 173.396 53.4 173.444 53.5387C173.396 53.6775 173.381 53.8259 173.401 53.9715C173.422 54.1171 173.477 54.2558 173.562 54.3758C173.647 54.4957 173.759 54.5936 173.89 54.6612C174.02 54.7287 174.165 54.764 174.312 54.764C174.46 54.764 174.604 54.7287 174.735 54.6612C174.866 54.5936 174.978 54.4957 175.063 54.3758C175.148 54.2558 175.203 54.1171 175.224 53.9715C175.244 53.8259 175.229 53.6775 175.18 53.5387ZM221.532 52.6013C221.307 52.632 221.101 52.7431 220.952 52.9138C220.804 53.0846 220.721 53.3035 220.721 53.53C220.721 53.7566 220.804 53.9755 220.952 54.1463C221.101 54.317 221.307 54.428 221.532 54.4588C221.756 54.428 221.962 54.317 222.111 54.1463C222.26 53.9755 222.342 53.7566 222.342 53.53C222.342 53.3035 222.26 53.0846 222.111 52.9138C221.962 52.7431 221.756 52.632 221.532 52.6013ZM286.441 156.744C285.486 157.976 287.448 159.956 288.177 160.962C289.323 162.475 290.895 163.611 292.69 164.226C293.071 164.202 293.443 164.102 293.784 163.931C295.701 162.676 297.534 161.296 299.27 159.799C299.448 159.592 299.546 159.327 299.546 159.053C299.546 158.779 299.448 158.514 299.27 158.306C299.27 158.306 296.457 153.532 295.294 153.098C293.599 152.635 291.791 152.821 290.225 153.619C288.881 154.557 287.616 155.602 286.441 156.744ZM287.621 157.178C290.763 154.574 291.093 153.932 293.784 153.932C292.291 154.991 289.27 157.404 289.253 157.404C289.043 157.527 288.86 157.691 288.715 157.886C288.569 158.081 288.464 158.303 288.406 158.539C288.348 158.775 288.338 159.021 288.376 159.261C288.414 159.501 288.5 159.732 288.628 159.938C288.339 159.636 288.083 159.305 287.864 158.949C287.309 158.185 286.996 157.664 287.586 157.178H287.621ZM293.732 159.712C294.096 160.112 294.878 160.858 295.346 161.258C293.003 162.994 292.465 162.855 292.378 162.82C291.244 161.703 290.31 160.399 289.618 158.966C290.205 158.166 290.921 157.468 291.736 156.9C292.048 157.421 292.395 157.959 292.76 158.48C291.423 159.712 292.013 160.494 293.732 159.712ZM296.336 160.528C295.707 160.146 295.163 159.637 294.739 159.035C295.902 157.872 295.624 156.779 293.784 157.786C293.419 157.247 293.072 156.692 292.725 156.154C293.367 155.65 294.774 154.418 295.242 154.088C296.522 155.609 297.629 157.269 298.541 159.035C298.211 159.383 296.753 160.32 296.336 160.598V160.528Z" fill="#0A2840"></path>
  <path d="M337.167 362.408L338.677 361.349C339.111 361.036 338.555 361.158 333 350.308C335.739 347.705 337.451 344.206 337.826 340.447C338.469 333.173 338.295 313.001 338.59 296.266C338.729 287.586 339.042 272.413 338.59 268.698C338.139 265.4 337.288 258.595 331.646 256.321C333.421 254.975 334.8 253.176 335.639 251.113C336.333 248.297 336.792 245.428 337.01 242.537C337.392 229.951 339.198 186.759 338 176.031C337.444 171.031 337.132 168.01 334.945 165.493C332.045 162.021 320.258 158.723 311.179 158.861C312.573 157.688 313.693 156.224 314.461 154.571C315.229 152.919 315.625 151.118 315.623 149.296C315.935 149.296 315.831 149.296 316.404 144.887C323.053 137.943 325.084 132.179 322.636 127.336L323.817 126.589C323.862 126.536 323.887 126.468 323.887 126.398C323.887 126.328 323.862 126.261 323.817 126.207C318.973 119.367 318.487 118.291 317.255 117.007C315.784 115.429 313.947 114.237 311.908 113.535C312.057 113.17 312.126 112.779 312.111 112.386C312.096 111.993 311.998 111.607 311.822 111.256C311.646 110.904 311.397 110.594 311.091 110.346C310.786 110.098 310.431 109.919 310.05 109.819C311.908 105.653 311.96 106.018 313.002 105.41C313.523 105.121 313.908 104.637 314.074 104.065C314.24 103.492 314.173 102.878 313.887 102.355C314.677 100.8 315.132 99.0966 315.224 97.355C315.432 92.5463 309.234 87.5119 304.599 89.9249C302.638 89.1002 300.493 88.8126 298.384 89.0916C296.093 89.3173 294.912 89.6298 294.392 90.4457C293.437 91.8172 294.912 93.4837 295.937 94.5427C296.388 95.0114 296.336 94.9593 298.141 96.9384C297.929 96.9846 297.725 97.0606 297.534 97.164C297.123 97.6554 296.848 98.2453 296.736 98.8755C296.623 99.5058 296.677 100.154 296.891 100.758C296.246 102.278 296.039 103.949 296.294 105.581C296.548 107.213 297.255 108.741 298.332 109.993C297.726 110.291 297.184 110.704 296.735 111.208C294.062 113.847 281.962 119.263 282.205 120.027L282.569 121.069C282.257 121.312 281.58 121.867 281.163 122.249C271.147 113.205 271.702 113.222 270.973 113.222C270.765 113.222 270.435 113.222 269.879 113.812C269.515 113.309 269.688 112.493 269.532 111.781C269.407 111.323 269.166 110.905 268.834 110.565C268.502 110.226 268.089 109.976 267.634 109.841C267.179 109.705 266.697 109.688 266.233 109.791C265.769 109.893 265.339 110.112 264.984 110.427C260.401 103.9 227.92 59.3887 224.327 54.7709C224.547 54.3571 224.674 53.8998 224.698 53.4316C224.722 52.9633 224.642 52.4954 224.465 52.0613C224.288 51.6272 224.017 51.2374 223.673 50.9196C223.328 50.6019 222.917 50.3639 222.47 50.2226C222.023 50.0814 221.55 50.0403 221.085 50.1023C220.621 50.1643 220.175 50.3278 219.781 50.5813C219.386 50.8348 219.053 51.1721 218.803 51.5691C218.554 51.9662 218.395 52.4133 218.337 52.8787C212.452 52.8787 181.69 52.7051 177.455 52.653C177.329 52.0912 177.056 51.5731 176.664 51.1516C176.272 50.7301 175.775 50.4204 175.223 50.2544C174.672 50.0883 174.087 50.0718 173.527 50.2065C172.967 50.3413 172.454 50.6224 172.038 51.0211C171.705 51.3707 171.451 51.7879 171.293 52.2444C171.135 52.7009 171.077 53.186 171.123 53.6668C171.169 54.1476 171.318 54.6128 171.56 55.031C171.802 55.4492 172.131 55.8104 172.524 56.0903C172.524 56.0903 172.351 79.3179 172.368 81.8352C170.476 81.8352 170.094 83.9704 170.129 85.8627C169.886 91.7824 171.969 91.6262 172.021 93.64C172.005 94.2938 171.773 94.9239 171.362 95.4324C170.95 95.941 170.383 96.2995 169.747 96.4523C169.139 96.6607 168.483 96.6811 167.863 96.5107C167.244 96.3404 166.69 95.9873 166.275 95.4975C165.216 93.1712 169.486 92.0255 167.455 86.696C167.411 86.5683 167.325 86.4597 167.21 86.3881C167.096 86.3165 166.96 86.2863 166.826 86.3025C166.692 86.3188 166.568 86.3805 166.474 86.4773C166.38 86.5742 166.322 86.7004 166.31 86.8348C166.049 90.0117 162.126 91.2964 161.935 94.7163C155.303 96.4523 137.961 99.9243 135.895 100.306C133.638 97.98 131.294 100.862 131.555 103.657C129.61 104.23 123.864 104.837 120.74 108.431C116.452 113.361 116.816 120.079 116.434 126.225C115.254 150.893 116.313 165.649 116.313 175.336C116.313 179.468 116.452 183.721 116.886 187.905C117.476 193.703 119.993 196.863 125.566 198.442C130.305 199.432 146.276 202.001 146.398 202.036C148.235 202.087 150.014 202.692 151.501 203.772C152.856 205.091 151.953 206.185 150.946 207.435C143.446 216.688 153.307 230.888 164.643 230.888C169.851 230.888 177.819 226.253 182.003 219.135C182.908 217.327 183.355 215.324 183.305 213.302C183.578 211.012 183.224 208.69 182.281 206.584C192.957 208.511 209.64 214.431 214.536 196.411C214.536 196.22 214.362 182.02 214.362 181.846C214.24 174.902 214.188 173.322 212.626 171.986C211.739 171.25 210.661 170.781 209.519 170.632C205.856 169.972 204.311 172.368 200.995 172.802C184.329 175.024 185.961 146.762 197.106 149.123C201.082 149.921 204.762 154.626 208.112 153.463C211.984 152.143 212.852 148.255 213.945 146.814C214.206 146.501 215.022 124.437 214.727 123.048C214.727 123.048 213.911 116.798 206.047 114.819C206.272 113.386 206.116 111.92 205.595 110.566C205.342 110.211 204.997 109.931 204.597 109.756C204.197 109.581 203.758 109.518 203.325 109.573C202.892 109.628 202.482 109.8 202.139 110.069C201.796 110.339 201.533 110.697 201.377 111.104C191.829 106.365 183.895 102.251 176.465 98.1883C177.123 97.4134 177.557 96.4732 177.719 95.4695C177.881 94.4659 177.766 93.4369 177.385 92.4942C177.106 91.8845 176.769 91.3031 176.378 90.7582C174.521 87.998 175.389 87.6508 175.285 85.1856C175.322 84.501 175.155 83.8208 174.806 83.2307C174.457 82.6406 173.941 82.1671 173.323 81.8699C173.323 79.2312 173.514 59.3019 173.531 56.4027C173.96 56.512 174.407 56.5306 174.843 56.4572C175.279 56.3838 175.695 56.2201 176.065 55.9766C176.434 55.7331 176.748 55.4152 176.988 55.0431C177.227 54.6711 177.386 54.2532 177.455 53.8161C183.27 53.9029 214.102 54.0244 218.372 54.0418C218.51 54.5898 218.789 55.092 219.182 55.4983C219.575 55.9046 220.067 56.2007 220.61 56.3571C221.153 56.5135 221.727 56.5246 222.276 56.3895C222.825 56.2543 223.328 55.9775 223.736 55.5868C227.208 60.5518 262.015 108.17 263.89 110.757C261.824 111.139 261.165 113.309 262.154 113.882C262.13 114.224 262.243 114.563 262.467 114.823C262.691 115.083 263.009 115.244 263.352 115.271C263.386 115.472 263.467 115.664 263.587 115.83C263.708 115.996 263.864 116.132 264.046 116.227C264.227 116.323 264.428 116.376 264.632 116.381C264.837 116.387 265.041 116.345 265.227 116.26C265.405 116.732 265.676 117.163 266.025 117.527C265.864 117.792 265.786 118.099 265.801 118.409C265.817 118.718 265.925 119.016 266.112 119.263C269.376 125.513 273.282 132.231 279.705 133.655C281.217 133.959 282.78 133.911 284.271 133.516C285.885 135.148 286.962 136.241 287.448 136.693C285.486 141.345 285.26 141.085 285.712 141.363C283.42 142.335 281.736 143.342 279.219 144.626C274.011 147.3 270.313 149.175 267.31 152.785C264.469 152.106 261.549 151.82 258.63 151.935C245.037 152.525 243.562 161.049 243.006 165.163C242.749 167.504 242.708 169.863 242.884 172.211C242.884 172.211 243.318 183.513 243.44 186.273C242.259 184.906 240.682 183.941 238.926 183.513C214.345 179.086 211.793 213.528 233.423 214.361C239.1 214.361 240.524 211.914 242.19 213.771C247.398 221.531 240.836 235.072 244.742 245.019C245.575 247.4 247.083 249.488 249.082 251.026C245.922 251.876 243.996 255.053 243.336 260.487C242.257 267.486 241.821 274.57 242.034 281.649C236.826 275.851 229.257 275.417 222.486 278.507C222.486 275.035 222.486 261.546 221.844 252.64C221.41 247.016 218.98 244.134 214.258 242.346C207.019 239.603 193.582 237.572 188.218 240.506C186.42 241.376 184.859 242.668 183.67 244.273C182.784 246.477 184.104 248.37 184.867 250.227C189.711 262.64 174.608 268.907 167.386 261.633C165.732 259.649 164.68 257.233 164.354 254.671C164.028 252.109 164.441 249.507 165.546 247.172C168.184 240.94 168.584 239.013 163.688 236.495C161.023 235.21 158.158 234.388 155.216 234.065C144.8 232.329 133.742 231.652 130.01 239.273C129.191 239.247 128.395 239.539 127.788 240.089C127.575 239.798 127.297 239.562 126.975 239.399C126.654 239.236 126.299 239.151 125.939 239.151C125.579 239.151 125.224 239.236 124.902 239.399C124.581 239.562 124.303 239.798 124.09 240.089C122.857 238.926 120.948 239.672 120.878 241.825C120.126 241.752 119.374 241.958 118.763 242.402C118.152 242.847 117.725 243.5 117.563 244.238C117.243 244.34 116.949 244.508 116.7 244.733C116.45 244.957 116.252 245.232 116.117 245.539C115.982 245.847 115.915 246.179 115.919 246.514C115.922 246.85 115.998 247.18 116.139 247.484C115.494 247.706 114.949 248.152 114.605 248.742C114.261 249.331 114.14 250.025 114.264 250.696C113.731 250.867 113.287 251.243 113.03 251.741C112.773 252.238 112.724 252.818 112.893 253.352C112.731 253.508 112.614 253.706 112.555 253.923C112.496 254.14 112.496 254.37 112.557 254.587C112.617 254.804 112.735 255 112.898 255.156C113.061 255.311 113.263 255.42 113.483 255.47C113.398 255.628 113.349 255.803 113.34 255.982C113.331 256.161 113.361 256.34 113.429 256.506C113.497 256.672 113.601 256.821 113.734 256.942C113.866 257.063 114.023 257.153 114.195 257.206C113.066 259.15 114.386 261.268 116.417 260.522C116.41 260.597 116.41 260.672 116.417 260.747C109.212 269.08 102.199 283.454 104.161 293.141C101.834 297.308 102.581 299.668 101.956 306.456C101.105 315.674 103.449 320.483 100.098 328.903C99.9249 329.319 100.654 329.302 101.105 329.319C99.8381 332.791 92.8246 352.599 92.4254 353.727C91.8509 355.502 91.6964 357.386 91.974 359.231C91.9748 359.283 91.9928 359.335 92.0252 359.376C92.0577 359.418 92.1028 359.448 92.1538 359.462C92.2048 359.475 92.2589 359.472 92.3079 359.452C92.3569 359.433 92.3982 359.397 92.4254 359.352L94.1614 357.043C94.497 358.228 95.2411 359.255 96.2619 359.942C97.1126 360.481 103.987 360.984 104.3 359.942C104.612 358.901 103.258 358.623 101.991 357.477C101.237 357.857 100.418 358.093 99.5777 358.172C99.4296 358.17 99.287 358.115 99.1768 358.016C99.0666 357.917 98.9964 357.781 98.9794 357.634C98.9623 357.487 98.9996 357.339 99.0842 357.217C99.1688 357.095 99.2949 357.009 99.4388 356.974C100.036 356.915 100.62 356.769 101.175 356.54C100.896 356.16 100.658 355.753 100.463 355.325C99.6786 355.636 98.842 355.795 97.9979 355.793C97.8368 355.793 97.6822 355.729 97.5683 355.615C97.4543 355.501 97.3903 355.347 97.3903 355.186C97.3903 355.025 97.4543 354.87 97.5683 354.756C97.6822 354.642 97.8368 354.578 97.9979 354.578C98.6878 354.585 99.3724 354.456 100.012 354.196C99.8902 353.866 99.786 353.502 99.6818 353.137C102.39 349.926 113.57 335.378 114.646 333.902C119.807 334.208 124.965 333.261 129.68 331.142C130.234 335.837 130.408 340.568 130.201 345.291C130.357 349.179 127.267 351.141 128.083 356.87C128.089 356.92 128.111 356.967 128.145 357.004C128.179 357.042 128.224 357.068 128.274 357.078C128.499 357.078 128.395 357.2 130.322 354.665C130.638 355.863 131.37 356.909 132.388 357.616C133.239 358.137 140.113 358.658 140.426 357.616C140.738 356.575 139.419 356.401 138.013 354.891C137.394 355.123 136.745 355.264 136.086 355.307C135.925 355.307 135.77 355.243 135.656 355.129C135.542 355.015 135.478 354.861 135.478 354.7C135.478 354.539 135.542 354.384 135.656 354.27C135.77 354.156 135.925 354.092 136.086 354.092C136.48 354.063 136.869 353.993 137.249 353.884C137.003 353.532 136.777 353.167 136.572 352.79C136.081 352.944 135.574 353.043 135.062 353.085C134.9 353.085 134.746 353.021 134.632 352.907C134.518 352.793 134.454 352.639 134.454 352.478C134.454 352.316 134.518 352.162 134.632 352.048C134.746 351.934 134.9 351.87 135.062 351.87C135.42 351.839 135.774 351.775 136.12 351.679L135.912 351.071C139.002 345.003 141.172 338.509 142.353 331.802C144.627 332.08 195.422 338.468 202.088 339.249C208.112 339.944 214.536 339.822 218.424 335.465C220.994 332.583 221.219 329.111 221.462 325.049C221.844 318.921 222.105 312.741 222.261 306.682C230.646 311.786 239.169 309.616 245.141 300.814C247.884 296.526 247.138 290.207 244.759 285.572C246.226 285.929 247.749 285.99 249.239 285.752C250.73 285.513 252.158 284.98 253.439 284.183L253.873 284.739C253.057 287.829 255.609 291.093 257.606 293.714C265.209 303.627 267.501 304.252 279.601 298.436C279.349 301.134 278.277 303.691 276.528 305.762C272.657 310.137 268.577 309.755 263.213 309.564C258.543 309.008 257.016 306.63 252.051 305.588C247.086 304.547 242.537 306.508 242.572 311.439C242.572 311.439 242.572 323.035 242.694 326.872C242.694 332.08 243.7 341.489 251.078 344.822C261.303 347.199 271.647 349.03 282.066 350.308C283.724 358.355 286.536 366.12 290.416 373.362C290.447 373.41 290.492 373.447 290.545 373.469C290.597 373.491 290.656 373.496 290.711 373.483L291.649 373.24C291.798 373.955 291.891 374.681 291.926 375.41C291.2 376.317 290.202 376.968 289.079 377.268C288.631 377.327 288.213 377.526 287.885 377.839C287.557 378.151 287.337 378.559 287.257 379.004C286.909 381.573 296.284 379.854 299.079 380.045C299.158 380.041 299.235 380.012 299.297 379.962C299.359 379.912 299.404 379.844 299.426 379.768C299.642 377.973 299.565 376.156 299.2 374.386C299.096 373.848 298.905 371.956 298.87 371.331C299.721 371.105 299.982 371.105 299.982 370.844C300.172 365.324 300.346 359.196 300.381 352.79C304.131 353.276 311.665 354.144 316.283 354.526C319.717 359.717 324.127 364.192 329.268 367.702C329.476 367.824 329.494 367.702 330.813 366.817C331.212 367.286 333.035 369.282 333.4 369.82C333.29 371.023 332.79 372.157 331.976 373.049C330.448 374.681 331.872 377.146 333.972 375.844C334.285 375.653 335.101 374.959 336.16 374.108C342.253 369.056 341.975 369.803 342.027 369.473C342.08 369.143 338.885 364.716 337.167 362.408V362.408ZM166.882 89.109C167.195 91.6262 165.268 92.4074 164.921 94.4385C164.574 97.789 169.348 98.848 171.865 96.8863L174.712 98.6223C171.049 101.244 163.862 99.4903 163.445 95.4628C163.185 92.8067 165.615 91.5915 166.882 89.109V89.109ZM133.152 101.99C134.003 99.6986 135.582 101.035 135.773 103.553C135.114 103.553 133.586 103.344 132.892 103.327C132.892 102.869 132.981 102.415 133.152 101.99V101.99ZM202.592 111.677C202.904 111.069 203.634 110.583 204.189 110.896C205.126 111.677 204.953 113.17 204.936 114.489L202.158 113.76C202.163 113.038 202.329 112.327 202.644 111.677H202.592ZM207.071 120.479C208.865 122.416 210.069 124.825 210.543 127.423C210.803 128.985 211.237 149.747 208.616 151.727C205.456 154.157 200.578 147.143 195.405 147.543C186.221 148.584 180.007 160.58 185.926 170.232C189.728 176.447 197.905 179.624 201.464 177.541C202.586 176.525 203.958 175.824 205.439 175.51C212.209 174.815 209.223 189.936 209.449 194.606C209.64 198.182 209.97 204.865 203.425 207.192C198.217 208.928 192.697 207.817 187.801 206.532C182.315 205.074 175.215 203.06 173.271 208.459C173.254 208.497 173.245 208.539 173.245 208.581C173.245 208.622 173.254 208.664 173.271 208.702C174.027 209.731 174.684 210.83 175.233 211.983C177.923 217.556 177.541 219.5 175.233 223.614C163.706 239.742 142.457 220.142 151.953 208.407C152.466 207.968 152.876 207.422 153.155 206.807C153.434 206.192 153.575 205.523 153.567 204.848C152.925 201.984 149.574 201.376 147.127 200.994L131.103 198.286C118.222 196.55 118.257 192.713 117.788 182.836C116.758 162.849 116.805 142.821 117.927 122.839C118.188 117.631 118.552 110.687 124.159 107.215C128.031 104.907 149.019 108.951 166.553 111.503C178.01 113.135 189.85 114.732 198.2 116.538C202.106 117.406 204.849 118.135 207.123 120.479H207.071ZM201.047 112.18C200.405 115.514 207.019 111.694 137.093 103.709C137.06 102.886 136.883 102.075 136.572 101.313C139.488 100.723 158.862 96.5044 161.952 95.7405C162.907 101.122 171.813 102.685 175.597 99.2125C178.583 100.775 198.061 110.774 201.099 112.18H201.047ZM174.069 84.9079C174.074 86.2308 174.155 87.5524 174.312 88.866C174.903 91.1748 177.021 92.7893 176.673 95.1503C176.543 96.1032 176.146 96.9999 175.528 97.7369L172.49 96.1051C173.705 93.7441 173.549 92.9803 172.49 91.1748C171.526 89.6917 171.137 87.9075 171.396 86.1578C171.396 85.2377 171.292 83.6753 172.09 83.1892C172.889 82.7032 173.896 83.8663 174.069 84.9079V84.9079ZM175.701 55.0834C173.705 56.5937 171.431 54.0418 172.785 52.0454C172.994 51.7469 173.283 51.5126 173.618 51.3688C173.953 51.2251 174.321 51.1776 174.682 51.2317C175.043 51.2858 175.381 51.4393 175.659 51.6751C175.937 51.9108 176.144 52.2194 176.257 52.5662C176.342 53.0014 176.337 53.4495 176.241 53.8826C176.146 54.3157 175.962 54.7245 175.701 55.0834V55.0834ZM222.886 55.0834C222.471 55.3502 221.977 55.4653 221.487 55.4092C220.997 55.353 220.542 55.1291 220.198 54.7754C219.855 54.4216 219.644 53.9599 219.603 53.4686C219.561 52.9773 219.69 52.4867 219.969 52.0801C220.174 51.7848 220.456 51.551 220.784 51.4037C221.112 51.2563 221.474 51.2011 221.831 51.244C222.188 51.2868 222.526 51.4261 222.81 51.6468C223.094 51.8675 223.312 52.1613 223.441 52.4967C223.525 52.946 223.518 53.4073 223.423 53.8541C223.328 54.301 223.145 54.7246 222.886 55.1007V55.0834ZM105.897 283.246C106.508 282.884 107.236 282.772 107.928 282.933C108.761 283.09 109.178 283.628 109.664 284.461C109.829 285.063 110.16 285.606 110.619 286.029C111.078 286.452 111.646 286.738 112.26 286.854C112.873 286.969 113.506 286.911 114.088 286.684C114.669 286.457 115.176 286.072 115.549 285.572C115.705 285.399 115.896 285.19 116.139 285.26C116.729 285.416 117.268 286.735 117.563 287.447C119.299 291.839 121.573 290.068 122.423 290.554C122.996 290.902 123.43 291.613 124.298 291.804C124.514 291.869 124.742 291.88 124.962 291.835C125.183 291.789 125.389 291.69 125.561 291.545C125.733 291.4 125.867 291.215 125.949 291.006C126.032 290.796 126.061 290.57 126.034 290.346C126.018 290.217 125.952 290.1 125.849 290.02C125.746 289.94 125.616 289.905 125.487 289.921C125.359 289.937 125.241 290.004 125.162 290.106C125.082 290.209 125.046 290.339 125.062 290.468C125.062 290.902 124.42 290.711 124.177 290.554C123.604 290.173 122.91 289.305 121.798 289.391C118.795 290.12 118.778 286.735 117.32 284.965C115.861 283.194 114.559 285.815 113.066 285.78C111.139 285.885 110.81 283.749 109.594 282.604C109.146 282.229 108.61 281.974 108.036 281.862C107.463 281.749 106.87 281.784 106.313 281.961C106.964 279.809 107.747 277.699 108.657 275.642C109.022 275.276 109.488 275.027 109.995 274.928C110.503 274.829 111.028 274.884 111.504 275.087C112.98 275.816 112.546 279.531 115.74 277.43L116.243 277.1C116.696 276.899 117.202 276.851 117.685 276.964C118.168 277.077 118.6 277.344 118.917 277.725C119.013 278.442 119.206 279.143 119.49 279.809C119.511 279.863 119.542 279.912 119.583 279.954C119.623 279.995 119.671 280.028 119.725 280.051C119.778 280.074 119.836 280.086 119.894 280.086C119.952 280.086 120.009 280.074 120.062 280.052C120.913 279.757 119.837 278.75 119.906 276.198C119.929 274.667 120.336 273.166 121.092 271.834C121.847 270.502 122.926 269.382 124.229 268.577C124.325 268.508 124.392 268.405 124.415 268.289C124.439 268.173 124.418 268.053 124.357 267.952C124.295 267.851 124.198 267.777 124.084 267.744C123.97 267.712 123.848 267.724 123.743 267.778C122.277 268.678 121.061 269.932 120.206 271.424C119.35 272.917 118.883 274.6 118.847 276.319C118.201 275.945 117.455 275.781 116.712 275.851C115.288 275.851 114.299 277.847 113.674 276.285C113.567 275.833 113.368 275.409 113.089 275.038C112.809 274.668 112.456 274.359 112.051 274.132C111.647 273.905 111.199 273.765 110.737 273.72C110.276 273.675 109.81 273.727 109.369 273.871C111.486 269.5 114.152 265.416 117.302 261.719C117.523 261.842 117.768 261.915 118.02 261.933C118.272 261.951 118.524 261.913 118.76 261.824C118.728 262.125 118.784 262.43 118.922 262.701C119.06 262.971 119.273 263.195 119.537 263.346C119.8 263.497 120.102 263.568 120.405 263.551C120.708 263.533 120.999 263.428 121.243 263.247C121.532 263.416 121.856 263.516 122.189 263.538C122.523 263.56 122.858 263.504 123.166 263.374C123.474 263.244 123.748 263.044 123.966 262.79C124.183 262.536 124.339 262.235 124.42 261.91C124.781 261.908 125.134 261.803 125.437 261.606C125.739 261.41 125.98 261.131 126.13 260.803C126.279 260.474 126.332 260.11 126.281 259.752C126.23 259.395 126.079 259.06 125.843 258.786C125.817 258.75 125.783 258.72 125.744 258.699C125.705 258.678 125.662 258.666 125.618 258.664C123.222 258.664 123.882 255.817 125.757 255.834C125.992 255.825 126.226 255.869 126.442 255.962C126.659 256.055 126.851 256.195 127.006 256.373C127.039 256.409 127.08 256.436 127.127 256.45C127.173 256.464 127.223 256.465 127.27 256.452C127.317 256.44 127.36 256.414 127.393 256.379C127.426 256.343 127.448 256.299 127.458 256.251C128.968 249.863 137.457 252.484 136.815 257.796C136.062 259.704 135.108 261.525 133.968 263.23C132.648 265.556 131.034 265.66 128.76 264.966C128.031 264.775 128.256 265.834 126.572 267.761C124.765 265.876 122.373 264.658 119.785 264.306C119.657 264.301 119.532 264.345 119.435 264.429C119.338 264.513 119.277 264.63 119.264 264.757C119.038 266.493 123.291 262.9 130.652 275.278C130.506 275.465 130.322 275.62 130.113 275.734C129.904 275.847 129.674 275.916 129.437 275.937C129.068 275.894 128.695 275.924 128.338 276.025C127.982 276.127 127.648 276.298 127.358 276.528C127.067 276.759 126.825 277.045 126.646 277.37C126.467 277.694 126.353 278.051 126.312 278.42C126.416 279.531 126.138 279.548 125.201 279.444C123.465 279.27 123.031 279.791 122.823 280.885C122.701 281.562 122.649 281.614 121.937 282.065C121.583 282.271 121.266 282.535 121 282.847C120.566 282.291 120.167 281.701 119.785 281.111C119.748 281.052 119.701 281.002 119.645 280.962C119.589 280.923 119.526 280.894 119.459 280.879C119.392 280.864 119.322 280.862 119.255 280.873C119.187 280.885 119.122 280.909 119.064 280.946C119.006 280.982 118.956 281.03 118.916 281.086C118.876 281.142 118.848 281.205 118.833 281.272C118.817 281.339 118.815 281.408 118.827 281.476C118.838 281.543 118.863 281.608 118.899 281.666C121.617 285.702 125.298 288.996 129.61 291.249C129.883 292.661 129.971 294.102 129.871 295.537C129.793 295.517 129.712 295.518 129.635 295.538C129.558 295.559 129.487 295.599 129.429 295.655C129.372 295.71 129.33 295.78 129.307 295.856C129.284 295.933 129.281 296.014 129.298 296.092C129.385 296.37 129.09 296.578 128.847 296.561C127.666 296.561 126.59 294.287 124.229 296.856C122.996 298.28 122.111 295.815 120.514 295.676C119.42 295.572 119.004 296.908 118.257 296.769C117.198 296.596 116.695 295.519 115.861 294.808C113.518 292.742 112.216 295.867 110.098 293.645C109.178 292.69 109.022 291.388 107.685 290.797C106.956 290.485 105.359 290.329 104.907 289.634C104.989 287.474 105.321 285.33 105.897 283.246V283.246ZM140.287 287.707C140.188 287.496 140.148 287.261 140.173 287.028C140.197 286.796 140.285 286.575 140.426 286.388L142.023 287.221C141.792 287.335 141.589 287.498 141.428 287.7C141.268 287.902 141.155 288.137 141.097 288.388C141.038 288.639 141.037 288.899 141.092 289.151C141.147 289.403 141.258 289.639 141.415 289.843C142.37 291.232 139.679 291.041 139.263 292.794L137.666 292.568C137.353 291.075 137.995 290.155 139.714 289.669C140.617 289.357 140.617 288.575 140.27 287.707H140.287ZM142.578 289.582C141.884 288.68 142.144 288.28 143.203 287.846C144.523 288.523 146.224 289.374 147.96 290.138C147.668 291.124 147.291 292.082 146.832 293.002C144.706 293.175 142.569 293.175 140.443 293.002C140.725 292.716 141.054 292.481 141.415 292.308C142.353 291.648 143.117 290.641 142.561 289.582H142.578ZM139.488 288.489C139.488 288.766 139.02 288.766 138.603 288.923C137.918 289.187 137.34 289.671 136.96 290.3C136.579 290.928 136.419 291.665 136.502 292.395C132.218 291.475 128.209 289.56 124.802 286.805C124.73 286.713 124.691 286.6 124.691 286.484C124.691 286.367 124.73 286.254 124.802 286.162C125.34 285.937 126.069 285.971 126.399 285.242C126.729 284.513 126.399 283.992 126.659 283.628C126.92 283.263 127.701 283.853 128.031 283.906C129.663 284.201 130.478 282.847 130.079 281.249C129.68 279.652 131.19 279.618 132.614 279.704C133.812 283.367 136.19 284.322 139.436 285.954C139.217 286.342 139.105 286.781 139.111 287.226C139.117 287.671 139.242 288.107 139.471 288.489H139.488ZM129.593 279.392C128.256 280.642 129.593 282.187 128.829 282.638C128.065 283.09 127.006 281.718 125.982 282.534C125.756 282.776 125.586 283.065 125.484 283.38C125.382 283.695 125.351 284.028 125.392 284.357C125.392 285.034 124.159 284.548 123.656 285.815C121.521 283.871 122.076 284.079 121.729 283.767C121.729 283.489 122.632 282.951 122.857 282.812C123.146 282.645 123.389 282.411 123.568 282.13C123.746 281.849 123.854 281.529 123.882 281.197C123.986 279.791 125.913 281.354 127.006 280.034C127.527 279.427 127.215 278.646 127.423 278.125C127.533 277.807 127.732 277.528 127.997 277.322C128.262 277.115 128.581 276.99 128.916 276.962C129.317 276.999 129.721 276.957 130.105 276.838C130.489 276.719 130.846 276.525 131.156 276.267C131.568 277.011 131.928 277.782 132.232 278.576C131.276 278.512 130.33 278.802 129.576 279.392H129.593ZM98.0674 353.189C97.7345 353.302 97.3811 353.342 97.0315 353.305C96.6819 353.268 96.3445 353.156 96.0425 352.976C95.7405 352.796 95.4811 352.553 95.2822 352.263C95.0833 351.973 94.9497 351.644 94.8905 351.297C95.1682 349.665 102.268 330.361 102.841 328.729C103.525 328.181 103.988 327.404 104.143 326.542C105.202 322.375 106.418 315.188 107.286 311.682C111.348 318.747 109.733 327.792 107.598 332.253C107.581 332.288 107.572 332.327 107.572 332.366C107.572 332.405 107.581 332.444 107.598 332.479C109.359 333.099 111.19 333.501 113.049 333.677C105.775 344.075 98.484 352.669 98.0674 353.189V353.189ZM105.133 292.915C105.011 292.25 104.936 291.577 104.907 290.902C105.337 291.161 105.798 291.365 106.279 291.509C107.615 291.961 107.737 292.1 108.223 293.089C108.507 293.771 108.955 294.371 109.528 294.838C110.1 295.304 110.779 295.622 111.504 295.762C112.875 295.953 114.004 294.704 114.976 295.537C115.948 296.37 116.417 297.377 117.597 297.846C117.984 298.042 118.429 298.087 118.847 297.971C119.265 297.855 119.624 297.588 119.854 297.221C120.253 296.752 120.444 296.544 121.226 297.221C124.055 299.79 125.062 297.221 125.895 296.717C126.729 296.214 128.048 298.089 129.472 297.377C129.313 297.864 129.11 298.334 128.864 298.783C123.986 300.606 111.678 302.602 105.133 292.915V292.915ZM134.645 350.499C134.351 350.713 134.013 350.859 133.655 350.924C133.297 350.989 132.929 350.973 132.579 350.876C132.228 350.779 131.904 350.605 131.63 350.365C131.357 350.125 131.141 349.827 130.999 349.492C131.451 346.54 131.763 341.957 130.722 330.621C134.788 328.513 138.39 325.608 141.311 322.08C142.787 332.462 138.395 341.784 134.714 350.499H134.645ZM241.982 300.155C240.669 303.432 238.127 306.067 234.899 307.498C231.455 308.597 227.719 308.311 224.483 306.699C221.41 305.241 219.9 303.314 217.157 304.217C217.107 304.235 217.063 304.267 217.032 304.311C217.001 304.354 216.984 304.406 216.983 304.46C216.983 326.333 218.407 329.51 215.247 334.371C214.414 335.69 211.515 338.694 202.8 337.999C198.2 337.635 152.456 331.906 142.335 330.621C142.746 327.378 142.687 324.092 142.162 320.865C142.891 319.893 143.151 319.65 142.978 319.424C136.954 311.404 136.919 311.977 134.541 308.383C133.598 306.782 132.429 305.326 131.069 304.061C130.428 303.678 129.919 303.109 129.609 302.43C129.299 301.751 129.202 300.994 129.333 300.259C131.294 298.106 131.225 295.051 130.791 291.891C137.735 294.756 145.686 294.617 147.057 294.096C148.481 294.704 154.522 295.502 154.001 293.419C155.442 293.297 155.737 292.134 155.234 291.44C155.37 291.339 155.482 291.209 155.56 291.058C155.638 290.908 155.681 290.741 155.685 290.572C155.685 289.322 153.758 289.704 152.665 289.929C152.074 290.051 152.161 290.068 152.231 289.843C152.439 289.183 152.699 288.419 152.057 288.107C151.033 287.621 150.703 289.391 148.811 289.843C148.811 289.339 149.384 289.565 139.783 284.635C135.721 282.552 135.062 282.569 133.273 278.35C131.664 274.784 129.547 271.468 126.989 268.507C127.672 267.784 128.256 266.972 128.725 266.094C129.711 266.501 130.807 266.55 131.825 266.233C132.843 265.916 133.718 265.253 134.298 264.358C135.497 262.678 136.477 260.852 137.214 258.925C137.683 258.589 138.129 258.224 138.551 257.831C139.488 258.352 141.311 257.275 140.999 256.321C141.919 256.112 142.735 255.175 142.266 254.463C143.273 254.151 143.412 252.97 142.683 252.085C143.238 251.46 142.457 250.245 142.058 249.55C142.457 248.943 141.745 247.814 141.155 247.484C141.226 247.222 141.234 246.947 141.179 246.681C141.124 246.415 141.008 246.165 140.839 245.953C140.67 245.74 140.453 245.57 140.207 245.456C139.96 245.342 139.69 245.288 139.419 245.297C139.419 244.134 138.447 242.728 137.284 243.057C137.145 241.634 136.485 240.905 135.044 241.183C134.873 240.917 134.647 240.69 134.383 240.516C134.119 240.342 133.821 240.225 133.509 240.173C133.197 240.12 132.877 240.134 132.571 240.212C132.264 240.29 131.977 240.432 131.728 240.627C131.604 240.145 131.3 239.728 130.878 239.464C131.356 238.457 132.157 237.639 133.152 237.138C136.815 235.402 140.408 235.87 143.846 236.252C143.967 236.252 156.484 237.988 159.331 238.787C160.03 238.9 160.692 239.18 161.26 239.603C161.828 240.026 162.286 240.58 162.594 241.217C162.907 242.103 162.421 242.78 161.466 245.262C159.609 250.088 158.428 256.06 160.65 260.695C168.289 273.924 191.62 265.348 185.787 249.463C184.277 247.154 184.051 245.418 185.024 244.255C189.034 239.811 210.647 245.349 212.8 246.477C213.803 246.997 214.726 247.658 215.542 248.439C216.206 249.25 216.707 250.181 217.018 251.182C217.834 253.769 218.285 267.049 218.146 283.454C218.146 283.503 218.159 283.552 218.183 283.595C218.207 283.637 218.243 283.673 218.285 283.697C218.702 283.923 220.143 281.961 225.229 280.659C228.057 279.788 231.099 279.915 233.845 281.017C236.591 282.12 238.875 284.133 240.315 286.718C243.145 291.648 243.631 296.179 242.051 300.137L241.982 300.155ZM151.293 290.85C151.536 291.093 151.883 290.954 152.387 290.85C152.89 290.745 155.008 290.19 155.008 290.624C155.008 291.058 152.682 291.457 151.953 291.405C151.224 291.353 151.397 292.082 151.953 292.152C152.508 292.221 154.626 291.822 154.8 292.152C154.678 292.638 153.81 292.759 152.144 292.638C152.059 292.612 151.967 292.622 151.889 292.664C151.811 292.707 151.752 292.778 151.727 292.863C151.702 292.949 151.711 293.04 151.754 293.118C151.796 293.197 151.868 293.255 151.953 293.28C152.213 293.384 153.498 293.384 153.48 293.731C153.037 293.906 152.568 294.005 152.092 294.026C150.694 294.047 149.304 293.806 147.995 293.315C148.368 292.508 148.676 291.672 148.915 290.815C149.454 290.755 149.976 290.585 150.447 290.316C150.919 290.048 151.331 289.686 151.658 289.252C151.536 289.912 151.033 290.485 151.363 290.832L151.293 290.85ZM332.358 262.969C332.688 262.761 332.792 263.438 332.584 264.098C332.564 264.16 332.567 264.228 332.593 264.288C332.618 264.348 332.664 264.398 332.722 264.428C333 264.549 333.087 264.237 333.452 263.646C333.816 263.056 334.007 262.449 334.372 262.223C334.736 261.997 334.892 261.997 334.84 262.223C334.45 263.127 333.93 263.969 333.295 264.723C333.256 264.747 333.221 264.78 333.195 264.818C333.169 264.857 333.151 264.9 333.143 264.946C333.134 264.992 333.136 265.039 333.147 265.085C333.159 265.13 333.18 265.172 333.209 265.209C333.643 265.764 334.476 264.358 334.945 263.473C335.413 262.587 335.813 263.473 335.361 264.098C334.962 264.642 334.533 265.164 334.077 265.66C334.039 265.686 334.007 265.72 333.982 265.758C333.957 265.797 333.941 265.84 333.932 265.885C333.916 265.976 333.937 266.07 333.99 266.146C334.043 266.222 334.124 266.274 334.215 266.29C334.306 266.307 334.4 266.286 334.476 266.233C334.855 265.901 335.209 265.541 335.535 265.157C336.628 265.556 334.25 267.83 333.365 268.629C333.212 268.052 332.933 267.517 332.549 267.061C332.165 266.604 331.685 266.239 331.143 265.99C331.451 264.931 331.882 263.911 332.427 262.952L332.358 262.969ZM306.058 160.372L304.322 161.101C304.603 158.06 303.804 155.018 302.065 152.508C302.442 152.244 302.786 151.935 303.089 151.588C303.94 152.681 304.582 153.202 306.092 152.369C306.769 152.074 310.241 150.06 311.3 149.261H314.217C314.195 151.735 313.395 154.14 311.93 156.134C310.466 158.128 308.411 159.61 306.058 160.372V160.372ZM299.947 150.303C298.436 150.685 297.881 150.477 297.742 150.303C297.985 150.077 299.252 150.095 299.478 149.938C299.55 149.888 299.601 149.813 299.622 149.728C299.643 149.642 299.633 149.552 299.592 149.474C299.552 149.396 299.485 149.335 299.404 149.302C299.322 149.269 299.231 149.267 299.148 149.296C298.721 149.407 298.268 149.351 297.881 149.14C297.818 149.095 297.767 149.035 297.733 148.965C297.7 148.895 297.685 148.818 297.69 148.741C297.69 147.977 299.339 148.862 300.797 147.994C301.29 149.015 301.871 149.991 302.533 150.911C301.11 152.473 298.784 152.542 298.384 152.022C298.263 151.865 298.384 151.727 298.506 151.64C299.044 151.431 299.982 151.64 300.45 150.911C300.513 150.839 300.549 150.748 300.551 150.652C300.552 150.557 300.519 150.465 300.459 150.391C300.398 150.318 300.313 150.269 300.219 150.252C300.125 150.236 300.029 150.254 299.947 150.303V150.303ZM298.784 146.831C300.676 147.022 300.363 146.831 300.52 147.23C300.192 147.372 299.855 147.494 299.513 147.595C299.299 147.287 299.055 147.002 298.784 146.744V146.831ZM315.501 131.207C317.237 130.235 318.574 129.749 321.577 127.943C325.622 136.398 314.633 146.588 305.606 151.102C305.467 151.102 304.877 151.553 304.721 151.518C303.359 150.011 302.324 148.238 301.683 146.31C303.246 145.131 304.694 143.806 306.005 142.352C308.154 139.836 309.91 137.009 311.213 133.967C311.195 133.909 311.157 133.859 311.107 133.825C311.057 133.79 310.997 133.773 310.936 133.776C306.96 133.967 305.502 130.443 305.554 126.537C305.554 125.565 306.613 125.148 306.682 126.121C306.856 128.777 306.943 131.329 309.53 132.353C310.547 132.618 311.612 132.653 312.645 132.455C313.678 132.257 314.654 131.831 315.501 131.207V131.207ZM311.352 92.1123C314.13 94.2476 314.946 97.1987 313.314 100.983C312.949 101.817 313.14 101.643 312.741 101.573C312.595 99.9697 312.046 98.429 311.144 97.0946C311.692 95.4886 311.765 93.7584 311.352 92.1123V92.1123ZM311.595 101.799C311.476 101.859 311.37 101.942 311.283 102.042C310.342 101.222 309.225 100.628 308.019 100.306C308.019 100.133 308.123 99.6118 308.019 99.4729C306.509 97.5807 303.211 97.5286 302.915 98.0147C302.671 98.4107 302.478 98.8367 302.342 99.282C302.144 99.1975 301.933 99.1448 301.718 99.1257C301.718 98.848 301.839 97.7716 301.631 97.6154C301.339 97.3928 301.018 97.2117 300.676 97.0772C301.51 96.2026 302.602 95.6179 303.792 95.4086C304.982 95.1993 306.208 95.3764 307.29 95.9141C308.412 96.4983 309.384 97.3331 310.13 98.3537C310.877 99.3744 311.378 100.553 311.595 101.799V101.799ZM309.547 91.0186C310.056 91.6806 310.402 92.4524 310.559 93.2724C310.716 94.0923 310.678 94.9376 310.45 95.7405C309.402 93.6953 307.87 91.9372 305.988 90.6193C307.185 90.3436 308.441 90.4845 309.547 91.0186V91.0186ZM298.975 90.411C300.854 90.1835 302.76 90.5031 304.463 91.3314C306.166 92.1597 307.593 93.4615 308.575 95.0808C307.132 94.141 305.387 93.7816 303.69 94.0746C301.993 94.3676 300.47 95.2914 299.426 96.6606C295.329 92.0081 293.02 90.845 298.975 90.411ZM297.916 101.591C298.465 101.818 299.059 101.913 299.652 101.869C299.577 101.992 299.476 102.099 299.357 102.181C299.208 102.271 299.099 102.416 299.054 102.584C299.009 102.752 299.03 102.931 299.114 103.084C299.515 103.651 300.029 104.13 300.624 104.49C300.727 104.521 300.837 104.521 300.94 104.49C301.043 104.458 301.134 104.396 301.202 104.312C301.269 104.227 301.309 104.125 301.318 104.017C301.326 103.91 301.302 103.802 301.249 103.709L300.641 102.858C301.141 102.04 301.422 101.108 301.457 100.15C301.563 100.102 301.68 100.087 301.794 100.106C301.908 100.124 302.014 100.176 302.099 100.254C302.083 100.404 302.083 100.555 302.099 100.705C302.271 101.301 302.62 101.829 303.101 102.22C303.581 102.611 304.169 102.846 304.787 102.894C305.405 102.941 306.022 102.798 306.556 102.485C307.091 102.171 307.516 101.702 307.776 101.139C308.955 101.466 310.042 102.06 310.953 102.875C310.984 102.983 311.045 103.079 311.129 103.152C311.214 103.225 311.318 103.272 311.428 103.286C311.539 103.301 311.652 103.283 311.752 103.235C311.853 103.187 311.937 103.11 311.995 103.014C312.307 102.546 313.036 102.858 313.14 103.344C313.314 104.299 312.324 104.49 311.578 105.08C310.568 106.596 309.708 108.207 309.009 109.889C308.953 109.988 308.931 110.103 308.947 110.216C308.962 110.329 309.015 110.434 309.096 110.514C306.555 113.73 303.05 116.048 299.096 117.128C299.202 116.655 299.199 116.164 299.088 115.692C298.976 115.22 298.76 114.779 298.454 114.403C298.246 114.212 298.923 113.517 299.391 112.805C299.651 112.411 299.883 111.999 300.086 111.573C300.398 111.833 300.693 112.128 300.988 111.799C301.033 111.758 301.069 111.708 301.093 111.653C301.118 111.598 301.131 111.538 301.131 111.477C301.131 111.417 301.118 111.357 301.093 111.302C301.069 111.246 301.033 111.197 300.988 111.156C297.569 108.274 296.596 105.375 297.916 101.591V101.591ZM294.444 114.871C295.728 113.373 297.254 112.1 298.957 111.104C298.645 111.764 297.221 113.864 297.221 114.177C297.201 114.48 297.301 114.779 297.499 115.01C297.936 115.702 298.114 116.526 298.002 117.336L297.482 117.458C297.371 117.476 297.273 117.538 297.207 117.629C297.142 117.72 297.116 117.833 297.134 117.944C297.153 118.054 297.214 118.153 297.306 118.218C297.397 118.283 297.51 118.31 297.621 118.291C300.066 117.958 302.418 117.128 304.531 115.853C306.645 114.579 308.475 112.886 309.911 110.878C311.092 111.243 311.318 112.233 311.023 113.43C309.259 117.036 306.687 120.184 303.506 122.631C301.04 124.541 299.409 125.808 298.298 125.322C297.166 123.253 296.269 121.063 295.624 118.795C294.652 116.086 294.34 115.687 294.53 114.871H294.444ZM295.867 144.869C295.277 145.442 294.669 144.505 288.663 138.029C288.564 137.93 288.508 137.796 288.508 137.656C288.508 137.516 288.564 137.382 288.663 137.283C288.762 137.184 288.896 137.128 289.036 137.128C289.176 137.128 289.31 137.184 289.409 137.283C296.041 143.862 296.457 144.401 295.954 144.869H295.867ZM262.71 113.326C262.71 113.326 262.553 113.083 262.71 112.753C262.886 112.382 263.164 112.067 263.511 111.846C263.858 111.625 264.26 111.506 264.671 111.503C264.625 111.715 264.59 111.93 264.567 112.146C264.009 112.471 263.475 112.836 262.97 113.239C262.97 113.239 262.831 113.344 262.796 113.326H262.71ZM263.873 114.576C263.543 114.732 263.074 114.212 263.161 113.847C263.526 113.569 264.15 113.257 264.602 112.944C264.691 113.18 264.801 113.406 264.932 113.621C264.714 114.063 264.335 114.405 263.873 114.576V114.576ZM264.255 115.201C264.255 114.854 264.619 115.045 265.522 113.882C265.667 113.923 265.819 113.934 265.969 113.913C266.118 113.892 266.262 113.84 266.39 113.76C267.05 113.361 267.779 111.608 266.98 111.503C266.929 111.493 266.876 111.494 266.825 111.506C266.773 111.517 266.725 111.539 266.683 111.57C266.64 111.601 266.605 111.64 266.578 111.686C266.552 111.731 266.535 111.781 266.529 111.833C266.529 112.337 265.991 113.135 265.574 112.701C265.157 112.267 266.182 110.028 267.97 110.965C269.202 111.521 268.386 113.361 269.306 114.437C268.872 114.819 268.456 115.218 268.039 115.618L266.998 114.593C267.327 113.934 266.772 113.812 266.564 114.003C265.713 114.68 264.428 116.173 264.168 115.201H264.255ZM266.182 115.757L266.459 115.427C266.755 115.705 267.067 116 267.379 116.329L266.859 116.868C266.542 116.544 266.283 116.168 266.095 115.757H266.182ZM280.955 132.856C274.254 131.953 270.539 124.697 267.206 118.881C266.824 118.204 267.067 118.343 268.282 117.145C271.476 120.34 282.396 131.554 283.49 132.683C282.63 132.873 281.746 132.932 280.868 132.856H280.955ZM268.942 116.573C271.685 113.864 270.678 113.812 272.032 115.114C273.386 116.416 279.497 121.85 281.007 123.239C281.098 123.327 281.219 123.376 281.346 123.376C281.472 123.376 281.593 123.327 281.684 123.239C282.119 122.831 282.596 122.47 283.108 122.162C284.213 125.194 285.5 128.156 286.962 131.033C286.291 131.649 285.507 132.127 284.653 132.44C280.018 127.752 272.553 120.218 268.855 116.573H268.942ZM285.486 133.29C286.206 132.977 286.873 132.556 287.465 132.04C287.847 132.717 287.899 132.821 288.073 132.839C288.116 132.84 288.159 132.831 288.198 132.813C288.237 132.795 288.271 132.768 288.298 132.735C290.359 129.892 291.564 126.519 291.77 123.013C291.874 122.093 292.899 122.336 292.829 123.256C292.556 127.213 291.105 130.998 288.663 134.123C288.663 134.28 288.333 134.974 287.968 135.859C287.378 135.408 286.441 134.419 285.399 133.29H285.486ZM280.191 145.564C282.325 144.255 284.547 143.095 286.84 142.092C289.935 144.051 293.314 145.52 296.857 146.449C297.366 146.715 297.829 147.06 298.228 147.473C297.97 147.463 297.714 147.523 297.488 147.648C297.262 147.772 297.073 147.955 296.943 148.178C296.813 148.401 296.746 148.655 296.749 148.913C296.752 149.171 296.825 149.424 296.961 149.643C296.832 149.754 296.736 149.898 296.683 150.06C296.629 150.221 296.621 150.394 296.658 150.56C296.696 150.726 296.778 150.878 296.895 151.001C297.013 151.124 297.161 151.213 297.325 151.258C296.579 152.595 298.246 154.087 300.797 153.115C300.788 153.155 300.788 153.197 300.797 153.237C302.811 155.528 302.985 158.618 303.002 161.552C293.593 165.163 292.985 164.903 293.246 165.649C293.279 165.77 293.356 165.873 293.463 165.937C293.57 166.002 293.697 166.023 293.819 165.996C294.253 165.892 294.704 165.788 295.155 165.649C294.235 171.812 295.364 177.94 294.704 184.051C294.601 185.325 294.403 186.59 294.114 187.835C292.992 188.231 291.826 188.488 290.642 188.599C289.704 188.738 288.159 189.207 287.569 188.426C287.309 187.976 287.116 187.49 286.996 186.985C281.424 170.354 278.924 165.007 281.059 159.539C282.795 155.233 287.517 153.272 290.798 150.129C291.215 149.765 290.642 149.157 290.225 149.504C285.364 153.619 278.872 155.042 278.854 163.514C275.209 163.722 273.334 167.212 271.546 170.302C271.181 170.909 264.602 181.36 264.012 181.169C261.866 180.25 259.804 179.146 257.849 177.871C257.467 177.506 257.953 176.638 258.127 176.135C267.084 150.563 269.428 151.657 280.104 145.564H280.191ZM287.43 194.71L286.614 194.154L286.944 193.842C287.394 194.151 287.926 194.321 288.472 194.328C288.559 194.328 288.643 194.293 288.705 194.231C288.767 194.17 288.802 194.086 288.802 193.998C288.802 193.911 288.767 193.827 288.705 193.765C288.643 193.703 288.559 193.668 288.472 193.668C288.192 193.547 287.929 193.389 287.691 193.2L288.038 192.835C288.451 193.082 288.895 193.274 289.357 193.408C289.635 193.408 289.739 193.408 289.774 193.252C289.809 193.095 289.618 192.974 288.68 192.141C288.774 192.016 288.855 191.882 288.923 191.741C289.712 192.097 290.567 192.282 291.432 192.282C292.297 192.282 293.152 192.097 293.94 191.741C294.044 192.523 294.357 194.658 294.392 195.04C291.396 195.422 288.383 195.648 285.364 195.717C285.364 195.613 285.364 195.352 286.024 194.797C286.406 195.005 287.326 195.456 287.569 195.196C287.606 195.153 287.629 195.1 287.637 195.045C287.644 194.989 287.636 194.932 287.612 194.881C287.588 194.83 287.55 194.786 287.503 194.756C287.455 194.726 287.4 194.71 287.343 194.71H287.43ZM289.27 190.162L293.472 189.502C293.472 189.814 293.558 190.37 293.576 190.665C292.921 191.004 292.195 191.182 291.458 191.182C290.721 191.182 289.994 191.004 289.34 190.665C289.236 190.509 289.218 190.318 289.184 190.162H289.27ZM260.47 186.69C260.279 186.69 252.849 183.825 252.051 183.218C252.155 183.009 252.537 182.87 252.884 182.749C253.127 183.096 253.769 183.895 254.099 183.79C254.162 183.764 254.213 183.716 254.245 183.656C254.276 183.596 254.286 183.527 254.273 183.461C254.273 183.461 253.752 182.506 253.717 182.454L254.307 182.263C254.576 182.733 254.966 183.122 255.436 183.391C255.515 183.411 255.599 183.402 255.672 183.366C255.745 183.33 255.804 183.27 255.837 183.195C255.87 183.121 255.876 183.037 255.853 182.958C255.831 182.88 255.781 182.812 255.714 182.766C255.51 182.53 255.341 182.267 255.21 181.985L255.731 181.794C256.009 182.259 256.374 182.666 256.807 182.992C257.154 183.113 257.328 182.61 257.102 182.506C256.916 182.158 256.754 181.799 256.616 181.429C256.751 181.374 256.879 181.304 256.998 181.221C257.553 181.894 258.24 182.445 259.016 182.843C259.792 183.24 260.642 183.474 261.512 183.53C261.408 183.947 260.904 185.526 260.505 186.499C260.401 186.568 260.401 186.637 260.401 186.637L260.47 186.69ZM257.797 180.544L258.161 179.537L261.911 181.62C261.824 181.846 261.703 182.193 261.616 182.384C260.817 182.436 258.161 181.916 257.797 180.544V180.544ZM244.464 236.53C244.464 229.586 246.634 222.225 244.239 215.281C242.989 211.636 241.166 211.41 238.423 212.296C235.607 213.256 232.557 213.287 229.723 212.384C226.888 211.481 224.418 209.691 222.677 207.279C215.265 197.036 224.587 179.815 237.52 187.089C238.976 188.03 240.195 189.295 241.079 190.787C241.449 190.983 241.863 191.083 242.282 191.077C242.702 191.07 243.112 190.958 243.476 190.75C243.84 190.542 244.146 190.245 244.364 189.887C244.582 189.529 244.706 189.122 244.725 188.703C244.551 188.703 244.864 189.971 244.273 174.069C244.1 168.392 243.353 160.945 247.919 157.351C253.127 154.053 260.071 155.337 264.932 156.414C261.664 162.963 258.952 169.774 256.825 176.777C256.636 177.142 256.583 177.562 256.675 177.963C256.767 178.364 256.999 178.718 257.328 178.964C257.206 179.242 257.016 179.728 256.929 179.937C254.967 181.308 250.245 181.464 250.731 183.565C250.94 184.485 259.081 187.037 259.62 187.367C260.974 188.044 260.835 187.992 262.449 183.79C262.52 183.644 262.557 183.484 262.557 183.322C262.557 183.159 262.52 182.999 262.449 182.853C262.567 182.592 262.671 182.326 262.762 182.054C263.491 182.367 264.498 182.731 265.279 181.846C273.959 170.927 273.664 165.424 278.959 164.677C279.24 167.392 279.852 170.062 280.781 172.628C281.094 173.565 285.903 188.009 286.267 188.773C286.437 189.144 286.698 189.466 287.026 189.709C287.353 189.952 287.738 190.107 288.142 190.162C288.142 190.752 288.663 189.797 284.809 194.206C284.358 194.727 283.68 195.508 284.08 196.324C284.223 196.573 284.436 196.774 284.692 196.904C284.948 197.033 285.236 197.085 285.521 197.053C285.694 197.053 294.53 196.133 294.878 195.89C295.003 195.781 295.094 195.637 295.141 195.477C295.187 195.317 295.186 195.147 295.138 194.988C294.739 192.47 295.138 191.203 294.426 190.717C294.426 190.37 294.34 189.693 294.287 189.328C295.173 189.068 295.312 188.148 295.398 187.592C296.857 179.294 295.485 172.715 296.336 165.337C298.558 164.608 300.797 163.774 303.106 162.854C303.106 167.489 302.429 192.262 302.395 195.838C300.815 211.566 314.668 218.302 309.721 230.905C309.685 231.028 309.696 231.16 309.751 231.275C309.806 231.391 309.902 231.482 310.02 231.531C310.138 231.581 310.27 231.585 310.391 231.543C310.512 231.501 310.613 231.416 310.675 231.305C313.731 224.725 311.231 219.153 307.898 212.816C302.099 201.706 303.627 204.136 304.217 162.472L304.825 162.212C311.474 162.767 326.646 163.948 330.57 169.607C331.9 171.583 332.568 173.929 332.479 176.308C332.653 198.876 332.566 210.282 331.004 250.262C330.049 260.279 309.877 256.043 301.266 255.73C298.87 255.73 296.353 255.47 297.43 253.335C298.037 252.276 299.357 251.859 300.398 251.217C304.078 248.925 306.092 238.735 298.298 231.947C286.146 221.427 267.05 232.728 276.268 249.706C278.403 253.178 275.244 253.421 271.216 252.935C271.216 252.935 257.432 251.737 254.429 251.425C245.402 250.418 244.464 240.679 244.464 236.53V236.53ZM244.013 284.235L243.544 283.524C243.211 276.709 243.467 269.879 244.308 263.108C244.407 260.648 244.887 258.217 245.732 255.904C248.683 249.811 266.338 254.064 271.98 254.289C274.028 254.532 276.337 254.654 277.674 253.092C279.011 251.529 278.021 250.054 277.327 248.769C276.267 246.999 275.584 245.029 275.321 242.983C275.059 240.936 275.221 238.858 275.799 236.877C282.274 222.989 304.148 229.482 302.204 244.828C301.492 250.904 298.732 249.741 296.77 251.911C296.363 252.309 296.075 252.811 295.937 253.363C295.799 253.915 295.817 254.494 295.989 255.036C296.683 256.772 298.732 256.772 300.207 256.945C304.495 257.206 314.008 257.97 324.685 259.029C328.678 259.411 329.25 260.018 330.171 261.025C330.643 261.546 331.04 262.13 331.351 262.761C330.792 263.703 330.371 264.72 330.101 265.782C329.139 265.853 328.234 266.265 327.549 266.945C323.922 269.426 320.61 272.341 317.689 275.625C312.249 274.137 306.573 273.707 300.971 274.358C301.851 271.961 302.434 269.466 302.707 266.927C303.143 266.464 303.483 265.918 303.706 265.322C303.93 264.726 304.033 264.092 304.009 263.455C303.87 260.643 301.231 259.636 298.419 258.247C295.924 256.9 293.254 255.907 290.486 255.296C288.029 254.751 285.495 254.651 283.003 255.001C281.267 255.14 280.938 257.171 280.747 258.473C279.92 258.968 279.2 259.624 278.629 260.4C278.596 260.443 278.579 260.494 278.579 260.548C278.579 260.601 278.596 260.653 278.629 260.695C278.837 261.008 279.254 260.487 281.024 260.904C279.671 261.606 278.622 262.779 278.073 264.202C278.054 264.253 278.051 264.309 278.065 264.361C278.08 264.414 278.11 264.461 278.152 264.495C278.194 264.53 278.246 264.55 278.3 264.554C278.355 264.557 278.409 264.543 278.455 264.514C279.35 263.914 280.352 263.49 281.406 263.265C281.46 264.79 281.101 266.302 280.365 267.639C279.913 268.438 278.75 269.375 281.545 271.007C280.729 273.264 280.695 276.545 282.917 277.639C279.853 279.253 277.083 281.371 274.723 283.906C272.565 281.843 269.856 280.449 266.924 279.891C263.991 279.334 260.96 279.637 258.196 280.763C258.005 278.923 259.411 278.246 258.942 276.996C258.893 276.841 258.804 276.701 258.686 276.589C258.568 276.476 258.423 276.396 258.265 276.354C257.606 276.25 256.946 277.135 256.529 277.552C256.148 276.389 256.009 273.906 254.637 274.392C254.437 274.474 254.265 274.61 254.139 274.785C254.013 274.96 253.939 275.167 253.925 275.382C253.612 275.364 253.302 275.463 253.057 275.66C252.87 275.837 252.725 276.053 252.632 276.293C252.539 276.534 252.5 276.791 252.519 277.048C250.783 278.455 251.738 281.25 252.884 283.194C250.166 284.655 246.995 285.027 244.013 284.235V284.235ZM285.972 270.347C282.917 269.983 282.031 270.347 280.99 269.132C280.66 268.716 282.587 267.223 282.396 263.265C283.437 263.317 284.48 263.317 285.521 263.265C286.25 263.265 286.996 263.369 287.934 264.705C288.177 266.546 287.968 270.278 285.972 270.278V270.347ZM286.805 273.021C285.781 275 281.979 274.635 282.83 273.212C282.873 273.13 282.933 273.057 283.005 272.999C283.078 272.941 283.161 272.899 283.251 272.874C283.34 272.85 283.434 272.844 283.526 272.857C283.618 272.871 283.706 272.903 283.785 272.951C284.16 273.176 284.603 273.261 285.035 273.191C285.467 273.121 285.86 272.901 286.146 272.569C286.208 272.512 286.288 272.476 286.372 272.467C286.457 272.457 286.542 272.475 286.616 272.518C286.69 272.561 286.748 272.626 286.782 272.704C286.816 272.782 286.824 272.868 286.805 272.951V273.021ZM281.788 258.022C281.979 257.241 282.24 256.407 282.917 256.286C283.299 256.286 283.941 257.223 284.41 258.022C283.561 257.746 282.65 257.722 281.788 257.952V258.022ZM273.872 284.86C272.709 286.076 271.615 287.308 270.504 288.541C267.321 285.525 263.576 283.165 259.481 281.597C261.945 280.79 264.582 280.66 267.114 281.222C269.646 281.784 271.98 283.017 273.872 284.791V284.86ZM252.676 279.114C252.716 278.873 252.792 278.639 252.901 278.42C252.99 279.017 253.153 279.6 253.387 280.156C253.613 280.677 254.255 280.364 254.012 279.809C253.671 279.015 253.511 278.155 253.544 277.291C253.544 276.927 253.544 276.597 253.839 276.597C254.134 276.597 254.203 278.333 254.377 278.784C254.55 279.236 255.401 279.132 255.193 278.541C254.963 277.78 254.789 277.002 254.672 276.215C254.751 275.959 254.902 275.73 255.106 275.555C255.314 275.694 255.523 277.291 255.852 278.021C256.182 278.75 256.686 278.993 257.154 278.472C257.38 278.229 257.849 277.673 258.074 277.482C258.074 278.211 256.703 279.132 257.293 281.388C256.684 281.569 256.117 281.869 255.625 282.271C255.133 282.674 254.726 283.17 254.429 283.732C253.362 282.395 252.748 280.754 252.676 279.045V279.114ZM281.181 339.874C281.088 343.041 281.344 346.208 281.944 349.318C273.976 348.589 256.634 345.1 254.446 344.579C245.002 342.339 244.03 333.416 244.03 323.747C244.03 314.077 243.388 311.005 244.933 309.703C245.204 309.51 245.514 309.379 245.841 309.319C246.167 309.259 246.504 309.271 246.825 309.355C248.708 309.737 250.486 310.525 252.033 311.664C259.324 316.56 271.338 313.747 276.216 308.487C279.021 305.718 280.697 302.006 280.92 298.071C282.882 297.117 284.861 296.162 285.66 295.745C291.319 301.127 285.66 308.348 292.499 314.06C285.876 321.078 281.893 330.177 281.233 339.805L281.181 339.874ZM293.09 379.16C289.045 379.472 288.472 379.559 288.802 379.16C289.132 378.761 290.538 378.535 291.736 377.684C292.933 376.834 292.794 376.417 293.107 376.573C293.948 376.965 294.882 377.113 295.803 376.999C296.724 376.886 297.594 376.516 298.315 375.931C298.315 376.73 298.402 378.361 298.436 378.917C297.36 378.778 295.121 378.934 293.09 379.09V379.16ZM292.951 373.014L297.603 371.765C297.603 372.442 297.829 373.882 297.916 374.438C296.596 376.052 295.086 375.966 293.281 375.132C293.246 374.56 293.072 373.622 292.951 372.945V373.014ZM317.029 321.125C314.833 325.57 312.211 329.791 309.2 333.729C308.922 334.128 309.703 343.815 315.467 353.276C310.658 352.738 303.731 351.957 300.433 351.54C300.433 347.947 300.433 344.266 300.242 340.586C301.969 339.288 303.594 337.861 305.103 336.315C309.027 331.362 312.512 326.076 315.519 320.518C316.161 318.903 317.689 319.251 317.029 321.056V321.125ZM301.04 321.993L301.37 315.049C304.197 315.319 307.038 315.418 309.877 315.345V321.785L304.894 324.632L301.04 321.993ZM308.87 303.123C303.029 305.352 297.71 308.762 293.246 313.14C286.302 307.064 292.621 300.849 286.614 295.103L288.038 294.287C288.12 294.232 288.18 294.149 288.207 294.053C288.234 293.957 288.226 293.855 288.184 293.765C288.142 293.675 288.069 293.603 287.979 293.562C287.888 293.52 287.786 293.513 287.691 293.54C273.577 299.078 268.49 305.536 261.13 296.474C259.015 294.111 257.169 291.52 255.627 288.749C255.255 288.068 255.04 287.312 254.998 286.537C254.956 285.762 255.088 284.988 255.384 284.27C256.963 280.711 261.199 283.072 264.411 285.277C266.564 286.735 269.515 289.357 270.07 289.773C270.247 289.846 270.439 289.874 270.63 289.856C270.82 289.838 271.004 289.774 271.164 289.669C272.084 288.732 278.229 281.215 281.58 279.6C282.24 279.218 282.969 278.871 283.628 278.489C284.481 278.209 285.359 278.012 286.25 277.899C287.986 277.187 290.711 274.236 288.42 262.275C288.143 261.082 287.454 260.025 286.475 259.289C285.993 258.025 285.3 256.851 284.427 255.817C289.93 255.557 295.416 258.004 300.329 260.556C301.111 260.899 301.802 261.423 302.342 262.084C303.94 264.688 301.249 267.066 298.575 268.334C298.476 268.373 298.397 268.45 298.355 268.547C298.312 268.645 298.311 268.755 298.35 268.854C298.389 268.953 298.466 269.033 298.563 269.075C298.661 269.117 298.772 269.119 298.87 269.08C299.818 268.773 300.718 268.335 301.544 267.778C301.209 269.938 300.626 272.053 299.808 274.08C299.617 274.618 299.339 275.104 299.686 275.364C300.034 275.625 299.999 275.364 300.242 275.364C308.922 274.635 310.814 274.913 317.602 276.528C317.701 276.533 317.801 276.518 317.894 276.482C317.987 276.446 318.071 276.391 318.14 276.319C320.241 273.455 325.865 269.375 328.782 267.396C330.518 266.146 332.757 268.386 331.976 271.25C331.279 273.095 330.295 274.817 329.06 276.354C325.987 280.85 321.664 286.18 315.467 287.673C314.963 286.631 314.477 285.555 314.026 284.548C313.8 284.027 312.949 284.374 313.158 284.895C316.769 294.339 318.123 293.141 321.23 298.106C322.524 300.501 323.243 303.163 323.331 305.883C321.161 303.262 316.369 299.946 308.87 303.054V303.123ZM331.195 346.818C330.379 345.082 329.563 343.45 328.764 341.766C329.149 335.914 329.079 330.04 328.556 324.198C328.209 320.5 326.577 311.057 324.754 307.776C325.292 297.36 318.834 294.408 316.074 288.801C322.376 287.256 326.82 281.857 329.65 277.899C330.784 276.449 331.799 274.911 332.688 273.299C332.844 287.412 333.573 333.26 333.4 338.537C333.122 341.377 332.377 344.152 331.195 346.749V346.818ZM331.872 366.227L336.073 363.258C336.455 363.848 337.41 365.272 337.809 365.741C337.809 367.32 336.802 368.518 334.337 368.9C333.581 367.929 332.757 367.012 331.872 366.157V366.227ZM332.861 374.907C332.757 374.803 332.775 374.455 333.018 374.16C333.831 372.931 334.419 371.568 334.754 370.133C335.683 370.008 336.558 369.624 337.279 369.025C338 368.427 338.539 367.637 338.833 366.748C339.337 367.39 340.083 368.484 340.569 369.161C338.174 370.723 333.174 375.167 332.861 374.837V374.907Z" fill="#0A2840"></path>
  <path opacity="0.93" d="M104.302 308.49L107.358 314.239L93.3016 312.864L86.5808 325.287L83.5242 319.538L90.245 307.116L104.302 308.49Z" fill="#03FFFF"></path>
  <path opacity="0.76" d="M287.31 75.6016L292.857 77.8429L282.15 85.1781L284.757 97.8924L279.21 95.6511L276.603 82.9369L287.31 75.6016Z" fill="#03FFFF"></path>
  <path opacity="0.83" d="M357.884 197.549L349.805 193.253L367.263 183.808L365.331 164.052L373.41 168.348L375.342 188.104L357.884 197.549Z" fill="#00BCF4"></path>
  <path opacity="0.97" d="M190.864 233.477L191.962 228.314L199.976 236.494L210.625 232.281L209.527 237.444L198.878 241.657L190.864 233.477Z" fill="#03FFFF"></path>
  <path opacity="0.79" d="M350.165 138.74L342.306 140.267L348.976 124.231L336.784 111.861L344.644 110.333L356.836 122.703L350.165 138.74Z" fill="#00BCF4"></path>
  <path opacity="0.74" d="M323.203 321.864L320.293 311.715L342.126 318.635L356.975 301.197L359.885 311.346L345.036 328.784L323.203 321.864Z" fill="#00BCF4"></path>
  <path opacity="0.97" d="M389.313 113.664L390.411 108.5L398.425 116.68L409.074 112.467L407.976 117.631L397.328 121.844L389.313 113.664Z" fill="#03FFFF"></path>
</svg>
