<?xml version="1.0" encoding="UTF-8"?>
<svg xmlns="http://www.w3.org/2000/svg" width="102" height="100" viewBox="0 0 102 100" fill="none">
  <path fill-rule="evenodd" clip-rule="evenodd" d="M45.0283 25C45.0283 14.0361 53.9803 5.125 65.0516 5.125C76.123 5.125 85.0749 14.0361 85.0749 25C85.0749 30.4489 82.8639 35.3907 79.2804 38.9837C79.2542 39.0074 79.2285 39.032 79.2033 39.0574C79.1846 39.0762 79.1663 39.0954 79.1484 39.1148C75.5319 42.6744 70.5534 44.875 65.0516 44.875C53.9803 44.875 45.0283 35.9639 45.0283 25ZM80.5656 43.2294C76.3782 46.7521 70.9621 48.875 65.0516 48.875C51.7967 48.875 41.0283 38.1985 41.0283 25C41.0283 11.8015 51.7967 1.125 65.0516 1.125C78.3066 1.125 89.0749 11.8015 89.0749 25C89.0749 30.8762 86.9404 36.2525 83.4024 40.4092L97.9221 54.8311C98.7057 55.6096 98.71 56.8759 97.9316 57.6596C97.1532 58.4432 95.8869 58.4475 95.1032 57.6691L80.5656 43.2294Z" fill="#E6F9FC"></path>
  <path d="M29.1219 31.8125C20.6272 35 13.1812 42.7542 12.1744 57.3708C11.2515 70.9333 8.81847 73.1292 5.31152 76.6208C12.0855 81.4661 20.4247 83.6508 28.7233 82.7542" stroke="#E6F9FC" stroke-width="4" stroke-linecap="round" stroke-linejoin="round"></path>
  <path d="M49.4082 82.7919C57.7096 83.6524 66.0403 81.4566 72.82 76.6211C69.3005 73.1294 66.88 70.9336 65.9529 57.3711" stroke="#E6F9FC" stroke-width="4" stroke-linecap="round" stroke-linejoin="round"></path>
  <path d="M68.319 96.492C63.6458 94.5712 58.117 92.6087 52.1098 90.4003C51.317 90.1091 50.633 89.5835 50.15 88.8944C49.667 88.2054 49.4081 87.3858 49.4083 86.5462V79.0462C49.4081 78.4764 49.5273 77.9127 49.7585 77.3912C49.9896 76.8697 50.3275 76.4017 50.7507 76.017C52.2924 74.6211 53.5217 72.9191 54.3593 71.0214C55.1968 69.1236 55.6238 67.0724 55.6126 65.0003V54.7087C49.1406 53.718 43.2557 50.4138 39.0636 45.417C34.8739 50.4144 28.99 53.7189 22.5189 54.7087V65.0003C22.5048 67.0752 22.9305 69.1299 23.7681 71.0308C24.6057 72.9316 25.8366 74.6362 27.3808 76.0337C27.8041 76.4191 28.1421 76.8879 28.3732 77.4101C28.6043 77.9323 28.7235 78.4966 28.7232 79.067V86.567C28.7234 87.4066 28.4645 88.2262 27.9815 88.9153C27.4985 89.6044 26.8145 90.1299 26.0217 90.4212C20.0145 92.6295 14.4856 94.5878 9.8125 96.5087" stroke="#E6F9FC" stroke-width="4" stroke-linecap="round" stroke-linejoin="round"></path>
  <path d="M83.3457 82.5997C88.6452 81.9606 93.6825 79.9489 97.9524 76.7663C94.7456 74.0434 92.667 70.2378 92.1173 66.083" stroke="#E6F9FC" stroke-width="4" stroke-linecap="round" stroke-linejoin="round"></path>
  <path d="M93.9379 96.8542C89.1641 94.8708 83.4507 92.85 77.2422 90.5625" stroke="#E6F9FC" stroke-width="4" stroke-linecap="round" stroke-linejoin="round"></path>
</svg>
