<?xml version="1.0" encoding="UTF-8"?>
<svg xmlns="http://www.w3.org/2000/svg" width="100" height="100" viewBox="0 0 100 100" fill="none">
  <path d="M56.9464 96.7243H7.65252C7.06498 96.7243 6.48327 96.6078 5.94099 96.3815C5.39868 96.1552 4.90657 95.8236 4.49306 95.4059C4.07954 94.9882 3.75283 94.4923 3.5318 93.9474C3.31076 93.4028 3.19978 92.8195 3.20527 92.2313V7.61312C3.19978 7.02507 3.31076 6.44173 3.5318 5.89687C3.75283 5.35197 4.07954 4.85633 4.49306 4.43856C4.90657 4.02081 5.39868 3.6892 5.94099 3.4629C6.48327 3.23659 7.06498 3.12009 7.65252 3.12012H70.4128C71.0022 3.12012 71.5861 3.23633 72.1306 3.46213C72.6751 3.68792 73.1701 4.01887 73.587 4.43607C74.0039 4.85329 74.3343 5.3486 74.56 5.89371C74.7857 6.43882 74.9016 7.02308 74.9016 7.61312V29.9949" stroke="#E6F9FC" stroke-width="3" stroke-linecap="round" stroke-linejoin="round"></path>
  <path d="M30.0137 26.542H56.8634" stroke="#E6F9FC" stroke-width="3" stroke-linecap="round" stroke-linejoin="round"></path>
  <path d="M66.2979 47.2182C64.0605 45.7838 61.7118 44.5316 59.2737 43.474C57.8709 42.7839 56.3082 42.4852 54.75 42.6096C53.1922 42.734 51.6963 43.2773 50.4207 44.1813L42.7316 49.6727C41.5418 50.5231 40.5375 51.6072 39.7801 52.859C39.0226 54.1108 38.5278 55.5036 38.3259 56.953L37.1621 65.2734" stroke="#E6F9FC" stroke-width="3" stroke-linecap="round" stroke-linejoin="round"></path>
  <path fill-rule="evenodd" clip-rule="evenodd" d="M12.5586 42.6011C12.5586 40.6368 14.15 39.041 16.1172 39.041C18.0845 39.041 19.6758 40.6368 19.6758 42.6011C19.6758 44.5655 18.0844 46.1612 16.1172 46.1612C14.15 46.1612 12.5586 44.5655 12.5586 42.6011Z" fill="#E6F9FC"></path>
  <path fill-rule="evenodd" clip-rule="evenodd" d="M12.5586 26.5005C12.5586 24.5361 14.1501 22.9404 16.1172 22.9404C18.0843 22.9404 19.6758 24.5361 19.6758 26.5005C19.6758 28.4649 18.0844 30.0606 16.1172 30.0606C14.15 30.0606 12.5586 28.4649 12.5586 26.5005Z" fill="#E6F9FC"></path>
  <path d="M96.7222 93.6043L74.4443 57.9932" stroke="#E6F9FC" stroke-width="3" stroke-linecap="round" stroke-linejoin="round"></path>
  <path d="M57.0715 68.6435L80.2222 54.4572C81.6528 53.4833 82.654 51.9957 83.0185 50.3029C83.3826 48.6101 83.0817 46.8416 82.1785 45.3647C81.275 43.8879 79.8381 42.8158 78.166 42.3706C76.4939 41.9259 74.7151 42.1423 73.198 42.9751L31.2608 68.7267L23.3223 81.4568L38.2434 80.1672L46.847 74.8837" stroke="#E6F9FC" stroke-width="3" stroke-linecap="round" stroke-linejoin="round"></path>
  <path d="M68.6673 68.6426H53.0811C51.4278 68.6426 49.8417 69.2999 48.6725 70.4701C47.5034 71.6404 46.8467 73.2279 46.8467 74.8829C46.8467 76.5378 47.5034 78.1253 48.6725 79.2956C49.8417 80.4658 51.4278 81.1231 53.0811 81.1231H64.4694L71.7845 96.7238" stroke="#E6F9FC" stroke-width="3" stroke-linecap="round" stroke-linejoin="round"></path>
</svg>
