<?xml version="1.0" encoding="UTF-8"?>
<svg xmlns="http://www.w3.org/2000/svg" width="100" height="98" viewBox="0 0 100 98" fill="none">
  <path fill-rule="evenodd" clip-rule="evenodd" d="M4.64453 14.5C4.64453 8.71373 9.37072 4 15.2293 4H84.4454C90.3039 4 95.0301 8.71373 95.0301 14.5V58.333H4.64453V44.4994L20.8327 28.4202L20.8332 28.4198C21.047 28.2078 21.3396 28.0864 21.6475 28.0864C21.9515 28.0864 22.2405 28.2048 22.4536 28.4117L30.4519 36.6057L30.4745 36.6285C31.4405 37.5868 32.747 38.1226 34.1064 38.1226C35.4658 38.1226 36.7723 37.5868 37.7382 36.6285L37.7391 36.6276L54.5188 19.961C55.3025 19.1826 55.3067 17.9162 54.5283 17.1326C53.7499 16.3489 52.4836 16.3446 51.6999 17.123L34.9212 33.7888C34.7073 34.001 34.4145 34.1226 34.1064 34.1226C33.8024 34.1226 33.5134 34.0042 33.3003 33.7973L25.302 25.6033L25.2793 25.5805C24.3134 24.6222 23.0069 24.0864 21.6475 24.0864C20.2881 24.0864 18.9816 24.6222 18.0156 25.5805L18.0148 25.5813L4.64453 38.8615V14.5ZM0.644531 43.6667V14.5C0.644531 6.47915 7.18711 0 15.2293 0H84.4454C92.4875 0 99.0301 6.47915 99.0301 14.5V60.333V64.5C99.0301 72.5208 92.4875 79 84.4454 79H61.6394L64.1144 93.75H71.8606C72.9652 93.75 73.8606 94.6454 73.8606 95.75C73.8606 96.8546 72.9652 97.75 71.8606 97.75H62.4221H37.2526H27.814C26.7095 97.75 25.814 96.8546 25.814 95.75C25.814 94.6454 26.7095 93.75 27.814 93.75H35.5602L38.0352 79H15.2293C7.18711 79 0.644531 72.5208 0.644531 64.5V60.333V43.6674C0.644531 43.6671 0.644531 43.6669 0.644531 43.6667ZM4.64453 62.333H95.0301V64.5C95.0301 70.2863 90.3039 75 84.4454 75H59.2759H40.3988H15.2293C9.37072 75 4.64453 70.2863 4.64453 64.5V62.333ZM42.0911 79L39.6161 93.75H60.0585L57.5835 79H42.0911Z" fill="white"></path>
  <path fill-rule="evenodd" clip-rule="evenodd" d="M73.8611 25.958C73.8611 24.8534 72.9657 23.958 71.8611 23.958C70.7565 23.958 69.8611 24.8534 69.8611 25.958V46.7913C69.8611 47.8959 70.7565 48.7913 71.8611 48.7913C72.9657 48.7913 73.8611 47.8959 73.8611 46.7913V25.958ZM59.2764 33.333C60.3809 33.333 61.2764 34.2284 61.2764 35.333V46.7913C61.2764 47.8959 60.3809 48.7913 59.2764 48.7913C58.1718 48.7913 57.2764 47.8959 57.2764 46.7913V35.333C57.2764 34.2284 58.1718 33.333 59.2764 33.333ZM84.4459 33.333C85.5504 33.333 86.4459 34.2284 86.4459 35.333V46.7913C86.4459 47.8959 85.5504 48.7913 84.4459 48.7913C83.3413 48.7913 82.4459 47.8959 82.4459 46.7913V35.333C82.4459 34.2284 83.3413 33.333 84.4459 33.333Z" fill="white"></path>
</svg>
