<?xml version="1.0" encoding="UTF-8"?>
<svg xmlns="http://www.w3.org/2000/svg" width="98" height="98" viewBox="0 0 98 98" fill="none">
  <path d="M53.6406 44.7119C56.3375 47.4723 59.5719 49.6666 63.1497 51.1631C66.7275 52.6595 70.5748 53.4273 74.4608 53.4202C78.3922 53.4148 82.2831 52.6357 85.9056 51.1286" stroke="white" stroke-width="4" stroke-linecap="round" stroke-linejoin="round"></path>
  <path d="M68.6328 70.7122C78.2423 70.7122 86.0323 63.0265 86.0323 53.5456C86.0323 44.0647 78.2423 36.3789 68.6328 36.3789C59.0234 36.3789 51.2334 44.0647 51.2334 53.5456C51.2334 63.0265 59.0234 70.7122 68.6328 70.7122Z" stroke="white" stroke-width="4" stroke-linecap="round" stroke-linejoin="round"></path>
  <path d="M46.4612 33.2535H40.3376V42.6285L27.6681 33.2535H8.45269C6.80948 33.1994 5.25194 32.5171 4.10924 31.3508C2.96654 30.1845 2.32819 28.6256 2.3291 27.0035V8.25347C2.32819 6.63134 2.96654 5.07241 4.10924 3.90611C5.25194 2.73982 6.80948 2.05754 8.45269 2.00347H46.4612C47.3107 1.97552 48.1572 2.11652 48.9503 2.41807C49.7434 2.71962 50.4669 3.17556 51.0776 3.75874C51.6884 4.34191 52.174 5.04039 52.5055 5.81258C52.837 6.58477 53.0075 7.41488 53.0071 8.25347V27.0035C53.0075 27.8421 52.837 28.6722 52.5055 29.4444C52.174 30.2166 51.6884 30.915 51.0776 31.4982C50.4669 32.0814 49.7434 32.5373 48.9503 32.8389C48.1572 33.1404 47.3107 33.2814 46.4612 33.2535Z" stroke="white" stroke-width="4" stroke-linecap="round" stroke-linejoin="round"></path>
  <path d="M34.8479 17.6289H16.8994" stroke="white" stroke-width="4" stroke-linecap="round" stroke-linejoin="round"></path>
  <path d="M22.6002 77.0039C29.5973 77.0039 35.2696 71.4075 35.2696 64.5039C35.2696 57.6003 29.5973 52.0039 22.6002 52.0039C15.603 52.0039 9.93066 57.6003 9.93066 64.5039C9.93066 71.4075 15.603 77.0039 22.6002 77.0039Z" stroke="white" stroke-width="4" stroke-linecap="round" stroke-linejoin="round"></path>
  <path d="M33.8339 86.9206C30.5872 84.5369 26.6473 83.2509 22.6003 83.2539C18.6795 83.2648 14.858 84.4719 11.6598 86.7098C8.46161 88.9476 6.04327 92.1067 4.73633 95.7539" stroke="white" stroke-width="4" stroke-linecap="round" stroke-linejoin="round"></path>
  <path fill-rule="evenodd" clip-rule="evenodd" d="M68.6757 76.0039L68.6724 76.0039C68.6631 76.0039 68.6538 76.004 68.6444 76.004C68.6405 76.0039 68.6366 76.0039 68.6327 76.0039C68.6266 76.0039 68.6204 76.004 68.6143 76.0041C62.5559 76.0272 56.6513 77.8986 51.7103 81.3641C46.7534 84.8409 43.01 89.7513 40.9992 95.4196C40.8146 95.9401 41.0868 96.5117 41.6073 96.6964C42.1278 96.881 42.6995 96.6087 42.8841 96.0882C44.7549 90.8147 48.2392 86.2416 52.8588 83.0015C57.1947 79.9604 62.3295 78.2348 67.6327 78.0255V95.7539C67.6327 96.3062 68.0805 96.7539 68.6327 96.7539C69.185 96.7539 69.6327 96.3062 69.6327 95.7539V78.0219C74.9715 78.2139 80.1442 79.9403 84.5099 82.9976C89.1367 86.2376 92.6287 90.8122 94.5071 96.0893C94.6923 96.6096 95.2642 96.8812 95.7845 96.696C96.3048 96.5108 96.5765 95.9389 96.3913 95.4186C94.3725 89.7472 90.6213 84.8357 85.6572 81.3593C80.6932 77.8832 74.7601 76.0127 68.6757 76.0039Z" fill="white"></path>
  <path d="M68.6724 76.0039L68.6706 75.0039H68.6706L68.6724 76.0039ZM68.6757 76.0039L68.6772 75.0039L68.6739 75.0039L68.6757 76.0039ZM68.6444 76.004L68.633 77.0039C68.6377 77.004 68.6425 77.004 68.6473 77.004L68.6444 76.004ZM68.6143 76.0041L68.6181 77.0041C68.6229 77.0041 68.6276 77.004 68.6324 77.0039L68.6143 76.0041ZM51.7103 81.3641L52.2846 82.1828L51.7103 81.3641ZM40.9992 95.4196L41.9417 95.7539H41.9417L40.9992 95.4196ZM41.6073 96.6964L41.273 97.6388H41.273L41.6073 96.6964ZM42.8841 96.0882L43.8266 96.4226H43.8266L42.8841 96.0882ZM52.8588 83.0015L52.2846 82.1828L52.8588 83.0015ZM67.6327 78.0255H68.6327C68.6327 77.7534 68.5219 77.4931 68.3258 77.3045C68.1296 77.116 67.8651 77.0155 67.5933 77.0262L67.6327 78.0255ZM69.6327 78.0219L69.6687 77.0225C69.3974 77.0127 69.1338 77.1137 68.9385 77.3022C68.7431 77.4906 68.6327 77.7504 68.6327 78.0219H69.6327ZM84.5099 82.9976L83.9363 83.8167V83.8167L84.5099 82.9976ZM94.5071 96.0893L95.4492 95.7539V95.7539L94.5071 96.0893ZM95.7845 96.696L96.1198 97.6381L95.7845 96.696ZM96.3913 95.4186L97.3334 95.0832V95.0832L96.3913 95.4186ZM85.6572 81.3593L86.2308 80.5402L85.6572 81.3593ZM68.6743 77.0039L68.6776 77.0039L68.6739 75.0039L68.6706 75.0039L68.6743 77.0039ZM68.6473 77.004C68.6563 77.0039 68.6653 77.0039 68.6743 77.0039L68.6706 75.0039C68.6609 75.0039 68.6513 75.004 68.6416 75.004L68.6473 77.004ZM68.6327 77.0039C68.6328 77.0039 68.6329 77.0039 68.633 77.0039L68.6559 75.004C68.6482 75.004 68.6405 75.0039 68.6327 75.0039V77.0039ZM68.6324 77.0039C68.6325 77.0039 68.6326 77.0039 68.6327 77.0039V75.0039C68.6205 75.0039 68.6083 75.004 68.5962 75.0042L68.6324 77.0039ZM52.2846 82.1828C57.0575 78.8351 62.7629 77.0264 68.6181 77.0041L68.6104 75.0041C62.3489 75.028 56.245 76.9621 51.1361 80.5454L52.2846 82.1828ZM41.9417 95.7539C43.8825 90.283 47.4963 85.5413 52.2846 82.1828L51.1361 80.5454C46.0105 84.1405 42.1376 89.2197 40.0568 95.0852L41.9417 95.7539ZM41.9417 95.7539H41.9417L40.0568 95.0852C39.6875 96.1262 40.232 97.2695 41.273 97.6388L41.9417 95.7539ZM41.9417 95.7539H41.9417L41.273 97.6388C42.314 98.0081 43.4573 97.4636 43.8266 96.4226L41.9417 95.7539ZM52.2846 82.1828C47.4963 85.5413 43.8825 90.283 41.9417 95.7539L43.8266 96.4226C45.6274 91.3464 48.9822 86.942 53.433 83.8202L52.2846 82.1828ZM67.5933 77.0262C62.0993 77.2431 56.7787 79.0307 52.2846 82.1828L53.433 83.8202C57.6107 80.89 62.5597 79.2265 67.6722 79.0247L67.5933 77.0262ZM68.6327 95.7539V78.0255H66.6327V95.7539H68.6327ZM68.6327 95.7539H66.6327C66.6327 96.8585 67.5282 97.7539 68.6327 97.7539V95.7539ZM68.6327 95.7539V97.7539C69.7373 97.7539 70.6327 96.8585 70.6327 95.7539H68.6327ZM68.6327 78.0219V95.7539H70.6327V78.0219H68.6327ZM85.0835 82.1785C80.5588 79.0098 75.1992 77.2214 69.6687 77.0225L69.5968 79.0212C74.7439 79.2063 79.7296 80.8708 83.9363 83.8167L85.0835 82.1785ZM95.4492 95.7539C93.5006 90.2797 89.879 85.5366 85.0835 82.1785L83.9363 83.8167C88.3944 86.9386 91.7568 91.3448 93.565 96.4246L95.4492 95.7539ZM95.4492 95.7539H95.4492L93.565 96.4246C93.9354 97.4652 95.0792 98.0085 96.1198 97.6381L95.4492 95.7539ZM95.4492 95.7539L95.4492 95.7539L96.1198 97.6381C97.1604 97.2677 97.7038 96.1238 97.3334 95.0832L95.4492 95.7539ZM85.0835 82.1785C89.879 85.5366 93.5006 90.2797 95.4492 95.7539L97.3334 95.0832C95.2444 89.2147 91.3636 84.1347 86.2308 80.5402L85.0835 82.1785ZM68.6743 77.0039C74.5549 77.0124 80.2881 78.8203 85.0835 82.1785L86.2308 80.5402C81.0983 76.946 74.9653 75.013 68.6772 75.0039L68.6743 77.0039Z" fill="white"></path>
</svg>
