<?xml version="1.0" encoding="UTF-8"?>
<svg xmlns="http://www.w3.org/2000/svg" width="500" height="500" viewBox="0 0 500 500" fill="none">
  <path d="M251.76 232C251.46 240.86 254.02 234.94 255.42 230C257.42 222.54 257.68 207.28 249.64 202.82C242.62 198.94 236.02 202.82 231.16 207.88C234.405 211.256 236.917 215.267 238.54 219.66C245.24 215.5 252 222.56 251.76 232ZM254 154.56C252.78 150.28 255.74 147.8 255.66 146.98C255.44 144.74 251.38 149.88 253.08 154.98C253.22 155.52 254.1 155.18 254 154.56ZM198.64 157.48C199.04 158.12 198.32 166.74 199.12 166.96C199.92 167.18 205.32 158.04 205.84 157.52C206.36 157 216.56 160.14 217.02 159.36C217.48 158.58 210.72 154.02 211.02 153.36C211.32 152.7 216.12 146.76 215.62 146.24C215.12 145.72 207.62 147.68 206.52 148.02C205.42 148.36 198.64 140.5 198.18 140.7C197.72 140.9 198.48 150.14 198.18 150.54C197.88 150.94 189.34 154.22 189.5 154.66C189.66 155.1 198.28 156.82 198.64 157.48ZM100.96 197.14C101.12 198.06 100.5 207.14 101.48 206.48C102.46 205.82 107.26 197.44 108.14 197.56C109.02 197.68 120.76 199.7 121.06 199.06C121.36 198.42 113.64 192.46 113.64 191.94C113.64 191.42 117.3 183.36 116.88 183.48C114.182 184.68 111.426 185.741 108.62 186.66C108.12 186.48 101.28 180.18 101.04 180.3C100.8 180.42 101.22 190.08 101.04 190.44C100.86 190.8 93.0398 194.2 93.0398 194.7C93.0398 195.2 100.78 196.28 100.96 197.14ZM68.7998 218.28C69.7198 218.28 73.9598 210.58 74.7998 210.28C75.6398 209.98 84.9398 211.92 85.0998 211.26C85.2598 210.6 79.8998 204.96 79.8998 204.62C79.8998 204.28 84.5798 196.74 84.3598 196.5C84.1398 196.26 75.8398 199.1 75.2598 199.06C74.6798 199.02 69.2598 191.92 68.3398 192.46C67.4198 193 68.6798 202.46 68.6198 202.64C68.5598 202.82 59.8198 206.94 59.9998 207.5C60.1798 208.06 68.1798 209.24 68.5198 209.5C68.8598 209.76 67.8798 218.28 68.7998 218.28ZM165.18 180.48C165.18 181.3 171.5 172.48 172.52 170.66C172.86 170.1 184.64 172 184.72 171.46C184.8 170.92 178.12 165.26 178.12 164.74C178.12 164.22 181.54 157.34 181.2 157.1C180.86 156.86 173.14 160 172.38 160C171.62 160 164.38 153.7 164.38 154C164.38 154.3 164.38 162.92 164.14 163.04C163.9 163.16 154.68 167.52 154.86 167.72C155.44 168.4 164.54 170.04 164.86 170.38C165.18 170.72 164.38 180.54 165.18 180.48ZM132.34 194.4C132.34 194.78 139.32 184.4 139.94 184.22C140.56 184.04 153.2 185.62 153.36 185.04C153.52 184.46 145.5 178.32 145.78 177.7C146.06 177.08 150.58 169.52 149.78 169.7C148.98 169.88 141.14 173.06 140.4 173.36C139.66 173.66 133.34 166 133.12 166.5C132.9 167 133.12 175.36 132.72 175.68C132.32 176 124 180 124.14 180.26C124.28 180.52 131.54 183.88 131.88 184.26C132.22 184.64 132 194.78 132.34 194.4ZM197.16 244.74L195 244.26C195.259 242.211 195.748 240.198 196.46 238.26C197.1 236.06 193.66 236.76 192.98 244.94C192.98 245.92 194.14 246.16 195.48 246.4C196.18 246.52 196.72 246.64 196.84 246.64C198 246.64 198.28 245 197.16 244.74ZM206.6 222.8C206.414 222.866 206.251 222.985 206.131 223.142C206.011 223.299 205.939 223.487 205.925 223.684C205.91 223.881 205.952 224.078 206.047 224.251C206.142 224.424 206.286 224.566 206.46 224.66C207.64 225.28 208.46 224.66 210.16 226.34C210.42 226.56 210.82 227.08 211.32 227.08C211.82 227.08 212.34 226.52 211.92 225.66C211.345 224.774 210.556 224.048 209.626 223.548C208.696 223.048 207.656 222.791 206.6 222.8ZM206.98 246.42C205.8 246.78 205.62 251.24 200.78 250.78C200.681 250.771 200.582 250.783 200.487 250.814C200.393 250.845 200.306 250.895 200.232 250.96C200.157 251.025 200.096 251.105 200.053 251.194C200.01 251.284 199.985 251.381 199.98 251.48C199.86 252.4 200.82 252.5 201.74 252.5C205.42 252.5 208.54 249.04 208.16 247.04C208.123 246.921 208.064 246.811 207.985 246.716C207.906 246.621 207.808 246.542 207.699 246.484C207.589 246.427 207.469 246.391 207.346 246.38C207.222 246.369 207.098 246.382 206.98 246.42ZM208.14 234C207.14 234.22 206.76 236.9 207.98 237.16C209.62 237.46 209.74 233.58 208.14 234ZM190.72 233.18C189.4 233.18 188.72 236.6 190.28 236.96C191.84 237.32 192 233.24 190.72 233.18ZM363.6 181.8C365.1 182.68 366.2 180.6 364.56 179.96C363.302 179.465 361.904 179.462 360.644 179.951C359.384 180.44 358.354 181.386 357.76 182.6C357.32 183.5 358.76 184.22 359.28 183.36C359.721 182.654 360.387 182.116 361.17 181.833C361.954 181.55 362.809 181.539 363.6 181.8ZM376.88 200.54C373.858 202.292 370.28 202.821 366.88 202.02C366.753 201.967 366.617 201.94 366.48 201.94C366.343 201.94 366.207 201.967 366.08 202.02C365.3 202.52 365.12 205.42 367.18 207.04C368.324 207.746 369.598 208.22 370.926 208.433C372.254 208.646 373.612 208.594 374.92 208.28C378.68 207.04 378.92 199.36 376.88 200.54ZM376.32 202.92C376.32 204.66 375 206.52 374 206.7C371.4 207.16 367.26 206.52 367.02 203.76C370.126 204.538 373.404 204.242 376.32 202.92ZM360 188.34C359.54 187.22 358.22 188.34 358 189.6C357.84 190.42 358.28 190.84 358.9 190.84C360 190.84 360.32 189.18 360 188.34ZM372.84 194.42C373.42 194.82 374.38 193.4 374.54 192.42C374.76 191.04 373.48 190.8 372.76 191.6C372.04 192.4 371.78 194.18 372.84 194.42ZM365.74 199.18C365.74 198.74 365.26 198.36 364.64 198.34C364.48 198.34 364 198.34 363.9 198.14C363.48 197.58 365.68 191.96 366.42 190.32C366.7 189.74 366.42 189.3 365.86 189.4C364.34 189.7 362.54 195.22 362.16 196.66C361.18 200.56 365.76 200.5 365.74 199.18ZM378 182.88C375.74 180.74 373.58 181.46 373.66 182.6C373.76 184.46 377.24 182.6 377.66 186.88C377.685 187.056 377.766 187.219 377.892 187.344C378.018 187.47 378.181 187.551 378.357 187.576C378.533 187.601 378.712 187.568 378.868 187.482C379.024 187.396 379.147 187.262 379.22 187.1C379.45 186.354 379.458 185.557 379.241 184.807C379.024 184.057 378.593 183.387 378 182.88ZM166 204.86C165.858 204.888 165.723 204.945 165.603 205.026C165.483 205.107 165.38 205.211 165.301 205.331C165.221 205.452 165.165 205.587 165.138 205.73C165.11 205.872 165.111 206.018 165.14 206.16C165.169 206.301 165.225 206.436 165.306 206.556C165.387 206.676 165.491 206.779 165.612 206.859C165.732 206.939 165.868 206.994 166.01 207.022C166.152 207.049 166.298 207.048 166.44 207.02L172.7 205.64C167.14 211.26 127.52 251.04 113.7 265.4C109.22 257.54 104.8 248.9 100.1 241.4C99.4998 240.44 98.5198 240.7 97.6598 241.54C87.2598 251.54 76.5598 263.04 66.5598 273.32C66.4282 273.463 66.3424 273.643 66.3135 273.836C66.2847 274.029 66.314 274.226 66.3977 274.402C66.4815 274.578 66.6159 274.725 66.7837 274.825C66.9515 274.924 67.1451 274.971 67.3398 274.96C67.8598 274.96 65.9998 276.96 98.9198 243.64C105.88 255.64 111.82 270.4 114.36 267.96C142.36 241.36 174.52 206.46 174.36 207.96C173.62 212.92 173.54 213.34 173.96 213.8C174.078 213.931 174.228 214.03 174.396 214.086C174.564 214.142 174.743 214.153 174.916 214.119C175.09 214.084 175.251 214.006 175.385 213.89C175.519 213.774 175.621 213.626 175.68 213.46C175.68 213.46 177.98 204.06 177.24 203.14C176 201.62 168.82 204.14 166 204.86ZM359.48 243.44C358.14 244.8 360.16 247.16 361.48 244.62C362.2 243.08 361.22 241.7 359.48 243.44ZM358 254C357.769 253.986 357.538 254.024 357.324 254.11C357.109 254.196 356.917 254.33 356.76 254.5C356.503 254.759 356.34 255.096 356.297 255.458C356.253 255.821 356.332 256.187 356.52 256.5C357.52 258.6 359.8 254.6 358 254ZM352 278.32C350.8 278.06 349.58 281.1 351.46 281.38C352.76 281.5 353.06 278.56 352 278.32ZM348.36 290.78C347.34 291.24 346.54 293.72 347.72 294.14C348.062 294.219 348.421 294.179 348.738 294.026C349.054 293.874 349.309 293.617 349.46 293.3C350.34 291.86 349.26 290.36 348.36 290.78ZM354.26 265.22C352.04 266.38 354.1 270.12 355.48 267.46C356.16 266.12 355.54 264.56 354.26 265.22ZM340.68 332.44C339.22 332.16 338.92 335.9 340.68 335.36C341.72 335.04 341.74 332.64 340.68 332.44ZM339.58 346.12C338.6 346.54 338.06 348.4 339.32 348.82C339.558 348.87 339.806 348.837 340.024 348.729C340.242 348.62 340.417 348.44 340.52 348.22C341.26 347.02 340.4 345.78 339.58 346.12Z" fill="#0A2840"></path>
  <path d="M434.44 376.22H408.96C411.06 371.06 412.96 340.96 412.28 335.88C432.16 333.26 440.28 320.68 440 301.42C439.687 284.385 434.222 267.844 424.326 253.975C414.43 240.106 400.567 229.558 384.56 223.72C384.02 221.16 386.98 209.32 388.24 206.58C390.04 202.58 395.48 199.46 394.9 195.2C397 172 356.94 165.5 356.94 177.06C353.566 185.692 351.451 194.765 350.66 204C350.434 206.161 350.763 208.345 351.617 210.344C352.471 212.342 353.822 214.089 355.54 215.42C356.568 216.365 357.694 217.196 358.9 217.9C358.129 219.642 357.656 221.501 357.5 223.4C339.948 221.641 322.735 217.392 306.38 210.78C288.74 203.24 296.38 206.78 266.64 155.7C266.38 155.26 265.46 155.46 265 155.4C264.1 151.22 263.42 142.86 268.08 140.48C269.62 140.06 268.68 136.48 263.84 138.02C262.898 138.307 262.022 138.778 261.263 139.406C260.504 140.035 259.878 140.807 259.42 141.68C256.92 137.68 254.72 125.42 252.6 122.76C251.28 121.12 249.22 122.36 249.22 126.24C249.505 129.717 250.02 133.171 250.76 136.58C250.339 136.475 249.901 136.455 249.471 136.52C249.042 136.585 248.629 136.734 248.258 136.959C247.886 137.184 247.563 137.48 247.306 137.83C247.049 138.18 246.863 138.578 246.76 139C242.62 137.74 241.26 145 241.82 147.54C241.919 147.924 242.106 148.279 242.366 148.578C242.627 148.876 242.953 149.11 243.32 149.26C243.618 153.398 245.058 157.372 247.48 160.74C247.06 161.04 245.04 162.42 245.08 162.92C246.54 177.92 254.52 204.48 260.02 216.64C268.72 235.94 281.04 246.42 308.98 263.4C298.98 289.4 296.02 317.16 294.98 344.88C294.86 347.94 293.9 375.74 294.52 376.28H269.22C281.62 373.28 286.52 363.7 287.44 351.52C290.32 313.84 263.6 276.7 223.26 268.36C223.04 265.9 222.9 255.42 223.9 253.6C229.09 248.979 232.95 243.054 235.08 236.44C238.32 225.74 234.36 212.02 223.66 207.26C209.66 201.04 188.62 209.92 186.46 222.92L184.96 228C178.82 230.7 177.74 240.2 182.82 243.14C182.58 250.04 182.82 262.98 192.36 263.5C192.2 264.64 192.06 265.8 191.92 266.94C171.6 266.94 147.54 279.98 137.76 298.26C114 298 90.0002 297.26 66.3202 297.6C66.2064 297.602 66.0942 297.628 65.9905 297.675C65.8868 297.722 65.7938 297.79 65.7171 297.874C65.6404 297.958 65.5817 298.057 65.5444 298.165C65.5071 298.272 65.4921 298.386 65.5002 298.5C66.4202 311.26 75.0602 364.8 77.8402 376.22C72.3802 376.22 66.9202 376.22 61.4602 376.5C60.8002 376.5 60.9002 377.54 61.4602 377.54C132.06 378.54 381.46 377.78 434.46 377.78C435.54 377.78 435.42 376.22 434.44 376.22ZM115.06 348.66C106.5 351 97.4602 325.92 109.2 324.22C120.62 322.56 124.22 346.14 115.06 348.66ZM187.58 222.82C198.648 219.703 210.455 220.53 220.98 225.16C221.6 225.44 219.14 231.52 218.98 232.54L213.48 232.9C213.131 231.334 212.298 229.918 211.101 228.851C209.904 227.784 208.401 227.12 206.806 226.952C205.211 226.784 203.604 227.121 202.21 227.915C200.817 228.71 199.708 229.922 199.04 231.38C198.247 230.788 197.274 230.484 196.285 230.521C195.295 230.557 194.348 230.931 193.6 231.58C193.386 230.785 192.994 230.05 192.453 229.43C191.913 228.81 191.238 228.321 190.48 228C190.8 227.24 191.36 226.14 193.86 226.38C194.009 226.409 194.163 226.403 194.309 226.362C194.456 226.32 194.59 226.245 194.701 226.141C194.813 226.038 194.898 225.909 194.95 225.767C195.002 225.624 195.019 225.471 195 225.32C194.7 223.46 189.72 223.9 188.72 227.54C187.874 227.384 187.006 227.384 186.16 227.54C186.552 225.943 187.026 224.368 187.58 222.82ZM204.54 243.2C199.86 243.2 198.42 236.16 199.94 232.58C202.7 226.24 211.16 227.02 212.2 233.94C212.308 235.051 212.195 236.173 211.867 237.24C211.54 238.308 211.005 239.301 210.294 240.161C209.582 241.021 208.707 241.733 207.72 242.254C206.733 242.776 205.652 243.097 204.54 243.2ZM185.78 229.2C195.78 225.2 194.46 245.2 184.16 242.18C184.362 237.831 184.903 233.504 185.78 229.24V229.2ZM184.52 229.86C183.654 233.688 183.105 237.581 182.88 241.5C179.86 239.12 180.4 232.48 184.52 230V229.86ZM193.12 267.86C193.12 267.22 194.08 262.5 192.92 262.48C191.86 260.86 183.64 264.48 184.1 243.7C189.98 245.36 195.1 239.48 194.1 233.16C195.94 231.16 197.28 232.16 198.46 232.72C196.88 237.22 198.8 244 204.04 244.72C208.82 245.28 214.24 239.66 213.74 234.18L219.04 234C219.081 234.55 219.248 235.083 219.53 235.557C219.811 236.031 220.199 236.433 220.662 236.731C221.126 237.03 221.652 237.217 222.2 237.277C222.748 237.338 223.303 237.27 223.82 237.08C226.8 235.92 227.36 239.08 226.52 241.36C222.961 248.507 221.288 256.445 221.66 264.42C222.16 272.96 220.6 267.3 236.74 273.86C221.16 282.252 206.867 292.84 194.3 305.3C192.3 300.72 185.04 281.14 182.92 269.3C192.48 267.82 192.96 269.04 193.12 268V267.86ZM157.4 373.68C156.44 373.1 157.08 374.4 153.12 350.46C150.6 335.28 147.98 319.58 146.4 303.74C146.388 303.429 146.492 303.124 146.691 302.885C146.89 302.646 147.17 302.489 147.478 302.444C147.786 302.399 148.1 302.47 148.359 302.643C148.618 302.816 148.803 303.078 148.88 303.38C152.38 329.38 158.28 359.74 159.76 372.16C159.795 372.451 159.748 372.745 159.624 373.01C159.499 373.276 159.302 373.5 159.056 373.659C158.81 373.817 158.524 373.904 158.231 373.907C157.938 373.911 157.65 373.832 157.4 373.68ZM255.56 375.68C256.42 374.8 230.32 377.44 198.26 355.68C201.84 351.54 205.26 340.22 204.1 334.44C235.48 331.36 243.54 334.66 257.46 336.44C257.57 336.437 257.675 336.397 257.758 336.327C257.842 336.256 257.899 336.159 257.92 336.052C257.941 335.945 257.924 335.834 257.874 335.737C257.823 335.64 257.74 335.563 257.64 335.52C251.216 333.796 244.638 332.71 238 332.28C237.78 328.28 235.74 318.38 233.56 314.58C233.36 314.22 232.64 314.44 232.78 314.84C234.521 320.504 235.818 326.295 236.66 332.16C225.438 331.199 214.14 331.623 203.02 333.42C202.874 333.444 202.741 333.519 202.645 333.633C202.55 333.747 202.498 333.891 202.5 334.04C190.18 333 186.2 323.8 170.72 336.56C166.3 340.22 168.96 343.02 171.48 342.22L175.48 340.74C174.159 342.577 173.045 344.556 172.16 346.64C170.58 351.08 172.94 353.88 175.04 352.44C176.08 351.74 177.04 348.8 180.62 345.72C180.62 345.72 178.5 356.58 182.74 356.76C186.42 356.94 185.5 345.62 188.74 347.12C189.28 350.58 194.14 354.78 197.1 356.1C212.64 369.84 238.12 375 245.6 376.1H219.62C219.62 375.1 220.06 369.8 218.92 369.6C209.38 367.82 176.3 364.44 165.72 364.1C166.48 363.18 155.16 309.16 154.08 304.1C152.84 298.1 150.08 298.44 139.16 298.44C149.64 283.46 163.16 273.12 181.62 269.66C182.76 277.38 192.02 309.16 194.9 306.58C209.96 293.1 220.3 283.96 238.38 274.58C252.358 280.568 264.305 290.473 272.78 303.099C281.254 315.726 285.894 330.535 286.14 345.74C286.5 368.1 276.38 376.74 255.56 375.68ZM185.28 340.84C182.72 341.26 181.96 343.48 181.28 343.84C176.16 346.78 175.5 350.16 174.32 351.24C172.32 353.04 171.6 346.38 177.62 339.96C179.76 337.76 180.8 338.06 180.54 337.22C180.49 337.073 180.385 336.952 180.247 336.881C180.109 336.81 179.949 336.795 179.8 336.84C178.629 337.317 177.582 338.055 176.74 339C176.26 339.3 170.54 341.24 170 340.88C167.56 339.26 175.86 334.24 176.64 333.76C186.22 327.76 193 334.7 202.54 335.46C203.28 343.66 200.74 348.42 197.26 355.12C190.72 351.12 190.58 347.12 189.26 346.26C188.693 345.893 188.005 345.762 187.343 345.897C186.681 346.031 186.099 346.42 185.72 346.98C184.44 348.78 184.16 354.5 182.96 355.3C180.96 356.6 180.96 348.6 181.62 346.4C181.911 345.39 182.42 344.457 183.111 343.665C183.803 342.874 184.659 342.244 185.62 341.82C186.2 341.52 185.82 340.74 185.28 340.84ZM438.54 301.52C438.78 320.64 430.54 332.26 411.44 334.54C397.44 336.22 379.2 333.02 367.62 330.3C370.036 320.392 370.759 310.148 369.76 300C380.62 299.08 399.4 296 409.56 291.52C409.672 291.477 409.764 291.394 409.817 291.287C409.871 291.18 409.883 291.056 409.85 290.941C409.818 290.826 409.743 290.727 409.641 290.664C409.54 290.601 409.418 290.578 409.3 290.6C404.36 291.78 399.3 293.52 394.28 294.6C393.895 286.981 392.797 279.414 391 272C390.84 271.38 389.88 271.66 390.02 272.3C391.598 279.787 392.542 287.394 392.84 295.04C379.443 298.001 365.738 299.344 352.02 299.04C351.54 299.04 350.92 299.78 350.92 300.3C347.04 300.3 343.44 297 343.22 295.06C347.96 272.9 354.24 253.7 361.42 232.42C361.62 233.44 362.54 239.88 363.54 240.06C368.967 240.844 374.505 240.22 379.622 238.248C384.738 236.276 389.263 233.023 392.76 228.8C406.318 235.567 417.758 245.927 425.831 258.751C433.904 271.574 438.3 286.369 438.54 301.52ZM328.88 305.4C329.24 306.12 330 305.76 329.86 305.2C328.52 299.92 333.14 298.6 336.88 299C337.12 300.34 336.66 300.16 334.88 300.08C333.66 300.08 334.38 301.28 335.3 301.44C337.3 301.74 338.74 300.92 338.42 297.94C338.42 297.5 338.28 290.18 339.52 289.94C342.14 289.54 339.52 297.94 347.52 301.02C348.648 301.501 349.882 301.68 351.1 301.54C351.795 308.909 350.908 316.341 348.5 323.34C346.5 322.48 330.96 325.7 328.84 313.34C329.8 312.74 326.4 310 328.88 305.4ZM352.46 300.32C357.707 300.576 362.964 300.496 368.2 300.08C369.169 310.113 368.555 320.237 366.38 330.08C362.48 329.14 350.62 325.88 349.72 324.28C352.32 318.24 353.16 306.82 352.46 300.32ZM391.82 228.32C385.22 235.42 377.42 239.84 364.04 239.08C363.717 235.941 363.121 232.836 362.26 229.8C368.98 230.24 377.64 227.62 383.72 224.88C392 228.42 391.62 228.2 391.82 228.36V228.32ZM359.82 217.84C361.96 216.28 351.54 214.16 352.12 204.08C352.66 194.54 355.58 185.38 358.32 176.34C369.94 176 376.52 174.955 387.24 180.175C386.32 182.335 386.76 184.56 388 188C389.46 188 391.6 190.08 393 190C394.4 189.92 395.06 195.029 394.9 196.469C394.38 201.069 388.1 200.46 385.6 209.9C385.32 210.94 382.52 222.78 383.06 223.6C374.36 228.16 368.26 228.04 361.76 228.7C360.7 227.26 359.62 225.84 358.56 224.42C358.94 221.14 360 219.16 359.76 217.88L359.82 217.84ZM357.42 224.62C358.092 226.231 359.039 227.714 360.22 229C357.41 230.852 354.484 232.522 351.46 234C349.58 226.2 350.58 227.04 350.16 224C352.542 224.389 354.948 224.61 357.36 224.66L357.42 224.62ZM251.02 137.82L251.16 138.9C250.06 143.04 251.32 144.9 250.92 145.68C250.52 146.46 248.62 146.5 248.18 143.32C247.74 140.14 247.06 137.48 250.96 137.86L251.02 137.82ZM243.74 147.82C241.74 147.82 243.56 137.82 246.6 140.14C246.597 140.942 246.644 141.743 246.74 142.54C246.32 142.78 245.26 148 243.68 148L243.74 147.82ZM244.76 148.92C246.08 148.2 246.52 145.62 247 144.26C247.92 148.26 251.9 148.04 252.3 145.52C252.46 144.6 251.86 142.82 251.98 140.94C252.62 140.7 255.32 140.06 255.24 139.32C255.1 138.2 253.4 138.98 252.86 139.2C252.04 136.14 250.12 127.2 250.68 124.52C252 117.76 256.04 141.68 259.34 142.68C260.58 143.06 259.94 140.68 263.6 139.26C264.4 138.96 266.42 138.4 267.22 139C262.16 142.32 262.36 150.14 263.86 155.16C258.335 155.379 252.964 157.041 248.28 159.98C246.307 156.644 245.085 152.917 244.7 149.06L244.76 148.92ZM246.22 162.66C251.984 158.565 258.87 156.344 265.94 156.3C267.94 160.3 270.16 164.3 272.3 168.3C263.948 169.035 255.97 172.105 249.28 177.16C248.46 174.1 246.16 163.16 246.16 162.8L246.22 162.66ZM296.44 344.66C297.74 309 302.66 272.2 320.92 240.82C321.24 240.28 320.32 239.9 320 240.42C315.806 247.263 312.27 254.489 309.44 262C290.02 250.18 270.84 238.16 261.3 216.46C257.3 207.14 252.14 189.26 249.54 178.64C261.02 171.18 266.66 170.64 272.92 169.72C275.2 173.84 284.52 191.3 289.48 199.9C292.58 205.26 293.84 207.16 305.66 212.18C319.499 217.941 334.027 221.88 348.88 223.9C348.387 227.538 348.935 231.241 350.46 234.58C351.08 236.72 360.64 230.38 361.02 230.14C353.361 250.538 347.119 271.441 342.34 292.7C341.72 290.28 341.9 288.44 338.96 288.86C336.68 289.2 336.96 296.12 336.96 297.66C334.52 297.66 331.88 297.42 330.02 299.3C329.378 299.942 328.901 300.731 328.633 301.599C328.365 302.467 328.312 303.387 328.48 304.28C327.68 304.6 326.74 307.44 326.7 308.92C326.714 310.24 327.007 311.541 327.56 312.74C327.12 318.14 331.78 322.3 336.62 323.8C335.06 334.4 333.9 345.066 333.14 355.8C320.651 352.972 308.37 349.297 296.38 344.8L296.44 344.66ZM334.56 356C335.32 345.333 336.474 334.713 338.02 324.14C341.316 324.755 344.672 324.984 348.02 324.82C351.76 330.2 390.64 337.7 410.88 336.04C411.083 344.051 410.776 352.067 409.96 360.04C384.768 362.55 359.34 361.187 334.56 356Z" fill="#0A2840"></path>
  <path d="M395.102 191.418C397.219 195.978 393.78 203.028 388.554 203.139L388.171 202.227C389.174 202.119 390.144 201.804 391.022 201.302C391.9 200.8 392.666 200.122 393.273 199.31C393.879 198.498 394.313 197.569 394.548 196.581C394.782 195.593 394.812 194.568 394.635 193.57C394.081 189.885 391.36 188.73 388.462 192.182C387.37 193.893 386.535 195.757 385.985 197.713C385.052 197.667 384.129 197.492 383.243 197.195C384.513 194.741 385.265 192.05 385.453 189.292C385.631 186.566 385.894 182.336 383.076 179.803C381.817 178.739 380.246 178.119 378.603 178.037C377.054 178.073 375.542 178.526 374.223 179.348C370.021 181.293 361.399 179.62 358.23 176C355.668 173.055 356.72 171 357 168.5C357.193 166.773 358.558 164.252 359.164 162.854C359.77 161.456 360.651 160.196 361.755 159.149C363.354 157.909 365.31 157.226 367.327 157.204C365.98 158.484 365.19 160.247 365.128 162.108C366.331 160.396 368.073 159.143 370.072 158.555C372.07 157.967 374.206 158.077 376.13 158.869C374.943 159.142 373.851 159.734 372.97 160.582C372.089 161.43 371.452 162.501 371.127 163.682C374.126 160.75 378.632 160.342 380.49 164.174C380.106 163.988 379.687 163.89 379.261 163.885C378.835 163.88 378.413 163.969 378.024 164.144C377.636 164.32 377.289 164.579 377.01 164.903C376.73 165.228 376.524 165.609 376.406 166.021C379.796 165.692 383.214 166.099 386.43 167.217C389.526 168.283 393.102 169.539 394.615 172.885C395.455 174.744 395.208 176.578 394.708 180.163C394.287 183.246 393.541 186.276 392.482 189.202C393.058 189.346 393.593 189.621 394.047 190.005C394.501 190.389 394.862 190.872 395.102 191.418Z" fill="#0A2840"></path>
  <path opacity="0.72" d="M317.089 143.388L322.797 148.711L306.328 152.639L303.558 169.342L297.85 164.019L300.62 147.316L317.089 143.388Z" fill="#00BCF4"></path>
  <path d="M281.814 88.119L289.091 90.7182L275.818 100.313L280.01 116.145L272.733 113.546L268.541 97.7134L281.814 88.119Z" fill="#03FFFF"></path>
  <path opacity="0.95" d="M354.322 78.8115L358.555 75L360.363 87.2236L372.331 90.2996L368.098 94.1111L356.13 91.0351L354.322 78.8115Z" fill="#00A2D6"></path>
  <path opacity="0.82" d="M425.45 214.448L413.571 216.543L424.041 192.562L406 173.608L417.88 171.513L435.92 190.467L425.45 214.448Z" fill="#00BCF4"></path>
  <path opacity="0.96" d="M383.972 295.279L382 285.13L402.708 293.744L418.682 278L420.655 288.149L404.681 303.893L383.972 295.279Z" fill="#00BCF4"></path>
</svg>
