<?xml version="1.0" encoding="UTF-8"?>
<svg id="Layer_2" data-name="Layer 2" xmlns="http://www.w3.org/2000/svg" viewBox="0 0 100.25 50.14">
  <defs>
    <style>
      .cls-1 {
        fill: #fff;
        stroke-width: 0px;
      }
    </style>
  </defs>
  <g id="Layer_1-2" data-name="Layer 1">
    <g>
      <path class="cls-1" d="M100.22,0c.02.06.03.09.03.11,0,16.63,0,33.27,0,49.9,0,.03-.01.05-.02.09-.05,0-.11.02-.16.02-.08,0-.17,0-.25,0-30.82,0-61.65,0-92.47,0-.65,0-1.3-.05-1.94-.2-2.46-.58-4.45-2.5-5.13-4.94-.18-.65-.26-1.31-.27-1.98,0-.05,0-.09,0-.14,0-11.91,0-23.82,0-35.73,0-1.09.2-2.14.66-3.13C1.59,2.07,3.11.82,5.18.25,5.81.07,6.45,0,7.11,0c3.33,0,6.66,0,9.99,0,8.45,0,16.9,0,25.35,0,19.12,0,38.24,0,57.37,0,.13,0,.26,0,.41,0ZM99.96,37.43v-.4c0-12.1,0-24.2,0-36.29,0-.08,0-.17,0-.25,0-.05-.02-.11-.03-.17-18.19,0-36.37,0-54.55,0,0,0-.02,0-.03,0,0,0,0,.02,0,.04.09.04.18.08.28.11.99.37,1.85.93,2.58,1.7,1.28,1.36,1.93,2.98,1.93,4.84,0,11.99,0,23.99,0,35.98,0,.44-.04.88-.13,1.32-.32,1.63-1.1,3-2.34,4.09-.65.57-1.39,1-2.2,1.3-.05.02-.13.02-.14.11.05,0,.1,0,.15,0,18.14,0,36.28,0,54.43,0,0,0,.02,0,.03,0,0,0,.01-.01.01,0,.01-.02.03-.02.03-.03,0-.06.01-.11.01-.17,0-3.92,0-7.85,0-11.77,0,0,0-.02,0-.03,0,0-.01-.01-.03-.04-.11-.03-.24-.01-.37-.01-14.36,0-28.72,0-43.08,0-.1,0-.21,0-.31,0-.05,0-.09-.01-.14-.02-.03-.1-.05-.19.02-.29.36,0,.73,0,1.1,0h40.59c.37,0,.74,0,1.1,0,.37,0,.73.01,1.13-.01ZM25.06,48.52c4.78,0,9.56,0,14.34,0,1.18,0,2.36,0,3.54,0,.37,0,.73-.02,1.1-.1,1.23-.26,2.26-.88,3.08-1.82.93-1.08,1.4-2.33,1.4-3.76,0-10.35,0-20.71,0-31.06,0-1.55,0-3.09,0-4.64,0-.3-.02-.6-.07-.9-.2-1.21-.74-2.25-1.63-3.09-1.07-1.02-2.36-1.54-3.84-1.54-4.19,0-8.37,0-12.56,0-7.75,0-15.5,0-23.25,0-.43,0-.85.04-1.26.13C3.28,2.34,1.61,4.65,1.61,7.09c0,11.94,0,23.88,0,35.81,0,.55.07,1.09.24,1.62.57,1.76,1.69,3,3.42,3.68.62.24,1.27.33,1.94.33,5.95,0,11.9,0,17.85,0Z"/>
      <path class="cls-1" d="M59,2.68c.19,0,.38,0,.56,0,.04,0,.07.01.11.02,0,.04.02.08.02.12,0,.98,0,1.96,0,2.94,0,.03-.02.05-.03.09-.12.03-.24.02-.35,0-.07-.09-.05-.18-.05-.26,0-.72,0-1.43,0-2.15,0-.09,0-.18,0-.28-.09.01-.09.08-.11.13-.26.73-.53,1.45-.79,2.18-.04.12-.09.24-.14.37-.14.05-.27.02-.39.02-.1-.09-.11-.19-.14-.29-.25-.7-.5-1.4-.74-2.11-.03-.09-.07-.17-.1-.26-.1.02-.06.09-.06.14,0,.73,0,1.45,0,2.18,0,.1,0,.2,0,.32-.14.04-.26.02-.39.02-.05-.26-.06-1.48-.03-2.93,0-.07.01-.15.02-.23.26-.03.5-.02.76,0,.03.09.07.17.1.26.23.67.46,1.34.69,2.01.03.09.07.17.1.25.03,0,.04,0,.04,0,0,0,.01-.01.02-.02.02-.03.03-.07.04-.1.28-.78.55-1.56.83-2.34,0,0,.01-.01.04-.05Z"/>
      <path class="cls-1" d="M57.61,47.77c-.04-.26-.04-2.84-.01-3.16.05-.01.1-.03.15-.03.4,0,.79,0,1.18.02.52.03.89.29,1.08.77.22.53.23,1.06.02,1.59-.18.47-.53.75-1.04.79-.46.04-.92.01-1.39.02ZM58.05,47.39c.05,0,.11.02.16.02.2,0,.39-.01.59-.02.42-.01.69-.25.82-.63.16-.47.12-.93-.11-1.37-.11-.22-.3-.35-.55-.41-.25-.05-.51-.04-.76-.04-.05,0-.11.01-.16.02-.04.26-.04,2.18,0,2.42Z"/>
      <path class="cls-1" d="M63.33,15.88c-.03.22-.05.45-.1.67-.15.62-.62,1-1.26,1.02-.17,0-.34,0-.5-.04-.44-.08-.76-.34-.91-.76-.21-.57-.21-1.14,0-1.71.18-.47.55-.73,1.04-.81.25-.04.51-.03.76.04.34.1.6.31.76.63.16.3.2.62.22.96ZM62.84,15.85c0-.2-.02-.41-.08-.61-.13-.42-.42-.64-.85-.65-.51,0-.84.23-.98.72-.03.09-.04.18-.05.28-.04.33-.02.66.08.98.14.41.41.61.84.62.02,0,.04,0,.06,0,.46,0,.73-.2.88-.64.08-.23.11-.46.1-.7Z"/>
      <path class="cls-1" d="M57.47,16.57h.4c.02.05.04.1.05.15.03.22.17.36.37.42.24.07.48.08.72,0,.21-.07.36-.21.39-.44.03-.22-.04-.37-.24-.46-.13-.06-.27-.1-.4-.13-.21-.06-.42-.11-.63-.17-.07-.02-.14-.04-.21-.08-.51-.24-.51-.79-.33-1.1.08-.13.18-.24.32-.31.46-.24.94-.28,1.42-.07.29.12.44.36.45.69-.14.05-.28.03-.41.02-.02-.02-.03-.04-.04-.05-.08-.29-.29-.4-.57-.41-.18,0-.36,0-.52.08-.15.08-.25.19-.27.37-.02.21.05.34.24.43.08.04.18.06.27.09.22.06.44.11.65.17.11.03.22.07.32.12.26.13.46.37.42.79-.04.36-.22.62-.55.76-.44.19-.9.19-1.35.02-.36-.14-.53-.45-.49-.88Z"/>
      <path class="cls-1" d="M58.53,8.46c-.14.04-.27.03-.39.01-.02-.02-.04-.04-.04-.05-.06-.27-.26-.38-.51-.41-.17-.02-.34-.02-.5.05-.07.03-.14.06-.2.11-.2.15-.27.57.08.72.08.03.16.06.24.08.21.06.42.11.63.17.13.04.25.07.37.13.3.14.46.42.43.76-.03.33-.18.59-.48.75-.11.06-.22.1-.34.13-.34.08-.67.07-1-.03-.41-.13-.61-.44-.58-.89.13-.05.27-.03.41-.01.01.06.03.11.04.17.05.23.2.36.42.41.2.05.41.05.62,0,.24-.06.4-.2.45-.45.04-.18-.03-.34-.19-.44-.1-.06-.2-.1-.31-.13-.22-.06-.44-.11-.66-.17-.1-.03-.2-.06-.29-.1-.5-.22-.63-.84-.27-1.25.08-.09.18-.17.29-.22.42-.2.85-.22,1.29-.06.25.09.43.27.49.54.01.06,0,.13,0,.19Z"/>
      <path class="cls-1" d="M73.66,5.85h-.38s-.03-.09-.03-.14c0-.65,0-1.3,0-1.95,0-.03.01-.05.02-.1.11-.04.23-.02.36-.01.02.07.03.14.05.21.38-.25.49-.29.72-.28.28.01.51.11.67.38.05-.05.1-.09.14-.13.31-.33.82-.29,1.1-.13.19.11.29.29.32.51,0,.06,0,.13,0,.2,0,.41,0,.83,0,1.24,0,.05,0,.11-.01.18-.13.04-.25.03-.38,0,0-.07-.02-.13-.02-.19,0-.38,0-.75,0-1.13,0-.08,0-.17-.02-.25-.02-.14-.11-.24-.23-.3-.33-.17-.74.04-.8.4-.01.09-.01.19-.01.28,0,.32,0,.64,0,.96,0,.07-.01.15-.02.22-.14.04-.25.04-.39,0,0-.08-.01-.16-.01-.25,0-.35,0-.7,0-1.05,0-.09,0-.19-.02-.28-.04-.19-.18-.31-.37-.34-.14-.02-.28,0-.41.08-.14.09-.24.21-.25.39,0,.11-.02.23-.02.34,0,.28,0,.57,0,.85,0,.08,0,.17-.01.28Z"/>
      <path class="cls-1" d="M71.26,10.87h-.37c0-.07-.02-.14-.02-.2,0-.35,0-.7,0-1.05,0-.08,0-.15,0-.23-.02-.27-.15-.42-.41-.46-.25-.04-.53.09-.6.31-.04.11-.05.24-.06.36,0,.33,0,.66,0,.99,0,.08,0,.17-.01.26-.12.03-.23.02-.36.01-.01-.06-.03-.12-.03-.18,0-.38,0-.75,0-1.13,0-.08,0-.17-.02-.25-.04-.23-.19-.37-.43-.38-.36-.02-.62.25-.62.52,0,.38,0,.75,0,1.13,0,.09.02.19-.04.28-.11.03-.23.03-.35,0-.01-.03-.03-.06-.03-.09,0-.67,0-1.34,0-2.01,0-.03.02-.05.03-.09h.35c.02.06.04.13.07.2.5-.4,1.03-.35,1.41.09.05-.05.1-.1.16-.16.29-.29.87-.24,1.11-.06.14.11.23.25.26.42.01.06.02.13.02.2,0,.45,0,.9,0,1.36,0,.04-.01.07-.02.14Z"/>
      <path class="cls-1" d="M83.23,40.88c.05-.06.08-.09.11-.12.23-.27.67-.36,1.07-.17.2.1.31.27.36.48.02.07.02.15.02.22,0,.42,0,.85,0,1.27,0,.05,0,.11-.01.17-.13.04-.25.03-.38.01,0-.07-.02-.13-.02-.2,0-.36,0-.72,0-1.07,0-.09,0-.19-.02-.28-.02-.19-.14-.31-.32-.35-.36-.1-.7.12-.72.47,0,.09-.01.19-.01.28,0,.29,0,.58,0,.88,0,.08,0,.17,0,.26-.14.06-.26.04-.4.01,0-.09-.01-.17-.01-.25,0-.33,0-.66,0-.99,0-.07,0-.13,0-.2-.01-.28-.15-.44-.39-.47-.3-.04-.58.13-.64.39-.03.12-.03.24-.04.36,0,.3,0,.6,0,.9,0,.08,0,.17-.01.27-.08,0-.14.02-.2.02-.05,0-.11,0-.17-.02-.05-.25-.02-.49-.02-.73,0-.24,0-.47,0-.71,0-.24,0-.49,0-.75.08,0,.14-.01.21-.01.06,0,.11,0,.17.01.01.07.02.13.04.22.03-.02.07-.02.09-.04.26-.25.56-.28.89-.2.18.05.31.17.43.35Z"/>
      <path class="cls-1" d="M56.05,40.56c.14-.04.27-.03.41,0,.19.54.33,1.1.52,1.67.04-.06.07-.09.08-.12.14-.42.27-.84.4-1.26.03-.1.07-.19.1-.29h.51c.02.06.05.11.07.17.13.43.25.87.38,1.3.02.06.05.12.09.22.19-.59.36-1.13.54-1.67.13-.05.25-.02.39-.03,0,.06,0,.11-.01.15-.23.66-.46,1.31-.7,1.97,0,.03-.03.05-.05.08h-.45c-.19-.57-.32-1.14-.51-1.74-.04.07-.07.12-.09.17-.15.46-.29.91-.44,1.37-.02.06-.04.12-.07.19-.16.04-.32.03-.49,0-.24-.69-.46-1.38-.69-2.06-.01-.03,0-.07,0-.11Z"/>
      <path class="cls-1" d="M71.89,46.16c.07.04.12.06.16.08.5.27.59.91.18,1.31-.12.11-.26.19-.41.23-.29.08-.58.07-.86-.03-.34-.12-.54-.37-.58-.73-.03-.32.14-.61.46-.77.04-.02.08-.04.15-.07-.07-.04-.13-.07-.18-.1-.34-.19-.48-.59-.25-1,.08-.13.18-.24.33-.3.42-.19.84-.17,1.24.07.11.07.18.16.24.27.18.36.07.75-.28.95-.05.03-.1.05-.19.09ZM71.43,47.48c.28,0,.5-.13.58-.36.11-.31-.02-.64-.32-.74-.32-.1-.7,0-.82.33-.04.1-.05.2-.03.3.06.28.28.45.59.46ZM71.44,44.96c-.08.02-.16.02-.24.05-.2.07-.33.24-.33.44,0,.21.11.37.31.46.19.08.39.07.57-.02.19-.09.28-.26.26-.48-.02-.19-.15-.35-.34-.4-.07-.02-.15-.03-.23-.04Z"/>
      <path class="cls-1" d="M66.16,42.76c-.1,0-.2,0-.29,0-.05,0-.09,0-.16-.02-.19-.56-.32-1.14-.51-1.74-.04.08-.07.13-.09.19-.14.42-.27.84-.4,1.26-.03.09-.06.18-.09.27-.16.05-.32.03-.47.01-.11-.21-.68-1.92-.72-2.18.12-.05.25-.02.4-.02.03.07.06.15.09.23.13.42.26.85.39,1.27.02.05.04.1.05.14.03,0,.04,0,.05,0,0,0,.01-.01.02-.02.01-.03.02-.05.03-.08.16-.49.32-.98.48-1.48,0,0,0-.02.01-.02,0,0,.01-.02.03-.04.16-.03.32-.02.51,0,.19.54.31,1.1.51,1.67.04-.08.07-.13.09-.19.13-.41.26-.82.4-1.24.03-.08.06-.16.09-.25h.37s.01.06,0,.08c-.04.18-.68,1.95-.77,2.12Z"/>
      <path class="cls-1" d="M61.26,40.55h.53c.03.1.06.18.09.27.12.4.23.8.34,1.19.02.06.05.12.08.21.13-.29.2-.57.29-.85.09-.27.17-.54.26-.81.14-.04.26-.04.4-.01,0,.05,0,.08-.01.12-.24.68-.48,1.37-.72,2.05-.17.05-.32.04-.49,0-.08-.29-.17-.58-.25-.87-.08-.28-.16-.56-.25-.87-.13.2-.15.4-.22.58-.07.2-.13.39-.19.59-.06.19-.12.37-.18.56-.17.04-.33.03-.48,0-.16-.34-.69-1.98-.71-2.18.13-.04.26-.02.4,0,.11.27.17.55.26.83.08.27.17.54.25.8.08.02.09-.03.1-.08.13-.42.27-.84.4-1.26.03-.1.07-.19.1-.29Z"/>
      <path class="cls-1" d="M68.06,6.05h.41s.04.1.06.15c.04.14.15.21.28.25.14.04.28.04.42,0,.13-.04.24-.12.29-.25.08-.19.09-.4.06-.63-.06.04-.11.07-.15.1-.3.2-.62.2-.95.09-.25-.09-.39-.29-.47-.53-.09-.29-.1-.59-.02-.89.18-.67.95-.93,1.51-.52.03.02.06.04.11.07.02-.09.03-.16.05-.23h.35c0,.06.02.12.02.17,0,.62,0,1.24,0,1.86,0,.16-.02.32-.05.48-.04.23-.17.4-.39.48-.39.15-.79.15-1.18,0-.25-.1-.33-.31-.33-.6ZM68.35,4.72c.03.15.04.3.09.44.08.24.26.35.52.36.26,0,.47-.09.57-.34.12-.29.13-.59.02-.88-.09-.24-.33-.38-.61-.38-.25,0-.42.12-.5.38-.05.13-.06.27-.09.42Z"/>
      <path class="cls-1" d="M63.07,47.05h.41s.03.06.03.09c.04.19.14.31.33.34.21.03.42.02.57-.16.07-.08.12-.17.16-.27.08-.23.1-.47.06-.75-.05.04-.08.06-.11.09-.26.24-.56.25-.87.16-.34-.1-.53-.34-.59-.69-.02-.12-.02-.24-.01-.37.04-.45.32-.75.76-.82.69-.11,1.09.3,1.19.74.12.52.13,1.04.01,1.57-.02.1-.06.2-.1.29-.09.19-.22.35-.42.44-.34.16-.7.16-1.04.01-.27-.12-.39-.34-.38-.68ZM64.6,45.72c0-.2-.02-.34-.1-.46-.13-.2-.32-.28-.56-.26-.22.03-.35.16-.42.37-.05.16-.06.31-.02.47.07.29.3.45.61.43.27-.02.45-.21.49-.49,0-.04,0-.08,0-.05Z"/>
      <path class="cls-1" d="M81.84,46.3c-.07.06-.11.09-.14.12-.47.36-1.17.18-1.39-.38-.11-.27-.1-.56,0-.83.09-.24.27-.41.51-.49.55-.19,1.21,0,1.38.73.12.5.12,1.01,0,1.51-.02.11-.06.22-.11.32-.12.26-.32.44-.61.51-.26.07-.52.06-.78-.03-.31-.11-.47-.37-.44-.71.03,0,.07-.02.11-.02.09,0,.19,0,.3,0,.02.07.03.13.06.18.04.07.09.15.16.19.21.14.58.08.75-.12.12-.14.17-.31.19-.49.01-.15,0-.3,0-.5ZM81.8,45.64c0-.15-.03-.28-.11-.4-.14-.2-.33-.27-.57-.24-.21.03-.33.16-.4.35-.06.15-.07.31-.03.47.07.3.29.46.6.44.28-.02.47-.21.5-.51,0-.04,0-.08,0-.11Z"/>
      <path class="cls-1" d="M73.36,46.04c.08.01.11-.05.15-.08.29-.22.61-.23.94-.09.31.14.46.4.5.73,0,.07,0,.15,0,.23,0,.6-.51,1.12-1.26.97-.32-.06-.54-.25-.66-.56-.05-.14-.1-.29-.11-.44-.04-.4-.04-.81.06-1.21.05-.17.11-.34.2-.49.29-.48.95-.62,1.41-.31.22.15.3.3.3.6-.12.06-.25.02-.39.03-.02-.04-.05-.08-.06-.13-.08-.39-.66-.42-.87-.14-.04.05-.08.11-.1.17-.09.23-.15.46-.13.7ZM73.34,46.83c.03.12.05.24.11.35.1.21.27.33.52.32.24,0,.41-.13.5-.34.11-.25.09-.5-.02-.74-.06-.14-.17-.22-.31-.27-.29-.08-.58.05-.7.32-.05.11-.06.23-.09.36Z"/>
      <path class="cls-1" d="M66.46,14.33s.08-.02.12-.02c.58,0,1.17,0,1.75,0,.03,0,.05.02.08.03.03.1.02.2,0,.32-.06,0-.12.02-.19.03-.35,0-.7,0-1.05,0-.09,0-.19,0-.27,0-.05.22-.06.67-.01.95.06,0,.12.02.18.02.32,0,.64,0,.96,0,.09,0,.18,0,.28.01.05.12.04.23,0,.35-.24.02-.47,0-.71,0-.24,0-.47,0-.72,0-.01.07-.04.12-.04.17,0,.28,0,.56,0,.86.08.01.14.03.2.03.36,0,.72,0,1.07,0,.09,0,.19,0,.27,0q.05.17.02.36s-.06.03-.1.03c-.59,0-1.19,0-1.78,0-.03,0-.05-.01-.09-.02-.06-.09-.04-.2-.04-.3,0-.73,0-1.45,0-2.18,0-.17,0-.34,0-.51,0-.05.02-.11.02-.17Z"/>
      <path class="cls-1" d="M78.06,15.99c-.01-.29.01-.58.11-.86.02-.07.05-.14.08-.21.18-.35.46-.54.86-.53.4.01.67.21.83.57.08.19.13.39.15.6.03.36.03.71-.04,1.07-.04.17-.09.33-.18.47-.19.32-.48.48-.84.46-.37-.02-.64-.21-.79-.55-.09-.22-.15-.44-.17-.68,0-.11,0-.23,0-.34ZM79.68,16.03c-.02-.25-.02-.42-.04-.59-.02-.16-.06-.31-.14-.46-.18-.34-.66-.33-.84-.02-.08.14-.13.29-.15.45-.05.37-.06.73,0,1.1.02.15.07.3.14.43.18.34.67.32.83,0,.04-.08.09-.17.1-.26.04-.24.07-.48.09-.65Z"/>
      <path class="cls-1" d="M70.01,46.2c-.02.29-.02.55-.1.81-.05.18-.13.35-.25.5-.41.48-1.18.42-1.48-.14-.08-.15-.15-.33-.18-.5-.09-.47-.08-.94.05-1.4.04-.14.1-.29.17-.41.33-.57,1.25-.55,1.57.07.09.18.15.37.18.56.03.18.03.36.05.51ZM69.59,46.24c-.02-.22-.04-.44-.07-.65-.02-.12-.06-.24-.12-.34-.19-.32-.61-.33-.82-.01-.06.1-.11.22-.14.34-.09.45-.09.9,0,1.35.02.12.07.24.14.34.18.29.63.27.79,0,.06-.11.12-.24.14-.36.04-.21.05-.43.08-.64Z"/>
      <path class="cls-1" d="M82.57,16.04c-.03.19-.06.44-.1.68-.03.16-.1.3-.19.44-.39.6-1.29.51-1.58-.1-.09-.2-.15-.4-.18-.62-.05-.42-.03-.84.08-1.26.04-.16.11-.3.2-.43.34-.5,1.21-.48,1.52.1.1.19.16.4.19.62.02.18.03.36.05.59ZM80.92,15.97c.03.24.05.47.09.7.02.12.08.23.15.33.17.25.59.24.75,0,.08-.12.13-.25.16-.39.09-.44.09-.88,0-1.32-.02-.11-.07-.22-.12-.32-.17-.32-.65-.32-.82-.02-.05.1-.11.2-.13.31-.04.23-.06.47-.09.7Z"/>
      <path class="cls-1" d="M91.16,15.91c-.01.28-.01.55-.09.81-.05.14-.1.28-.18.41-.18.3-.46.44-.81.43-.35-.02-.63-.18-.78-.52-.06-.14-.12-.28-.14-.43-.09-.49-.08-.97.05-1.45.01-.05.03-.11.05-.16.2-.49.58-.71,1.14-.58.25.06.43.23.55.45.1.19.15.39.18.59.02.15.03.3.04.45ZM89.52,15.96c.03.23.04.47.09.7.02.12.08.23.14.33.17.27.61.26.77,0,.06-.1.12-.22.15-.33.1-.47.1-.94,0-1.4-.02-.1-.07-.2-.12-.29-.18-.31-.64-.3-.8-.02-.06.1-.12.22-.14.34-.04.22-.06.45-.08.68Z"/>
      <path class="cls-1" d="M77.84,47.06c.09,0,.14,0,.2-.01.07,0,.15,0,.22,0,.02.05.04.08.05.12.09.24.28.32.52.32.24,0,.42-.12.51-.34.08-.2.1-.4.04-.61-.07-.22-.2-.36-.43-.4-.24-.04-.45.02-.59.24-.03.05-.06.1-.09.15h-.35c0-.05-.03-.11-.03-.16.02-.52.04-1.03.07-1.55,0-.02.01-.03.02-.06.02,0,.04-.03.07-.03.53,0,1.05,0,1.58,0,.07.11.05.22.02.33-.43.03-.85,0-1.28.02-.06.3-.07.6-.06.92.07-.04.12-.07.16-.09.61-.34,1.28,0,1.36.7.02.16.01.32-.02.48-.09.34-.3.58-.65.69-.28.09-.56.09-.83-.02-.29-.12-.46-.35-.47-.7Z"/>
      <path class="cls-1" d="M71.54,15.15c-.07.01-.11.02-.16.02-.09,0-.19,0-.29,0-.03-.07-.05-.13-.08-.19-.06-.15-.17-.26-.32-.3-.39-.12-.79-.05-1.01.33-.07.13-.13.27-.16.42-.06.33-.07.66,0,.98.02.09.05.18.08.27.22.52.68.56,1.03.47.17-.04.3-.15.37-.32.02-.05.04-.1.07-.16h.42c.06.06.03.12.01.16-.13.39-.42.59-.8.67-.22.05-.45.05-.67,0-.3-.06-.54-.22-.71-.47-.05-.08-.1-.16-.14-.25-.23-.61-.23-1.22.04-1.81.23-.51.66-.73,1.21-.72.16,0,.32.03.47.07.38.12.6.37.65.8Z"/>
      <path class="cls-1" d="M76.82,46.2s.07.04.08.04c.49.23.62.77.3,1.2-.15.2-.35.32-.59.36-.27.05-.55.04-.81-.06-.33-.12-.5-.38-.5-.75.14-.05.27-.03.42-.01.02.06.04.13.06.19.05.13.14.22.28.26.16.05.31.06.47,0,.24-.07.38-.26.38-.5,0-.24-.13-.44-.36-.52-.09-.03-.18-.04-.28-.05-.06,0-.13-.01-.21-.02,0-.05-.02-.1-.02-.14,0-.05,0-.11.01-.18.07,0,.12,0,.17-.01.09-.01.19-.02.28-.05.29-.1.42-.37.32-.66-.03-.09-.09-.16-.18-.21-.33-.19-.71-.07-.87.28-.01.03-.03.07-.05.12-.08,0-.17,0-.25,0-.05,0-.09-.01-.14-.02-.03-.21.05-.38.18-.52.37-.41,1.22-.4,1.59.01.33.38.21.93-.15,1.13-.05.03-.09.06-.17.11Z"/>
      <path class="cls-1" d="M94.78,16.1v-.32c.06,0,.12-.01.17-.02.11-.02.23-.03.33-.07.28-.11.4-.44.25-.7-.02-.04-.05-.08-.09-.11-.21-.19-.75-.21-.91.19-.02.04-.03.09-.05.13-.14.03-.27.02-.41,0-.03-.17.02-.3.1-.43.08-.12.19-.21.32-.27.33-.14.68-.15,1.02-.03.15.06.28.16.37.29.28.39.12.88-.2,1.06-.05.03-.1.06-.17.09.05.03.08.06.12.07.38.2.53.61.36,1-.11.26-.31.42-.57.51-.33.11-.65.09-.97-.04-.3-.13-.47-.36-.47-.71.14-.06.28-.03.43-.03.03.07.05.14.08.21.04.09.1.16.19.2.24.1.48.11.7-.03.32-.2.31-.71-.02-.9-.09-.05-.21-.08-.32-.1-.08-.02-.17-.01-.28-.02Z"/>
      <path class="cls-1" d="M73.67,15.25c-.15.04-.29.03-.42.01-.02-.39.15-.67.5-.8.26-.09.52-.1.78-.02.5.16.74.74.48,1.22-.08.16-.19.31-.31.44-.24.26-.5.52-.75.77-.07.07-.14.14-.21.21.03.08.08.07.12.07.31,0,.62,0,.93,0,.09,0,.19,0,.28.01.05.11.04.21,0,.31-.24.05-1.67.04-1.89,0-.04-.1-.02-.2-.02-.3,0-.09.06-.13.12-.18.25-.25.5-.49.74-.74.14-.14.27-.29.39-.44.07-.09.13-.19.17-.29.04-.08.06-.18.06-.27,0-.26-.15-.45-.38-.48-.3-.04-.51.08-.58.36-.01.04-.02.09-.03.14Z"/>
      <path class="cls-1" d="M87.18,15.26h-.41c-.04-.37.15-.67.49-.8.26-.09.52-.1.78-.02.5.16.74.74.49,1.22-.09.17-.2.32-.33.46-.23.26-.48.5-.73.75-.07.07-.15.14-.21.21.02.08.07.07.12.07.31,0,.62,0,.93,0,.09,0,.19,0,.29,0,.05.11.04.21.02.31-.03.01-.06.03-.08.03-.57,0-1.13,0-1.7,0-.04,0-.07-.01-.11-.02-.06-.11-.04-.23-.02-.34.01-.06.06-.11.11-.16.24-.24.49-.47.72-.72.14-.15.28-.3.41-.46.07-.09.13-.19.18-.29.04-.08.06-.18.06-.27,0-.46-.4-.57-.71-.45-.12.05-.2.14-.24.26-.02.06-.03.13-.05.21Z"/>
      <path class="cls-1" d="M66.9,10.2h.3c.06.05.05.1.03.14-.03.08-.06.16-.1.23-.1.15-.25.25-.42.31-.21.07-.43.08-.64.04-.37-.06-.61-.28-.72-.64-.11-.36-.1-.73.03-1.08.12-.33.37-.52.71-.58.16-.02.32-.02.48,0,.31.05.54.22.64.53.07.21.12.43.06.67-.07,0-.14.01-.2.02-.37,0-.74,0-1.1,0-.08,0-.16.01-.26.02-.02.19.02.36.1.5.19.33.64.35.86.16.09-.08.14-.19.23-.33ZM65.73,9.52c.29.04.9.04,1.11,0,.03-.16-.02-.31-.12-.44-.09-.12-.22-.17-.37-.17-.17,0-.32.03-.44.15-.12.12-.21.27-.18.47Z"/>
      <path class="cls-1" d="M66.95,4.49c-.01-.15-.02-.26-.04-.37-.01-.06-.06-.12-.1-.16-.14-.11-.3-.11-.46-.08-.15.03-.26.11-.3.27,0,.03-.03.05-.05.08-.12.02-.23.03-.36-.01,0-.23.09-.41.29-.51.38-.18.77-.17,1.14.01.13.06.22.18.25.33.01.07.03.15.03.22,0,.52,0,1.03,0,1.56-.12.05-.24.04-.36,0-.02-.07-.03-.13-.05-.2-.03.01-.06.01-.07.03-.22.26-.51.31-.82.25-.65-.12-.67-.78-.38-1.1.12-.13.26-.22.43-.25.17-.03.33-.05.5-.06.1,0,.2,0,.35,0ZM66.92,4.79c-.23-.02-.44-.03-.64.04-.09.03-.18.07-.25.13-.19.15-.16.45.04.58.24.15.71.1.82-.31.04-.13.05-.27.02-.44Z"/>
      <path class="cls-1" d="M79.26,4.83h-.54c-.17,0-.34,0-.51,0-.17,0-.34-.01-.51.01-.03.24.03.44.17.61.22.26.84.23.94-.16,0-.04.03-.07.05-.11.12-.03.24-.02.37,0,.02.16-.03.28-.12.4-.13.17-.31.28-.52.32-.2.04-.39.04-.59,0-.31-.06-.52-.25-.64-.54-.1-.26-.12-.53-.08-.81.01-.11.04-.22.07-.33.04-.16.14-.29.26-.4.32-.28.92-.32,1.27-.08.08.05.15.12.2.2.17.26.21.55.17.89ZM77.73,4.52c.24.04.88.04,1.1,0,.02-.21-.02-.35-.13-.47-.1-.11-.24-.16-.38-.16-.16,0-.32.04-.44.17-.12.13-.2.27-.16.46Z"/>
      <path class="cls-1" d="M61.78,5.62s-.07.05-.09.07c-.24.26-.54.28-.86.2-.44-.11-.63-.56-.41-.96.11-.2.28-.33.51-.38.18-.04.37-.05.56-.07.09-.01.19.02.28-.03.04-.1.02-.2,0-.31-.01-.1-.07-.18-.16-.22-.15-.08-.31-.09-.47-.04-.14.04-.22.14-.26.27,0,.02-.02.03-.04.06-.11.03-.23.03-.36,0-.02-.21.07-.37.23-.48.08-.05.17-.09.26-.11.27-.08.54-.06.81.03.23.08.38.24.4.49,0,.09,0,.19,0,.28,0,.23-.02.45-.02.68,0,.23,0,.47.01.72-.11.06-.22.04-.35.02-.02-.07-.04-.13-.06-.22ZM61.75,4.8c-.26-.05-.5-.03-.75.07-.04.02-.08.04-.12.07-.21.17-.18.49.06.61.25.13.68.07.8-.33.04-.13.05-.27.01-.42Z"/>
      <path class="cls-1" d="M72.24,5.18c.13-.01.25-.03.36.02-.04.37-.26.62-.63.7-.2.04-.41.05-.62,0-.28-.06-.48-.22-.59-.48-.19-.44-.17-.88.01-1.32.05-.12.15-.22.25-.3.31-.26.88-.28,1.22-.06.15.1.25.23.31.39.08.22.11.44.07.68-.06,0-.13.02-.19.02-.36,0-.72,0-1.07,0-.09,0-.19,0-.29.01-.03.25.03.45.19.63.23.25.85.21.93-.19,0-.03.03-.07.05-.1ZM71.1,4.52c.25.04.89.03,1.1,0,.02-.38-.17-.63-.51-.63-.16,0-.32.04-.43.17-.12.13-.2.27-.15.46Z"/>
      <path class="cls-1" d="M80.74,41.62c0,.23-.03.42-.11.59-.14.31-.37.51-.71.59-.19.04-.37.05-.56,0-.41-.08-.67-.33-.78-.72-.08-.3-.07-.6.02-.89.12-.36.36-.58.73-.67.19-.05.37-.05.56-.02.36.06.71.31.81.8.03.12.03.24.04.32ZM78.97,41.64c0,.18.02.36.1.52.11.22.28.35.53.36.26,0,.46-.1.58-.33.17-.35.18-.71.03-1.06-.07-.17-.21-.28-.4-.32-.32-.07-.63.09-.76.4-.06.14-.09.29-.08.44Z"/>
      <path class="cls-1" d="M71.58,40.56c.13-.04.25-.03.39,0,0,.05.03.11.03.16,0,.64,0,1.28,0,1.92,0,.03-.01.05-.02.09-.13.04-.25.03-.39,0-.01-.08-.03-.16-.04-.24-.03.01-.05.02-.07.03-.28.31-.63.31-.99.2-.22-.07-.36-.24-.41-.47-.02-.09-.03-.19-.03-.28,0-.41,0-.83,0-1.24,0-.05.01-.11.02-.17.13-.03.25-.03.38,0,0,.09.02.17.02.25,0,.36,0,.72,0,1.07,0,.08,0,.17.02.25.03.16.13.27.3.31.17.04.34.02.49-.06.15-.08.24-.21.26-.38.01-.09.01-.19.01-.28,0-.31,0-.62,0-.93,0-.07.01-.15.02-.22Z"/>
      <path class="cls-1" d="M61.57,10.25c.13-.05.25-.03.39-.03.02.06.05.11.08.17.04.1.13.16.23.2.15.04.3.04.45,0,.13-.03.22-.16.23-.29,0-.1-.03-.19-.12-.24-.07-.04-.14-.06-.21-.08-.15-.04-.29-.07-.44-.11-.08-.02-.16-.05-.24-.09-.44-.2-.38-.72-.14-.94.12-.1.25-.17.4-.2.26-.05.53-.04.78.07.23.1.36.26.34.53-.12.07-.25.03-.37.03-.02-.02-.02-.02-.03-.03-.03-.15-.11-.26-.27-.3-.17-.04-.34-.04-.49.06-.18.11-.17.37.02.46.08.04.16.05.24.08.18.05.36.1.54.15.25.08.39.25.42.51.02.25-.12.51-.36.63-.26.13-.54.15-.83.1-.1-.02-.2-.05-.29-.09-.23-.12-.33-.32-.33-.58Z"/>
      <path class="cls-1" d="M81.82,5.84c-.14.03-.26.04-.4,0,0-.07-.02-.15-.02-.22,0-.32,0-.64,0-.96,0-.08,0-.15,0-.23,0-.22-.07-.38-.33-.47-.23-.08-.46-.01-.61.17-.1.13-.15.28-.15.45,0,.32,0,.64,0,.96,0,.09,0,.19,0,.29-.13.05-.24.03-.38.02,0-.05-.02-.09-.03-.14,0-.64,0-1.28,0-1.92,0-.04.01-.07.02-.12.12-.04.24-.03.37,0,.01.08.03.15.04.23.03-.01.06-.02.08-.04.24-.24.54-.29.86-.22.3.07.5.26.55.58,0,.06.01.11.02.17,0,.44,0,.89,0,1.33,0,.04,0,.07-.02.13Z"/>
      <path class="cls-1" d="M59.96,11.71h-.37c.05-.3.22-.55.29-.85-.28-.71-.6-1.42-.89-2.16.16-.05.29-.04.45-.02.24.54.43,1.1.66,1.63.03,0,.04,0,.05,0,0,0,.01-.01.02-.02.01-.02.02-.03.03-.05.21-.51.42-1.03.63-1.55.14-.05.28-.04.41-.01,0,.03.01.05,0,.06-.42.98-.85,1.95-1.28,2.96Z"/>
      <path class="cls-1" d="M64.88,5.85h-.38c0-.06-.03-.12-.03-.18,0-.37,0-.73,0-1.1,0-.1-.01-.21-.03-.31-.02-.11-.09-.18-.18-.24-.33-.2-.73-.05-.84.31-.03.12-.04.24-.05.36,0,.28,0,.56,0,.85,0,.09,0,.19,0,.27q-.17.05-.38.02s-.03-.08-.03-.13c0-.64,0-1.28,0-1.92,0-.04,0-.07.02-.12.12-.04.24-.03.37,0,.01.07.03.14.04.23.03-.01.06-.02.08-.03.25-.25.56-.3.89-.21.31.08.52.31.52.62.01.52,0,1.03,0,1.58Z"/>
      <path class="cls-1" d="M82.67,45.06v-.32c.34-.04.67-.02.99-.02.33,0,.66-.02,1,.01.03.17.03.32-.03.47-.35.82-.69,1.65-1.03,2.47-.01.03-.03.05-.05.08-.14.03-.29.01-.43.01-.03-.12.04-.2.07-.29.3-.69.6-1.38.9-2.07.04-.09.08-.19.11-.27-.04-.09-.11-.07-.16-.07-.36,0-.72,0-1.07,0-.09,0-.18,0-.3-.01Z"/>
      <path class="cls-1" d="M87.11,44.73c.03.18.04.34-.03.49-.35.83-.7,1.66-1.05,2.5,0,0,0,.02-.02.04-.14.04-.3.03-.47,0,.11-.32.25-.6.38-.9.12-.29.25-.57.37-.85.13-.29.25-.58.37-.86-.04-.09-.11-.07-.16-.07-.36,0-.71,0-1.07,0-.09,0-.18,0-.29-.01-.03-.11-.03-.21,0-.3.02-.01.03-.02.03-.03,0,0,.02,0,.03,0,.58,0,1.17,0,1.75,0,.05,0,.09,0,.17.01Z"/>
      <path class="cls-1" d="M77.11,14.81h-1.5q-.06-.16-.02-.33s.03-.02.05-.02c.57,0,1.15,0,1.72,0,.06,0,.11,0,.18.01.05.18.04.35-.03.52-.25.59-.49,1.18-.74,1.77-.1.24-.2.49-.3.72-.16.04-.31.04-.46,0-.03-.09.03-.15.05-.22.31-.72.62-1.43.94-2.15.04-.08.07-.17.12-.31Z"/>
      <path class="cls-1" d="M78.16,41.25h-.38s-.04-.1-.06-.15c-.05-.15-.14-.27-.31-.29-.2-.03-.38,0-.51.17-.06.09-.12.2-.14.31-.05.25-.04.51,0,.76.01.06.04.13.07.19.09.19.24.28.45.28.21,0,.36-.1.43-.3.02-.05.04-.11.06-.16.12-.03.24-.03.37,0,.03.22-.07.39-.21.53-.14.14-.3.22-.5.24-.07,0-.13.01-.2,0-.49-.01-.82-.28-.91-.76-.06-.28-.05-.56.03-.84.19-.67.86-.86,1.37-.63.27.12.42.34.43.67Z"/>
      <path class="cls-1" d="M73.79,42.75h-.4c-.08-.18-.16-.36-.23-.54-.08-.18-.15-.36-.23-.55-.08-.18-.16-.36-.23-.55-.07-.18-.16-.35-.21-.56.09,0,.16,0,.22,0,.06,0,.13,0,.21.01.14.27.23.56.35.83.11.28.23.56.35.86.04-.06.07-.09.09-.13.17-.43.34-.86.51-1.29.03-.09.07-.17.11-.27.08,0,.15-.02.22-.02.06,0,.13,0,.19.01-.05.21-.79,1.93-.95,2.19Z"/>
      <path class="cls-1" d="M92.56,14.96c-.26.14-.44.3-.69.38v-.41s.1-.07.16-.11c.13-.09.28-.16.4-.26.16-.13.33-.15.54-.11,0,.05.03.11.03.16,0,.89,0,1.79,0,2.68,0,.05,0,.11-.01.17-.13.04-.25.04-.36.01-.07-.09-.05-.18-.05-.28,0-.63,0-1.26,0-1.89,0-.1,0-.2,0-.36Z"/>
      <path class="cls-1" d="M83.97,17.47c0-.29,0-.57,0-.84,0-.27,0-.55,0-.82,0-.27.02-.54-.02-.83-.14.02-.22.12-.32.17-.11.06-.21.13-.34.17-.05-.14-.02-.27-.02-.4.23-.15.45-.31.68-.45.13-.08.27-.05.41-.02.01.03.03.06.03.08,0,.97,0,1.94,0,2.91-.13.07-.26.05-.42.02Z"/>
      <path class="cls-1" d="M66.48,45.24c-.25.11-.42.29-.66.36-.07-.06-.04-.13-.05-.19,0-.07,0-.13,0-.19.24-.16.46-.31.69-.46.04-.02.09-.04.13-.04.09,0,.18,0,.28,0,.01.05.02.08.02.12,0,.96,0,1.92,0,2.88q-.16.06-.37.04c-.07-.08-.05-.18-.05-.27,0-.65,0-1.3,0-1.95,0-.09,0-.18-.01-.3Z"/>
      <path class="cls-1" d="M64.04,8.18c.12-.04.23-.08.35-.11.06.1.03.19.04.28,0,.08,0,.17.01.27.08,0,.16.02.23.02.07,0,.15.01.24.02,0,.09.01.17.02.25-.04.02-.06.04-.09.04-.12,0-.24.01-.38.02-.01.06-.03.11-.03.16,0,.37,0,.74,0,1.1,0,.04,0,.08,0,.11.02.13.08.2.21.23.08.01.17.01.27.02,0,.08,0,.17.01.25-.03.02-.06.04-.08.04-.13,0-.26.02-.39.01-.31-.02-.42-.14-.43-.45,0-.4,0-.79,0-1.19,0-.09,0-.18-.01-.28-.13-.01-.24-.02-.37-.03,0-.09,0-.17-.01-.27.13-.02.25-.03.38-.05.01-.15.02-.29.03-.44Z"/>
      <path class="cls-1" d="M68.68,40.86c-.15-.02-.26-.03-.38-.04v-.26c.12,0,.23-.02.34-.03.06-.14,0-.29.05-.43.1-.08.23-.11.38-.12.01.19.02.36.03.55.16,0,.3.01.43.02.07.08.05.17.03.25-.02.01-.05.03-.07.03-.12,0-.24.01-.37.02-.01.08-.03.14-.03.2,0,.34,0,.68,0,1.02,0,.34.04.38.39.4.02,0,.04,0,.06.01.06.08.04.17.02.27-.22.07-.44.06-.66-.01-.11-.04-.17-.11-.2-.22-.02-.09-.03-.19-.03-.28,0-.36,0-.72,0-1.07,0-.09,0-.19,0-.31Z"/>
      <path class="cls-1" d="M82.64,3.96c-.15-.01-.26-.02-.38-.04v-.27c.12,0,.23-.02.35-.03.05-.14,0-.29.04-.43.11-.07.23-.11.38-.11,0,.18.02.35.03.55.16,0,.3.02.43.02.07.07.05.16.04.25-.02.01-.05.03-.07.04-.12,0-.24.01-.38.02-.01.06-.04.11-.04.16,0,.38,0,.75,0,1.13,0,.05,0,.09.01.14.02.1.09.17.19.18.08.01.17.01.26.02.05.09.04.18.01.28-.2.07-.4.06-.61,0-.15-.04-.24-.15-.26-.3-.01-.07-.01-.15-.01-.23,0-.36,0-.72,0-1.07,0-.09,0-.19,0-.31Z"/>
      <path class="cls-1" d="M56.77,17.48c-.14.04-.26.03-.41,0-.03-.35-.01-.7-.02-1.04,0-.35,0-.7,0-1.04,0-.35,0-.69,0-1.05.14-.06.27-.03.41-.02,0,.05.03.09.03.14,0,.96,0,1.92,0,2.88,0,.04-.01.09-.02.14Z"/>
      <path class="cls-1" d="M56.75,47.76h-.37c-.01-.05-.03-.1-.03-.16,0-.95,0-1.9,0-2.85,0-.05.01-.09.02-.14.14-.07.26-.03.39-.03.01.04.03.07.03.09,0,1,0,1.99,0,2.99,0,.03-.02.05-.03.09Z"/>
      <path class="cls-1" d="M65.22,14.32h.38c.01.05.03.09.03.14,0,.96,0,1.92,0,2.88,0,.04-.01.09-.02.14-.13.04-.25.03-.38.01,0-.05-.03-.09-.03-.14,0-.96,0-1.92,0-2.88,0-.04.01-.09.02-.15Z"/>
      <path class="cls-1" d="M63.82,17.56h-.22s-.03-.04-.03-.06c0-.06.02-.11.04-.16.3-.92.59-1.85.89-2.77.02-.06.04-.12.07-.18.09-.05.17-.05.25,0-.03.23-.7,2.4-.99,3.18Z"/>
      <path class="cls-1" d="M86.08,17.48c-.17.03-.31.04-.46,0-.03-.15-.02-.3,0-.46.15-.07.3-.05.47-.02.03.16.02.3,0,.48Z"/>
      <path class="cls-1" d="M67.38,42.23c.15,0,.26,0,.37,0,.03,0,.05.01.09.03.03.15.03.31,0,.46q-.22.05-.46,0c-.03-.15-.02-.3,0-.49Z"/>
      <path class="cls-1" d="M75.7,42.74c-.17.02-.3.03-.45,0-.04-.16-.03-.31,0-.48.15-.04.3-.03.45,0,.05.16.03.31.01.49Z"/>
      <path class="cls-1" d="M86.08,15.76h-.45c-.06-.16-.03-.31-.02-.48.08,0,.15-.02.22-.02.07,0,.15,0,.23.01.06.16.03.31.02.49Z"/>
      <path class="cls-1" d="M25.07,2.76c5.79,0,11.58,0,17.37,0,.61,0,1.2.07,1.78.26,1.6.52,2.59,1.62,3,3.25.1.4.14.82.14,1.23,0,.07,0,.13,0,.2,0,11.54,0,23.08,0,34.62,0,.62-.06,1.22-.26,1.81-.58,1.73-1.77,2.78-3.56,3.15-.35.07-.71.1-1.07.1-11.62,0-23.23,0-34.85,0-.62,0-1.22-.08-1.8-.29-1.34-.49-2.25-1.41-2.74-2.75-.23-.63-.31-1.28-.33-1.94,0-.07,0-.13,0-.2,0-11.48,0-22.95,0-34.43,0-.62.05-1.23.24-1.82.51-1.63,1.62-2.63,3.27-3.04.46-.11.93-.15,1.4-.15,5.8,0,11.6,0,17.4,0ZM3.09,37.36c.13.06.26.03.39.03,14.38,0,28.76,0,43.14,0,.08,0,.17,0,.25,0,.05,0,.11-.02.18-.03,0-.14,0-.27,0-.4,0-9.69,0-19.39,0-29.08,0-.17,0-.34,0-.51,0-.42-.07-.83-.18-1.23-.4-1.37-1.26-2.31-2.61-2.8-.55-.19-1.11-.28-1.69-.28-11.67,0-23.35,0-35.02,0-.39,0-.77.03-1.15.12-1.63.38-2.69,1.36-3.15,2.99-.14.5-.18,1.02-.18,1.54,0,9.76,0,19.52,0,29.28,0,.08,0,.17,0,.25,0,.04.01.07.02.11ZM19.44,43.9v-.52c0-.17,0-.34,0-.51,0-.17-.02-.34.02-.52.29,0,.57-.01.85,0,.16,0,.26.1.3.26.01.04.02.07.02.11.04.24.07.48.11.73.02.16.04.31.08.46.27.04.64.04.87,0-.12-.34-.15-.7-.2-1.05-.02-.12-.04-.24-.06-.36-.05-.22-.17-.37-.39-.45-.04-.02-.11,0-.13-.08.06-.02.11-.05.16-.07.4-.19.58-.52.54-.96-.04-.42-.31-.74-.73-.84-.15-.04-.32-.06-.47-.06-.55,0-1.09,0-1.64,0-.05,0-.11.02-.17.03,0,1.26,0,2.5,0,3.74,0,.04.01.07.02.1.23.04.54.05.83,0ZM35.56,43.89s.05.03.07.03c.53,0,1.06.02,1.58-.01.76-.04,1.3-.49,1.52-1.22.15-.5.15-1,0-1.5-.17-.54-.53-.9-1.08-1.06-.23-.06-.46-.11-.7-.11-.41,0-.81,0-1.22,0-.05,0-.11.01-.17.02,0,.06-.02.1-.02.15-.02.47,0,3.5.02,3.71ZM15.21,40.04c0,.08-.01.14-.01.21,0,.18,0,.36,0,.54,0,.94,0,1.88,0,2.83,0,.1-.03.21.04.3.03,0,.06.01.09.01.8,0,1.6,0,2.4,0,.04,0,.09-.02.13-.03.04-.35.03-.41-.03-.61-.09,0-.18,0-.27,0-.42,0-.85,0-1.27,0-.07,0-.14-.01-.21-.02-.04-.32-.03-.83.02-1.04.09,0,.18,0,.27,0,.38,0,.75,0,1.13,0,.06,0,.13-.01.2-.02.02-.21.04-.4-.02-.61-.1,0-.19,0-.29,0-.38,0-.75,0-1.13,0-.06,0-.13-.02-.2-.03,0-.16,0-.31,0-.46,0-.15-.03-.3.04-.45.1,0,.19,0,.28,0,.41,0,.83,0,1.24,0,.06,0,.12-.02.19-.03.02-.2.02-.39,0-.57-.24-.04-2.25-.05-2.59,0ZM33.01,42.23c.1,0,.2,0,.29,0,.38,0,.75,0,1.13,0,.07,0,.15.02.22-.06,0-.18.03-.36-.02-.56-.1,0-.19,0-.29,0-.39,0-.77,0-1.16,0-.06,0-.12-.02-.18-.03-.04-.36-.03-.7.02-.9.09,0,.18,0,.27,0,.42,0,.85,0,1.27,0,.06,0,.12-.02.2-.03,0-.2.02-.39-.02-.57-.05,0-.09-.02-.13-.02-.78,0-1.57,0-2.35,0-.03,0-.07.02-.12.03,0,.11,0,.21,0,.31,0,.71,0,1.41,0,2.12,0,.41,0,.81,0,1.22,0,.07-.02.15.07.22.81,0,1.64,0,2.47,0,.04,0,.07-.01.12-.02,0-.1.01-.19.01-.28,0-.1.02-.21-.03-.32-.1,0-.19-.01-.28-.01-.43,0-.87,0-1.3,0-.07,0-.14-.02-.21-.02-.04-.24-.04-.74,0-1.04ZM14.53,41.2c-.02-.51-.24-.86-.66-1.08-.41-.22-.85-.24-1.29-.12-.61.16-.98.58-1.17,1.16-.14.43-.15.87-.09,1.31.05.3.13.59.3.85.23.36.56.57.98.66.27.05.54.05.82,0,.33-.06.63-.2.85-.46.2-.24.3-.55.26-.85-.14,0-.28,0-.42,0-.14,0-.28-.03-.41.04-.02.08-.03.16-.05.23-.09.27-.28.42-.55.47-.27.04-.51-.04-.67-.27-.08-.11-.14-.25-.18-.38-.1-.32-.11-.65-.08-.98.02-.23.05-.45.14-.66.06-.14.13-.27.25-.37.39-.36.95-.21,1.1.3.02.06.03.12.05.19.28.01.54.02.83,0ZM27.36,40.03c0,.12,0,.21,0,.31,0,.32,0,.64,0,.96,0,.78,0,1.56,0,2.35,0,.09-.03.19.05.28.25,0,.5.02.77-.01,0-.1.01-.19.01-.29,0-.38,0-.75,0-1.13,0-.07.02-.14.03-.23.11,0,.2-.01.29-.01.35,0,.7,0,1.05,0,.06,0,.12-.02.19-.03,0-.21.04-.4-.03-.61-.25,0-.5,0-.74,0-.25,0-.5.03-.75-.02-.06-.29-.05-.74.02-.94.17,0,.35,0,.53,0,.18,0,.36,0,.54,0,.18,0,.35.02.54-.02.02-.21.04-.4-.01-.59h-2.47ZM23.07,40.67c.05.11.03.22.03.32,0,.88,0,1.75,0,2.63,0,.1-.03.21.04.31.25,0,.5.03.76-.01,0-.07.02-.12.02-.18,0-.14,0-.28,0-.42,0-.79,0-1.58,0-2.38,0-.09-.03-.19.05-.27.36-.03.73.02,1.1-.03,0-.21.04-.4-.02-.59-.06,0-.1-.01-.15-.01-.97,0-1.94,0-2.91,0,0,0-.02,0-.03,0,0,0-.01.01-.02.02-.04.29-.04.4.02.58.36.03.73-.02,1.09.03ZM30.49,40.02c0,.12-.01.2-.01.28,0,1.11,0,2.22,0,3.34,0,.09-.03.19.05.29.25,0,.51.03.77-.03,0-.06.01-.11.01-.16,0-1.18,0-2.36,0-3.53,0-.05-.01-.11-.02-.17-.27-.04-.52-.01-.8-.02ZM26.46,43.93c0-.08.02-.13.02-.17,0-1.19,0-2.37,0-3.56,0-.05-.02-.11-.02-.15-.36-.04-.62-.04-.8.03,0,1.24,0,2.48,0,3.72,0,.04.01.07.02.12.04,0,.08.02.11.02.22,0,.43,0,.67,0Z"/>
      <path class="cls-1" d="M30,18.5c-.04-.08-.06-.14-.09-.19-1.23-2.17-4.68-8.01-4.85-8.2-.02.03-.05.05-.07.09-2.69,4.61-5.38,9.21-8.07,13.82,0,.01,0,.04,0,.07.06.01.12.03.19.04,1.13.09,2.26.1,3.39.03,1.62-.09,3.22-.36,4.79-.77.92-.24,1.86-.39,2.81-.51,1.05-.13,2.1-.18,3.16-.18,1.33,0,2.65.12,3.97.32.1.02.2.04.32.06.53.91,1.06,1.82,1.6,2.73-.09.06-.16.02-.22,0-.48-.1-.96-.21-1.44-.29-.63-.12-1.27-.2-1.9-.27-1.14-.12-2.28-.14-3.42-.1-.78.03-1.56.1-2.34.21-1.12.15-2.23.39-3.32.66-.79.2-1.59.33-2.39.44-1.01.13-2.03.19-3.05.19-.84,0-1.68-.04-2.51-.12-1.12-.12-2.22-.31-3.31-.58-.07-.02-.14-.04-.22-.07,0-.12.08-.2.13-.28.71-1.22,1.43-2.44,2.14-3.66,3.18-5.43,6.36-10.87,9.54-16.3.08-.13.15-.26.24-.4.11.07.14.17.19.26.87,1.48,1.74,2.96,2.6,4.44,2.13,3.64,4.26,7.27,6.38,10.91.05.09.1.18.16.29-.15.03-.28,0-.41,0-1.34-.16-2.69-.19-4.04-.13-1.67.07-3.32.33-4.94.74-1.01.26-2.02.44-3.06.55-.52.06-1.05.1-1.58.14-.1,0-.21,0-.31,0-.04-.08.02-.14.06-.2.36-.62.72-1.24,1.09-1.85.07-.12.15-.24.21-.37.05-.1.12-.14.22-.15.17-.02.34-.04.51-.06,1.08-.13,2.14-.35,3.19-.61,1.05-.26,2.12-.45,3.2-.55.48-.05.96-.08,1.48-.13Z"/>
      <path class="cls-1" d="M9.82,30.47c.3-.02.57-.02.83,0,.07.1.04.2.04.29,0,.67,0,1.34,0,2.01,0,.15,0,.3.02.45.01.1.03.21.07.3.09.26.29.42.56.45.14.02.28.02.42,0,.34-.03.56-.22.64-.55.04-.17.06-.35.06-.53,0-.69,0-1.38,0-2.06,0-.11,0-.22,0-.33.23-.06.61-.06.86,0,0,.05.02.1.02.16,0,.77,0,1.55,0,2.32,0,.17-.02.34-.06.5-.1.43-.35.74-.74.95-.24.12-.5.18-.76.21-.37.04-.74,0-1.08-.15-.54-.23-.84-.65-.9-1.23-.01-.1-.01-.21-.01-.31,0-.74,0-1.47,0-2.21,0-.07,0-.15.01-.25Z"/>
      <path class="cls-1" d="M14.01,30.48c.32-.03.62-.02.93-.01.03.08.07.15.09.23.28.85.56,1.7.84,2.55.04.12.08.23.13.38.04-.08.07-.14.09-.19.3-.89.6-1.79.89-2.68.03-.09.06-.18.1-.27.28-.04.55-.02.82-.01.04.1-.01.17-.04.25-.33.91-.67,1.82-1,2.73-.1.28-.21.57-.31.85-.03.08-.06.16-.09.24-.32.03-.63.01-.95.01-.16-.33-.26-.67-.38-1-.13-.34-.26-.69-.38-1.03-.12-.34-.25-.67-.37-1.01-.12-.33-.25-.67-.37-1.02Z"/>
      <path class="cls-1" d="M19.28,32.71c-.01.62,0,1.2,0,1.8-.18.06-.35.04-.54.02,0-.06-.02-.11-.02-.17,0-1.23,0-2.47,0-3.7,0-.05,0-.11.01-.18.06,0,.12-.02.17-.02.47,0,.94,0,1.41,0,.24,0,.47.04.69.14.35.15.55.42.57.8.02.44-.14.79-.55,1-.03.02-.07.04-.1.05,0,0-.01.01-.03.03.04.02.08.05.12.07.21.09.32.26.36.47.04.18.07.37.09.56.04.29.09.58.17.86,0,.03,0,.06,0,.09-.19.03-.37.03-.56,0-.08-.25-.12-.5-.16-.75-.02-.15-.03-.3-.06-.45-.01-.08-.03-.17-.06-.25-.08-.21-.23-.34-.46-.36-.34-.03-.68-.02-1.05-.01ZM19.29,32.21c.35,0,.69.02,1.03-.01.1,0,.2-.04.3-.08.24-.09.34-.28.34-.53,0-.28-.1-.46-.34-.56-.09-.04-.2-.07-.3-.07-.32-.01-.64-.01-.96-.01-.02,0-.05.02-.07.03-.03.25-.03.94,0,1.23Z"/>
      <path class="cls-1" d="M9.15,30.48c.03.22.04.43,0,.66-.19,0-.38,0-.57,0s-.38,0-.56,0c-.09.1-.06.21-.06.31,0,.91,0,1.83,0,2.74,0,.1,0,.2,0,.3-.2.06-.57.07-.85.02-.06-.09-.03-.2-.03-.3,0-.91,0-1.83,0-2.74,0-.1.02-.21-.03-.32-.2-.03-.39,0-.59-.01-.19,0-.37,0-.58-.01-.02-.22-.02-.42,0-.64.05,0,.09-.03.14-.03,1,0,2,0,3,0,.05,0,.09.01.14.02Z"/>
      <path class="cls-1" d="M43.71,31.98v-1.46c.19-.07.22-.07.51-.03.06.09.04.2.04.3,0,1.06,0,2.11,0,3.17v.57c-.17.06-.34.05-.53,0-.01-.1-.02-.2-.04-.3-.1,0-.12.08-.16.12-.5.47-1.36.38-1.73-.2-.06-.09-.11-.2-.15-.3-.15-.44-.16-.89-.02-1.33.12-.4.37-.7.78-.83.25-.08.5-.07.75-.01.2.05.35.17.54.3ZM42.12,33.16s0,.13.01.22c.02.21.08.4.2.58.27.43,1,.4,1.22-.06.04-.08.07-.15.1-.23.08-.27.08-.54.05-.81-.02-.17-.07-.33-.16-.48-.11-.18-.25-.3-.46-.34-.38-.08-.69.08-.85.43-.09.2-.11.42-.11.69Z"/>
      <path class="cls-1" d="M23.01,34.53c-.17.03-.32.02-.5,0,0-.06-.02-.11-.02-.17,0-1.24,0-2.49,0-3.73,0-.05,0-.09.01-.15.17-.05.33-.02.5-.02.05.27.01.53.03.78.01.24-.03.48.03.75.07-.06.11-.1.16-.14.38-.29.8-.31,1.23-.14.28.11.4.35.46.64.01.07.02.15.02.22,0,.59,0,1.19,0,1.78,0,.05,0,.11-.02.17-.17.03-.33.02-.5,0,0-.08-.02-.15-.02-.22,0-.46,0-.92,0-1.38,0-.12,0-.25-.02-.37-.06-.41-.4-.62-.79-.49-.27.08-.46.26-.52.54-.03.14-.04.28-.04.42,0,.45,0,.9,0,1.36,0,.04-.01.09-.02.14Z"/>
      <path class="cls-1" d="M36.95,32.77c.04-.18,0-.32-.03-.45-.03-.13-.11-.22-.24-.26-.13-.04-.27-.07-.42-.04-.19.04-.33.13-.4.31-.01.03-.03.07-.04.11h-.49c-.06-.06-.05-.12-.03-.17.04-.11.08-.21.14-.31.12-.18.31-.27.52-.32.29-.07.58-.06.87,0,.43.1.66.38.68.82,0,.13,0,.26,0,.4,0,.54,0,1.07,0,1.63-.04.01-.09.03-.14.03-.1,0-.21,0-.3,0-.11-.09-.06-.21-.1-.3-.06-.03-.08.02-.11.06-.34.43-1.06.41-1.45.14-.2-.14-.3-.33-.31-.57-.02-.46.18-.78.6-.95.22-.09.45-.13.69-.13.18,0,.36,0,.55-.01ZM36.96,33.19c-.3-.02-.58-.05-.85.04-.09.03-.18.07-.25.12-.28.2-.21.65.04.8.29.17.75.09.92-.22.13-.23.16-.47.14-.75Z"/>
      <path class="cls-1" d="M28.18,33.22c-.21.02-.42,0-.64,0-.22,0-.43,0-.65,0-.21,0-.43-.01-.65.01-.05.27,0,.5.15.71.12.19.31.28.53.28.36,0,.6-.12.68-.46,0-.03.02-.05.03-.07.21-.05.29-.05.54,0,0,.26-.12.47-.31.63-.1.09-.23.16-.36.21-.33.12-.66.14-1,.04-.26-.08-.48-.23-.61-.47-.06-.11-.12-.24-.16-.36-.11-.4-.11-.8,0-1.2.2-.67.73-.99,1.4-.92.04,0,.07,0,.11.02.49.08.8.36.92.84.07.24.07.48.02.74ZM26.25,32.82s.05.02.08.02c.4,0,.81,0,1.21,0,.03,0,.07-.02.09-.03,0-.51-.27-.81-.72-.8-.41.01-.7.36-.67.81Z"/>
      <path class="cls-1" d="M38.92,34.55c-.2.02-.35.04-.51-.01-.04-.25-.05-1.39-.03-2.6,0-.06.01-.13.02-.2.17-.03.32-.03.49,0,0,.1.02.19.03.28.06.03.08-.02.11-.06.41-.45,1.06-.37,1.41-.17.23.14.37.34.4.61,0,.04,0,.08,0,.11,0,.64,0,1.28,0,1.92,0,.03-.01.05-.02.09-.16.05-.33.04-.51,0,0-.1,0-.19,0-.28,0-.48,0-.96,0-1.44,0-.12-.02-.24-.05-.36-.05-.19-.17-.3-.36-.36-.43-.14-.9.14-.95.55-.02.13-.03.26-.04.39,0,.41,0,.81,0,1.22,0,.09,0,.19,0,.31Z"/>
      <path class="cls-1" d="M30.99,34.53c-.19.02-.35.03-.51,0-.01-.03-.03-.06-.03-.09,0-.87,0-1.73,0-2.6,0-.04.01-.07.02-.12.16-.04.32-.02.49-.01.01.11.02.2.03.28.08.02.11-.05.14-.08.42-.43,1.09-.33,1.44-.09.2.14.31.33.34.56.01.07.01.15.01.23,0,.57,0,1.13,0,1.7,0,.06,0,.13,0,.21-.17.06-.33.03-.51.02,0-.11-.01-.2-.01-.29,0-.46,0-.92,0-1.39,0-.13-.01-.26-.04-.39-.05-.24-.23-.39-.47-.42-.16-.02-.32,0-.47.07-.18.1-.32.24-.36.45-.03.14-.05.28-.05.42,0,.41,0,.83,0,1.24,0,.09,0,.19,0,.3Z"/>
      <path class="cls-1" d="M34.35,34.53h-.51c0-.06-.02-.12-.02-.17,0-1.23,0-2.46,0-3.7,0-.06,0-.11.01-.18.17-.05.34-.02.51-.02.01.07.03.13.03.18,0,1.24,0,2.48,0,3.73,0,.05,0,.09-.01.17Z"/>
      <path class="cls-1" d="M40.29,30.01c-.85,0-1.66-.68-1.65-1.68,0-.9.71-1.65,1.66-1.65,1.06,0,1.68.88,1.67,1.67-.01.93-.75,1.66-1.68,1.66ZM38.84,28.34c0,.81.63,1.46,1.44,1.47.82,0,1.48-.65,1.48-1.46,0-.8-.65-1.45-1.46-1.46-.81,0-1.46.64-1.46,1.45Z"/>
      <path class="cls-1" d="M29.49,34.53c-.07,0-.12.02-.18.02-.1,0-.21,0-.32,0-.01-.06-.03-.1-.03-.15,0-.85,0-1.69,0-2.54,0-.04.01-.09.02-.14.17-.03.33-.03.5,0,.01.04.03.09.03.13,0,.86,0,1.71,0,2.57,0,.03,0,.05-.02.11Z"/>
      <path class="cls-1" d="M11.37,29.88h-.53c-.07-.22-.02-.43-.03-.65.2-.04.37-.03.55-.01.07.11.04.22.04.33,0,.11.02.22-.03.33Z"/>
      <path class="cls-1" d="M29.55,31.18c-.22.02-.41.03-.6,0-.05-.22-.05-.3,0-.54.19-.05.38-.03.59-.01.06.18.03.35.02.56Z"/>
      <path class="cls-1" d="M11.82,29.88c-.01-.06-.02-.09-.03-.13,0-.17,0-.34,0-.51.19-.06.36-.03.55-.02.05.21.03.42.01.65-.18.04-.34.02-.54.01Z"/>
      <path class="cls-1" d="M19.45,41.7c-.05-.23-.05-.81,0-1.05.03,0,.07-.02.11-.02.23,0,.45,0,.68,0,.35,0,.52.28.51.52,0,.32-.2.55-.51.57-.21.01-.41,0-.62,0-.05,0-.11-.01-.16-.02Z"/>
      <path class="cls-1" d="M36.41,43.29c-.05-.26-.06-1.23-.04-2.42,0-.06.01-.13.02-.2.31-.03.61-.04.9.05.25.07.42.24.53.47.08.16.11.34.13.52.04.33,0,.66-.12.97-.13.33-.36.54-.72.6-.23.03-.47.04-.72.01Z"/>
      <path class="cls-1" d="M39.76,27.41c.24,0,.46,0,.69,0,.07,0,.15.02.22.04.35.1.39.48.21.7-.04.05-.08.1-.12.15.13.17.13.17.17.39.01.08.02.17.04.25.01.07.03.15.05.24-.08,0-.15.02-.22.02-.09-.13-.09-.28-.11-.42-.06-.35-.09-.39-.45-.39-.07,0-.15,0-.23.02-.05.26,0,.51-.03.77-.07,0-.14,0-.21.01-.01-.04-.03-.08-.03-.11-.03-.48,0-1.47.04-1.69ZM39.99,28.18c.2,0,.38.04.55-.03.17-.07.22-.29.09-.41-.04-.04-.11-.08-.17-.09-.15-.02-.31-.03-.49,0,0,.18-.03.34.01.53Z"/>
    </g>
  </g>
</svg>