<?xml version="1.0" encoding="UTF-8"?>
<svg id="Layer_2" data-name="Layer 2" xmlns="http://www.w3.org/2000/svg" viewBox="0 0 111.11 50.14">
  <defs>
    <style>
      .cls-1 {
        fill: #fff;
        stroke-width: 0px;
      }
    </style>
  </defs>
  <g id="Layer_1-2" data-name="Layer 1">
    <g>
      <path class="cls-1" d="M60.35,40.57c0-2.89,0-5.78,0-8.66,0-.58-.02-.55.56-.55,1.11,0,2.23,0,3.34,0,.74,0,1.48.01,2.21.16,1.91.38,3.13,1.52,3.71,3.36.24.77.34,1.57.34,2.37.01,2.22.02,4.43,0,6.65,0,.96-.13,1.9-.48,2.8-.66,1.69-1.91,2.66-3.68,2.97-.48.08-.98.11-1.47.12-1.37.02-2.75,0-4.12,0-.07,0-.14,0-.21,0-.16,0-.22-.08-.22-.22,0-.09,0-.18,0-.27,0-2.91,0-5.82,0-8.72ZM63.57,46.45c.07.02.12.05.18.05.45,0,.9.02,1.35-.01.9-.07,1.49-.56,1.81-1.4.18-.48.28-.99.28-1.5.01-2.12.01-4.25,0-6.37,0-.55-.12-1.1-.35-1.6-.3-.65-.8-1.1-1.52-1.18-.55-.06-1.12-.03-1.68-.03-.02,0-.03.02-.07.04v12.01Z"/>
      <path class="cls-1" d="M12.63,42.07c-.14,0-.25,0-.36,0-.41,0-.82,0-1.23,0-.29,0-.31-.02-.32-.3v-.03c0-.78,0-1.56,0-2.35,0-.32.02-.34.35-.34,1.53,0,3.07,0,4.6,0,.31,0,.32.01.32.32,0,1.68.01,3.37,0,5.05,0,.98-.12,1.96-.46,2.9-.54,1.47-1.59,2.32-3.1,2.63-.89.18-1.79.23-2.69.07-2-.34-3.3-1.5-3.94-3.41-.25-.76-.35-1.54-.36-2.34,0-2.41-.01-4.81,0-7.22,0-1.07.16-2.12.58-3.11.62-1.46,1.7-2.38,3.24-2.75,1.21-.29,2.43-.27,3.62.09,1.53.47,2.46,1.53,2.85,3.07.11.45.17.93.2,1.39.04.47.02.94.02,1.41,0,.22-.04.26-.24.26-.94,0-1.89,0-2.83,0-.2,0-.23-.03-.23-.26-.02-.46-.03-.92-.06-1.38-.02-.2-.07-.39-.14-.58-.2-.57-.62-.91-1.21-1-.36-.06-.72-.05-1.07.05-.45.13-.77.42-.99.82-.28.52-.39,1.1-.41,1.68-.03,1.12-.03,2.25-.04,3.37,0,1.18,0,2.37,0,3.55,0,.55,0,1.11.16,1.64.09.3.21.61.38.88.29.46.74.7,1.28.73.24.01.48.02.72-.02.62-.1,1.03-.48,1.19-1.09.1-.36.16-.73.17-1.09.03-.8.01-1.6.01-2.41,0-.07-.02-.14-.03-.25Z"/>
      <path class="cls-1" d="M83.76,40.6c0-1.1-.01-2.21,0-3.31,0-.73.06-1.46.23-2.18.15-.63.36-1.23.69-1.79.59-.99,1.43-1.66,2.53-2,1.15-.35,2.31-.38,3.47-.07,1.45.38,2.47,1.28,3.08,2.65.32.71.5,1.46.55,2.24.03.47.05.94.05,1.41,0,2.2,0,4.39,0,6.59,0,.94-.12,1.86-.43,2.75-.6,1.74-1.8,2.78-3.62,3.09-.99.17-1.98.15-2.95-.1-1.63-.42-2.67-1.48-3.19-3.06-.22-.66-.35-1.34-.37-2.03-.03-1.39-.05-2.79-.07-4.18h.02ZM87.15,40.61h0c0,1.03,0,2.07,0,3.1,0,.42.03.84.07,1.26.04.43.16.85.38,1.22.21.35.5.59.9.71.39.11.79.12,1.19,0,.51-.15.84-.5,1.04-.97.24-.57.32-1.18.32-1.79,0-2.34,0-4.67,0-7.01,0-.31-.03-.62-.07-.93-.05-.38-.14-.75-.32-1.09-.49-.96-1.86-1.23-2.69-.54-.28.23-.45.54-.56.87-.17.51-.25,1.03-.25,1.57,0,1.2,0,2.41,0,3.61Z"/>
      <path class="cls-1" d="M82.39,40.57c0,1.22.01,2.45,0,3.67-.01.82-.12,1.64-.36,2.43-.17.56-.41,1.09-.76,1.56-.62.86-1.46,1.4-2.48,1.65-1.15.28-2.3.28-3.45-.02-1.54-.4-2.54-1.39-3.08-2.87-.26-.7-.4-1.43-.43-2.17-.03-.62-.04-1.24-.05-1.86,0-1.92,0-3.83,0-5.75,0-.8.08-1.6.29-2.38.13-.5.31-.97.57-1.42.62-1.08,1.52-1.8,2.72-2.13,1.1-.31,2.22-.33,3.33-.04,1.66.44,2.71,1.52,3.27,3.12.29.82.41,1.67.42,2.54.02,1.22,0,2.45,0,3.67ZM75.17,40.6h0c0,1.06,0,2.13,0,3.19,0,.05,0,.1,0,.15.02.36.03.72.07,1.08.05.41.16.81.37,1.17.22.37.53.63.95.73.98.22,1.89-.07,2.26-1.2.02-.07.05-.13.06-.2.06-.46.17-.91.17-1.37.02-2.37.01-4.73,0-7.1,0-.56-.08-1.12-.27-1.65-.36-1-1.12-1.31-2.07-1.16-.62.09-1.01.49-1.24,1.06-.2.51-.3,1.04-.3,1.58,0,1.24,0,2.49,0,3.73Z"/>
      <path class="cls-1" d="M103.78,40.53c.07.05.09.08.11.09.79.38,1.18,1.05,1.38,1.87.13.54.17,1.09.17,1.64,0,1.75,0,3.49,0,5.24,0,.04,0,.08,0,.12-.01.22-.04.26-.27.26-.48,0-.96,0-1.44,0-.39,0-.78,0-1.17,0-.32,0-.33-.02-.33-.35,0-1.38,0-2.77,0-4.15,0-.59-.02-1.18-.04-1.77,0-.16-.05-.32-.09-.47-.17-.57-.59-.86-1.15-.91-.6-.05-1.2-.03-1.8-.04-.05,0-.1.02-.18.04,0,.13-.02.25-.02.38,0,2.29,0,4.57,0,6.86q0,.45-.45.45c-.77,0-1.54,0-2.32,0-.36,0-.37-.01-.37-.37,0-2.8,0-5.6,0-8.4v-9.06c0-.08,0-.16,0-.24,0-.31.02-.34.32-.34,1.96,0,3.91-.03,5.87.01,1.57.03,2.6.91,3.27,2.27.24.5.38,1.04.38,1.6,0,.78.01,1.56-.01,2.35-.02.49-.14.97-.34,1.42-.27.59-.68,1.03-1.25,1.34-.08.04-.15.09-.25.15ZM98.93,39.04c.11,0,.21.02.3.02.61,0,1.22,0,1.83,0,.75,0,1.28-.46,1.35-1.21.05-.53.03-1.06.03-1.59,0-.25,0-.5-.04-.75-.09-.63-.63-1.16-1.3-1.14-.64.02-1.28,0-1.92,0-.09,0-.17.01-.25.02-.07.26-.08,4.29,0,4.65Z"/>
      <path class="cls-1" d="M57.53,37.44c-.44,0-.88,0-1.32,0-.27,0-.31-.04-.31-.32,0-.46.01-.92-.01-1.38-.03-.64-.32-1.13-.91-1.42-.84-.41-2.2-.08-2.32,1.39-.06.71.19,1.31.68,1.8.37.37.78.69,1.19,1.01.62.48,1.27.92,1.87,1.42.44.36.86.75,1.24,1.18,1.03,1.17,1.44,2.56,1.42,4.11,0,.61-.07,1.22-.25,1.81-.45,1.45-1.4,2.41-2.86,2.84-1.21.35-2.44.35-3.65,0-1.4-.41-2.3-1.34-2.73-2.72-.17-.54-.25-1.09-.25-1.66,0-.57,0-1.14,0-1.72,0-.31.02-.33.32-.33.86,0,1.73,0,2.59,0,.3,0,.32.02.32.33,0,.44,0,.88,0,1.32,0,.31.05.62.18.91.26.59.87,1.06,1.74.94.7-.1,1.18-.56,1.3-1.3.14-.84-.06-1.6-.64-2.23-.27-.3-.59-.57-.91-.82-.72-.56-1.46-1.09-2.18-1.65-.6-.47-1.14-1.01-1.58-1.64-.58-.84-.89-1.76-.97-2.77-.07-.86,0-1.7.27-2.52.48-1.47,1.47-2.41,2.97-2.79,1.1-.28,2.21-.28,3.3.04,1.71.5,2.67,1.68,3.01,3.41.17.84.11,1.7.11,2.55,0,.19-.05.23-.26.23-.45,0-.9,0-1.35,0Z"/>
      <path class="cls-1" d="M46.77,37.44c-.43,0-.86,0-1.29,0-.3,0-.32-.02-.33-.33-.01-.48,0-.96-.03-1.44-.09-1.06-1-1.7-2.03-1.46-.69.16-1.15.77-1.2,1.55-.04.68.19,1.25.66,1.72.38.38.8.72,1.23,1.06.72.56,1.46,1.09,2.17,1.66.68.55,1.24,1.2,1.66,1.97.49.92.7,1.91.69,2.95,0,.54-.03,1.08-.16,1.61-.42,1.69-1.47,2.78-3.16,3.2-1.13.28-2.27.28-3.39-.05-1.64-.47-2.56-1.61-2.89-3.25-.08-.41-.11-.83-.13-1.25-.02-.55,0-1.1,0-1.66,0-.25.03-.28.28-.28.89,0,1.79,0,2.68,0,.24,0,.27.04.28.29,0,.43-.01.86,0,1.29.01.27.03.55.11.8.38,1.12,1.48,1.4,2.39.91.52-.28.71-.77.75-1.33.06-.81-.18-1.53-.77-2.11-.34-.33-.7-.63-1.08-.91-.7-.54-1.41-1.06-2.11-1.6-.53-.42-.99-.9-1.38-1.46-.6-.87-.94-1.83-.99-2.89-.04-.87.01-1.72.31-2.55.48-1.35,1.41-2.25,2.79-2.64,1.17-.33,2.36-.33,3.53.03,1.52.46,2.45,1.5,2.85,3.03.13.49.19.98.19,1.49,0,.45,0,.9,0,1.35,0,.27-.03.29-.29.3-.44,0-.88,0-1.32,0Z"/>
      <path class="cls-1" d="M38.23,49.77c-.14,0-.25.02-.36.02-.81,0-1.62,0-2.44,0q-.36,0-.43-.35c-.18-.91-.36-1.83-.54-2.74-.02-.09-.04-.17-.07-.26h-3.77c-.04.14-.08.27-.1.4-.17.85-.33,1.71-.5,2.57-.01.06-.03.12-.04.18-.02.16-.11.21-.27.21-.9,0-1.81,0-2.71,0-.06,0-.11-.02-.21-.04.01-.14.01-.26.04-.39.6-2.68,1.2-5.35,1.81-8.03.71-3.18,1.43-6.35,2.14-9.53l.02-.09c.08-.33.08-.33.42-.34.87,0,1.75,0,2.62,0,.32,0,.32.01.39.33,1.07,4.77,2.13,9.54,3.2,14.31.25,1.11.5,2.23.75,3.34.03.12.03.25.05.41ZM33.77,43.38c-.02-.14-.04-.27-.06-.4-.21-1.08-.42-2.16-.64-3.24-.16-.8-.32-1.61-.48-2.41-.01-.06-.05-.12-.1-.22-.15.37-1.26,6.06-1.23,6.28.25.07,2.21.08,2.51,0Z"/>
      <path class="cls-1" d="M20.75,46.51h.41c1.35,0,2.71,0,4.06,0,.07,0,.14,0,.21,0,.3,0,.31.02.31.3,0,.61,0,1.22,0,1.84,0,.3,0,.6,0,.9,0,.2-.03.22-.22.24-.06,0-.12,0-.18,0-2.49,0-4.97,0-7.46,0-.06,0-.12,0-.18,0-.2-.01-.22-.03-.24-.23,0-.09,0-.18,0-.27,0-5.81,0-11.61,0-17.42,0-.49-.05-.5.49-.49.79,0,1.58,0,2.38,0,.37,0,.38.01.38.39,0,3.84,0,7.68,0,11.52,0,.92,0,1.85,0,2.77,0,.14.02.27.04.45Z"/>
      <path class="cls-1" d="M106.89,31.4c.8-.05,1.58.01,2.34-.04.11-.55-.15-1.13-.62-1.42-.32-.2-.68-.28-1.05-.32-.26-.03-.26-.03-.26-.29,0-.37,0-.74,0-1.11,0-.07.01-.14.02-.2.24-.09.45,0,.66.02.68.08,1.33.28,1.91.68.65.45,1.02,1.09,1.16,1.86.05.26.06.54.06.81,0,1.27,0,2.55,0,3.82v.31c-.27.08-3.93.09-4.22.01v-4.12Z"/>
      <path class="cls-1" d="M.43,38.93c0-.5,0-.97,0-1.44,0-.15.11-.17.23-.19.23-.04.46-.07.67-.14.64-.2.99-.65,1.06-1.32.03-.26,0-.3-.27-.31-.57,0-1.14,0-1.71,0-.41,0-.41,0-.41-.42,0-1.11,0-2.22,0-3.34,0-.06,0-.12,0-.18,0-.15.06-.23.22-.22.07,0,.14,0,.21,0,1.12,0,2.25,0,3.37,0,.08,0,.16,0,.24,0,.12,0,.18.07.18.19,0,.07,0,.14,0,.21,0,1.26,0,2.53,0,3.79,0,.39-.03.78-.15,1.16-.22.72-.66,1.27-1.32,1.65-.64.36-1.34.51-2.07.57-.07,0-.14,0-.26-.02Z"/>
      <rect class="cls-1" x="22.68" y="6.94" width="10.19" height="9.2"/>
      <path class="cls-1" d="M23.67.04s8.88-.99,9.2,6.9l-.99,2.63-3.62-2.36s-.66-3.89-4.6-3.56V.04Z"/>
      <rect class="cls-1" x="10.85" y="6.9" width="10.19" height="9.2"/>
      <path class="cls-1" d="M11.83,23.01s8.88.99,9.2-6.9l-.99-2.63-3.62,2.36s-.66,3.89-4.6,3.56v3.62Z"/>
      <path class="cls-1" d="M97.98,2.67h-13.52c-1.26,0-2.28,1.02-2.28,2.28v13.52c0,1.26,1.02,2.28,2.28,2.28h13.52c1.26,0,2.28-1.02,2.28-2.28V4.95c0-1.26-1.02-2.28-2.28-2.28ZM97.83,11.35c-.75.64-1.5,1.28-2.26,1.91-.26.22-.35.46-.26.8.25.96.48,1.93.71,2.89.12.51-.05.99-.47,1.3-.42.3-.93.32-1.38.05-.94-.58-1.88-1.16-2.82-1.75-.09-.06-.16-.07-.26,0-.94.59-1.88,1.17-2.82,1.75-.7.43-1.61.09-1.84-.69-.07-.23-.06-.46,0-.7.24-.97.47-1.94.71-2.9.07-.29,0-.52-.23-.71-.77-.64-1.53-1.29-2.29-1.93-.7-.59-.6-1.65.2-2.06.27-.14.57-.14.86-.16.89-.07,1.78-.14,2.68-.2.28-.02.47-.16.57-.42.38-.94.76-1.88,1.15-2.82.3-.73,1.17-1,1.82-.57.22.14.37.33.46.57.38.93.76,1.86,1.14,2.79.11.28.31.43.62.45.87.06,1.74.13,2.62.19.19.01.39.02.58.06.58.12.98.62.97,1.22,0,.38-.16.7-.45.94Z"/>
      <path class="cls-1" d="M63.29,2.53v2.57h8.4l-7.88,15.31h3.12l8.64-17.09v-.79h-12.27ZM56.68,18.62c0,1.19.95,2.09,2.14,2.09s2.09-.89,2.09-2.09-.89-2.11-2.09-2.11-2.14.92-2.14,2.11ZM53.97,14.83h-2.44v-5.5h-2.87v5.5h-5.34l5.07-12.3h-2.95l-5.72,13.98v.79h8.94v3.12h2.87v-3.12h2.44v-2.47Z"/>
    </g>
  </g>
</svg>