<?xml version="1.0" encoding="UTF-8"?>
<svg id="Layer_2" data-name="Layer 2" xmlns="http://www.w3.org/2000/svg" xmlns:xlink="http://www.w3.org/1999/xlink" viewBox="0 0 36.54 56.11">
  <defs>
    <style>
      .cls-1 {
        clip-path: url(#clippath);
      }

      .cls-2 {
        fill: none;
      }

      .cls-2, .cls-3 {
        stroke-width: 0px;
      }

      .cls-4 {
        font-family: nevis-Bold, nevis;
        font-size: 3.95px;
      }

      .cls-4, .cls-5 {
        font-weight: 700;
      }

      .cls-4, .cls-5, .cls-3 {
        fill: #fff;
      }

      .cls-6 {
        clip-path: url(#clippath-1);
      }

      .cls-7 {
        clip-path: url(#clippath-4);
      }

      .cls-8 {
        clip-path: url(#clippath-3);
      }

      .cls-9 {
        clip-path: url(#clippath-2);
      }

      .cls-10 {
        clip-path: url(#clippath-7);
      }

      .cls-11 {
        clip-path: url(#clippath-8);
      }

      .cls-12 {
        clip-path: url(#clippath-6);
      }

      .cls-13 {
        clip-path: url(#clippath-5);
      }

      .cls-14 {
        clip-path: url(#clippath-9);
      }

      .cls-5 {
        font-family: CenturyGothic-Bold, 'Century Gothic';
        font-size: 2.63px;
      }
    </style>
    <clipPath id="clippath">
      <path class="cls-2" d="M8.02,17.24c-3.21,2.05-4.59,4.18-4.6,4.2,1.99-1.96,3.75-2.59,5.82-3.64,2.07-1.05,6.9-3.14,6.75-7.34-.15-4.21-5.41-5.94-5.41-5.94,8.16,4.53.66,10.67-2.56,12.73"/>
    </clipPath>
    <clipPath id="clippath-1">
      <path class="cls-2" d="M17.29,11.04c.34,2.99-5.23,6.02-7.19,6.87-1.97.84-4.49,2.32-4.49,2.32,2.39-1.15,5-2.13,6.78-2.84,1.77-.7,8.95-2.42,7.64-6.53-1.11-3.5-7.51-6.09-9.38-6.78,3.39,1.29,6.31,4.11,6.64,6.95M10.66,4.09c-.17-.06-.34-.13-.51-.18,0,0,.19.06.51.18"/>
    </clipPath>
    <clipPath id="clippath-2">
      <path class="cls-2" d="M10.96,9.3c-.3,3.54-4.81,8.79-4.84,8.82.03-.02,5.69-3.98,6.59-7.89.06-.25.09-.49.11-.73v-.66c-.23-3.1-3.72-4.99-5.42-5.8,0,0,3.86,2.71,3.56,6.26"/>
    </clipPath>
    <clipPath id="clippath-3">
      <path class="cls-2" d="M6.56,16.61s4.51-5.17,2.94-9.93C7.94,1.94.53.02.46,0c.08.03,13.24,4.51,6.09,16.61"/>
    </clipPath>
    <clipPath id="clippath-4">
      <path class="cls-2" d="M7.76,12.36S9.55,5.29,1.88,1.93c.04.02,6.08,3.38,5.88,10.43"/>
    </clipPath>
    <clipPath id="clippath-5">
      <path class="cls-2" d="M11.41,19.61c-2.07,1.05-6.9,3.14-6.75,7.34.16,4.21,5.41,5.94,5.41,5.94-8.16-4.53-.66-10.67,2.56-12.72,3.2-2.04,4.58-4.17,4.6-4.2-1.99,1.96-3.75,2.59-5.82,3.64"/>
    </clipPath>
    <clipPath id="clippath-6">
      <path class="cls-2" d="M10.51,33.5h0,0ZM10.51,33.5h0s0,0,0,0ZM10.51,33.5s0,0,0,0c0,0,0,0,0,0M10.5,33.5s-.22-.08-.5-.18c.17.06.33.12.5.18M8.27,20.02c-1.77.71-8.95,2.42-7.65,6.53,1.11,3.5,7.5,6.08,9.37,6.77-3.39-1.29-6.31-4.11-6.63-6.95-.34-2.99,5.23-6.02,7.19-6.87,1.95-.84,4.45-2.3,4.49-2.32-2.39,1.15-5,2.13-6.78,2.84"/>
    </clipPath>
    <clipPath id="clippath-7">
      <path class="cls-2" d="M7.94,27.19c-.9,3.92,3.37,6.26,5.31,7.19,0,0-3.86-2.71-3.56-6.26.3-3.54,4.81-8.78,4.84-8.82-.04.03-5.69,3.98-6.59,7.89"/>
    </clipPath>
    <clipPath id="clippath-8">
      <path class="cls-2" d="M11.93,24.21c-.88,1.86-1.53,4.24-.77,6.52,1.57,4.76,9.04,6.68,9.04,6.68,0,0-13.26-4.47-6.09-16.61,0,0-1.22,1.4-2.17,3.41"/>
    </clipPath>
    <clipPath id="clippath-9">
      <path class="cls-2" d="M18.78,35.48c-.05-.03-6.08-3.39-5.88-10.44,0,0-1.79,7.07,5.88,10.44"/>
    </clipPath>
  </defs>
  <g id="Layer_1-2" data-name="Layer 1">
    <g>
      <path class="cls-3" d="M1.2,38.32v-.46h-.26v-.74h.68v.74h-.25v.46h1.19v-.46h-.31v-1.78h.31v-.46h-1.19v.46h.25v.59h-.68v-.59h.26v-.46H0v.46h.31v1.78H0v.46h1.2ZM4.95,37.87l-.4-.81c.29-.14.43-.36.43-.67,0-.2-.06-.37-.19-.52-.12-.15-.33-.23-.61-.23h-1.5v.46h.34v1.78h-.34v.46h1.3v-.46h-.31v-.73h.29l.56,1.18h.76v-.46h-.32ZM3.67,36.08h.28c.11,0,.2.03.26.08.06.05.09.13.09.23,0,.21-.14.32-.41.32h-.22v-.63ZM8.3,37.87l-.52-1.78h.34v-.46h-1.63v.46h.33l-.48,1.78h-.31v.46h1.1v-.46h-.33l.13-.46h.64l.12.46h-.32v.46h1.22v-.46h-.3ZM7.04,37.01l.22-.81.21.81h-.43ZM9.14,38.32v-.09c.08.09.22.14.42.14.22,0,.39-.06.52-.18.12-.12.18-.27.18-.45,0-.13-.03-.24-.1-.33-.06-.09-.15-.16-.25-.2-.11-.04-.27-.08-.48-.12-.13-.03-.22-.05-.25-.07-.03-.02-.05-.05-.05-.08,0-.1.08-.14.24-.14.22,0,.34.07.38.2h.4v-.55h-.4v.06c-.14-.06-.28-.09-.44-.09-.19,0-.35.05-.46.16-.12.11-.17.24-.17.39,0,.17.06.3.19.4.12.1.33.17.61.22.14.02.23.05.27.08.05.03.07.07.07.11,0,.05-.02.1-.07.13-.05.04-.12.05-.21.05-.11,0-.19-.03-.27-.08-.07-.05-.11-.12-.11-.21h-.4v.65h.4ZM10.66,36.14c.06.06.13.1.21.1s.15-.03.21-.1c.06-.06.09-.14.09-.23s-.03-.17-.09-.23c-.06-.06-.13-.1-.21-.1s-.16.03-.21.1c-.06.06-.09.14-.09.23s.03.16.09.23M10.59,36.88v1.01h-.26v.43h1.07v-.43h-.26v-1.44h-.82v.43h.26ZM13.09,37.89v-.68c0-.17,0-.3-.03-.37-.02-.08-.06-.15-.11-.21-.05-.06-.14-.12-.24-.16-.11-.04-.25-.06-.42-.06-.43,0-.71.15-.84.44l.45.09c.09-.1.19-.15.32-.15.1,0,.18.03.24.09.06.06.09.14.09.24v.11c-.15-.07-.28-.1-.4-.1-.21,0-.38.06-.51.18-.13.12-.2.27-.2.45s.06.32.19.43c.12.11.27.16.44.16s.32-.06.47-.18v.15h.83v-.43h-.28ZM12.54,37.78c-.13.13-.24.2-.35.2-.07,0-.12-.03-.16-.07-.04-.05-.06-.11-.06-.18,0-.08.03-.13.08-.17.05-.04.11-.06.17-.06.08,0,.19.04.32.14v.15Z"/>
      <rect class="cls-3" y="39.97" width="36.49" height=".23"/>
      <rect class="cls-3" y="45.47" width="36.49" height=".23"/>
      <rect class="cls-3" y="50.89" width="36.49" height=".23"/>
      <polygon class="cls-3" points="2.53 46.87 2.53 47.39 1.59 47.39 1.59 49.69 1.03 49.69 1.03 47.39 .09 47.39 .09 46.87 2.53 46.87"/>
      <path class="cls-3" d="M4.14,49.16c.25,0,.45-.08.61-.26.16-.17.24-.38.24-.63s-.08-.46-.24-.63c-.16-.17-.36-.25-.61-.25s-.45.08-.61.25c-.16.17-.23.38-.23.63s.08.46.23.63c.16.17.36.26.61.26M3.13,49.28c-.27-.27-.4-.6-.4-1s.14-.74.4-1.01c.27-.27.6-.4,1-.4s.74.13,1,.4c.27.27.4.6.4,1.01s-.13.74-.4,1c-.27.27-.6.4-1,.4s-.74-.14-1-.41"/>
      <polygon class="cls-3" points="8.84 47.62 8.28 49.69 7.72 49.69 6.96 46.87 7.56 46.87 8.05 48.78 8.56 46.87 9.14 46.87 9.63 48.78 10.12 46.87 10.72 46.87 9.97 49.69 9.41 49.69 8.84 47.62"/>
      <path class="cls-3" d="M12.33,49.16c.25,0,.45-.08.61-.26.16-.17.23-.38.23-.63s-.08-.46-.23-.63c-.16-.17-.36-.25-.61-.25s-.45.08-.61.25c-.16.17-.23.38-.23.63s.08.46.23.63c.16.17.36.26.61.26M11.33,49.28c-.27-.27-.4-.6-.4-1s.13-.74.4-1.01c.27-.27.6-.4,1.01-.4s.74.13,1.01.4c.27.27.4.6.4,1.01s-.14.74-.4,1c-.27.27-.6.4-1.01.4s-.74-.14-1.01-.41"/>
      <path class="cls-3" d="M14.64,47.99h.79c.23,0,.34-.11.35-.31,0-.18-.12-.28-.34-.29h-.79v.6ZM15.78,48.46l.7,1.23h-.65l-.67-1.16h-.51v1.16h-.56v-2.82h1.23c.66,0,.99.27.99.81,0,.41-.17.67-.52.78"/>
      <polygon class="cls-3" points="16.7 46.87 17.27 46.87 17.27 48 18.21 46.87 18.84 46.87 17.74 48.18 19.07 49.69 18.34 49.69 17.27 48.47 17.27 49.69 16.7 49.69 16.7 46.87"/>
      <polygon class="cls-3" points="20.57 49.69 20.57 46.87 22.55 46.87 22.55 47.39 21.14 47.39 21.14 48 22.18 48 22.18 48.52 21.14 48.52 21.14 49.69 20.57 49.69"/>
      <path class="cls-3" d="M24.15,49.16c.25,0,.45-.08.61-.26.16-.17.23-.38.23-.63s-.08-.46-.23-.63c-.16-.17-.36-.25-.61-.25s-.45.08-.61.25c-.16.17-.23.38-.23.63s.08.46.23.63c.16.17.36.26.61.26M23.15,49.28c-.27-.27-.4-.6-.4-1s.13-.74.4-1.01c.27-.27.6-.4,1.01-.4s.73.13,1,.4c.27.27.4.6.4,1.01s-.13.74-.4,1c-.27.27-.6.4-1,.4s-.74-.14-1.01-.41"/>
      <path class="cls-3" d="M26.47,47.99h.79c.23,0,.34-.11.35-.31,0-.18-.12-.28-.34-.29h-.79v.6ZM27.6,48.46l.7,1.23h-.65l-.67-1.16h-.51v1.16h-.56v-2.82h1.23c.66,0,.99.27.99.81,0,.41-.17.67-.52.78"/>
      <rect class="cls-3" x=".23" y="52.46" width=".56" height="2.82"/>
      <polygon class="cls-3" points="1.28 55.28 1.28 52.46 1.47 52.46 3.24 54.23 3.24 52.46 3.8 52.46 3.8 55.28 3.59 55.28 1.85 53.54 1.85 55.28 1.28 55.28"/>
      <path class="cls-3" d="M6.83,53.22l-.43,1.07h.84l-.42-1.07ZM5.4,55.28l1.13-2.82h.56l1.13,2.82h-.6s-.17-.43-.17-.43h-1.28l-.17.43h-.6Z"/>
      <path class="cls-3" d="M10.09,52.56c.14.06.28.16.4.28l-.38.38c-.13-.15-.3-.23-.53-.23s-.37.05-.43.16c-.06.11-.06.2,0,.27.06.07.21.13.43.17.24.03.45.1.65.24.19.13.29.34.29.63,0,.23-.1.42-.31.58-.21.16-.45.24-.72.24-.26,0-.48-.04-.66-.11-.18-.08-.33-.18-.45-.3l.37-.38c.13.15.34.24.64.26.25,0,.41-.05.47-.16.06-.11.06-.21,0-.32-.06-.11-.22-.17-.47-.2-.23-.03-.43-.09-.62-.21-.19-.11-.28-.31-.28-.58,0-.25.11-.45.32-.6.21-.15.43-.23.66-.23.26,0,.46.03.61.09"/>
      <rect class="cls-3" x="10.96" y="52.46" width=".56" height="2.82"/>
      <path class="cls-3" d="M13.29,53.22l-.43,1.07h.85l-.42-1.07ZM11.86,55.28l1.13-2.82h.56l1.13,2.82h-.6s-.17-.43-.17-.43h-1.28l-.17.43h-.6Z"/>
      <path class="cls-3" d="M.66,43.68h.93c.27,0,.4-.14.41-.41,0-.18-.14-.28-.4-.28h-.94v.7ZM.66,42.42h.8c.23,0,.35-.12.35-.35,0-.14-.12-.21-.35-.22h-.8v.58ZM2.15,42.62c.25.17.38.38.4.65-.03.54-.31.82-.86.85H.09v-2.85h1.51c.48.03.73.31.76.84,0,.25-.08.42-.2.51"/>
      <polygon class="cls-3" points="3.11 44.12 3.11 41.28 5.2 41.27 5.2 41.8 3.68 41.8 3.68 42.41 4.82 42.41 4.82 42.94 3.68 42.94 3.68 43.59 5.2 43.59 5.2 44.12 3.11 44.12"/>
      <path class="cls-3" d="M7.32,41.37c.15.06.28.16.41.28l-.38.38c-.13-.15-.3-.23-.53-.23s-.37.05-.44.16c-.06.11-.06.2,0,.28.06.08.21.13.44.17.24.03.46.1.66.24.2.13.29.35.29.64,0,.23-.1.42-.31.59-.21.16-.45.25-.73.25-.26,0-.49-.04-.66-.11-.18-.08-.33-.18-.46-.3l.38-.38c.13.15.34.24.65.27.25,0,.41-.05.47-.16.06-.11.06-.22,0-.32-.06-.11-.22-.17-.47-.2-.23-.02-.44-.1-.63-.21-.19-.11-.29-.31-.29-.59,0-.25.11-.45.32-.61.22-.15.44-.23.67-.23.26,0,.47.03.61.09"/>
      <polygon class="cls-3" points="10.6 41.27 10.6 41.81 9.65 41.81 9.65 44.12 9.08 44.12 9.08 41.81 8.13 41.81 8.13 41.27 10.6 41.27"/>
      <path class="cls-3" d="M12.62,43.71c-.27-.27-.41-.61-.41-1.02,0-.4.14-.74.41-1.01.27-.27.61-.41,1.01-.41s.76.13,1.05.38l-.38.42c-.19-.15-.42-.23-.67-.23-.26,0-.46.08-.62.24-.16.16-.23.36-.23.61,0,.26.08.47.24.63.16.16.36.23.62.23s.48-.08.66-.23l.38.42c-.29.25-.64.38-1.05.38-.4,0-.74-.14-1.01-.41"/>
      <path class="cls-3" d="M16.57,43.59c.25,0,.46-.09.62-.26.16-.17.24-.38.24-.64s-.08-.47-.24-.64c-.16-.17-.36-.26-.62-.26s-.46.08-.61.26c-.16.17-.24.38-.24.64s.08.46.24.64c.16.17.36.26.62.26M15.56,43.71c-.27-.27-.41-.61-.41-1.01s.14-.74.41-1.02c.27-.27.61-.41,1.01-.41s.74.14,1.02.41c.27.27.41.61.41,1.02s-.14.74-.41,1.02c-.27.27-.61.41-1.02.41s-.74-.14-1.01-.41"/>
      <polygon class="cls-3" points="18.42 44.12 18.42 41.27 18.61 41.27 19.84 42.68 21.08 41.27 21.27 41.27 21.27 44.12 20.7 44.12 20.7 42.47 19.84 43.42 18.99 42.47 18.99 44.12 18.42 44.12"/>
      <path class="cls-3" d="M22.41,42.41h.8c.23,0,.35-.11.35-.31,0-.19-.12-.28-.35-.29h-.8v.6ZM21.84,44.12v-2.85h1.24c.66,0,1,.27,1,.82s-.33.85-.99.85h-.67v1.18h-.57Z"/>
      <path class="cls-3" d="M25.78,42.03l-.43,1.08h.86l-.42-1.08ZM24.34,44.12l1.14-2.85h.57l1.14,2.85h-.61s-.17-.43-.17-.43h-1.29l-.17.44h-.61Z"/>
      <polygon class="cls-3" points="27.62 44.12 27.62 41.27 27.81 41.27 29.59 43.06 29.59 41.27 30.16 41.27 30.16 44.12 29.95 44.12 28.19 42.36 28.19 44.12 27.62 44.12"/>
      <rect class="cls-3" x="30.75" y="41.27" width=".57" height="2.85"/>
      <polygon class="cls-3" points="31.88 44.12 31.88 41.28 33.98 41.27 33.98 41.8 32.45 41.8 32.45 42.41 33.59 42.41 33.59 42.94 32.45 42.94 32.45 43.59 33.97 43.59 33.97 44.12 31.88 44.12"/>
      <path class="cls-3" d="M36.09,41.37c.15.06.28.16.41.28l-.38.38c-.13-.15-.3-.23-.53-.23s-.37.05-.44.16c-.06.11-.06.2,0,.28.06.08.21.13.44.17.24.03.46.1.65.24.2.13.29.35.29.64,0,.23-.1.42-.31.59-.21.16-.45.25-.73.25-.26,0-.48-.04-.66-.11-.18-.08-.33-.18-.46-.3l.38-.38c.13.15.34.24.65.27.25,0,.41-.05.47-.16.06-.11.06-.22,0-.32-.06-.11-.22-.17-.47-.2-.23-.02-.44-.1-.63-.21-.19-.11-.28-.31-.28-.59,0-.25.11-.45.32-.61.22-.15.44-.23.67-.23.26,0,.47.03.62.09"/>
      <text class="cls-4" transform="translate(15.74 55.28)"><tspan x="0" y="0">2024</tspan></text>
      <text class="cls-5" transform="translate(20.09 37.15)"><tspan x="0" y="0">®</tspan></text>
      <g class="cls-1">
        <rect class="cls-3" x=".29" y="1.88" width="21.58" height="22.21" transform="translate(-4.88 6.94) rotate(-28.8)"/>
      </g>
      <g class="cls-6">
        <rect class="cls-3" x="2.65" y="1.13" width="21.64" height="21.88" transform="translate(-4.15 7.98) rotate(-28.8)"/>
      </g>
      <g class="cls-9">
        <rect class="cls-3" x="2.91" y="2.35" width="13.13" height="16.44" transform="translate(-3.92 5.87) rotate(-28.8)"/>
      </g>
      <g class="cls-8">
        <rect class="cls-3" x="-2.72" y="-2.16" width="19.6" height="20.93" transform="translate(-3.13 4.44) rotate(-28.8)"/>
      </g>
      <g class="cls-7">
        <rect class="cls-3" x="-.16" y=".72" width="11.75" height="12.84" transform="translate(-2.73 3.64) rotate(-28.8)"/>
      </g>
      <g class="cls-13">
        <rect class="cls-3" x="-1.22" y="13.32" width="21.58" height="22.21" transform="translate(-10.58 7.63) rotate(-28.8)"/>
      </g>
      <g class="cls-12">
        <rect class="cls-3" x="-3.64" y="14.4" width="21.64" height="21.88" transform="translate(-11.32 6.59) rotate(-28.8)"/>
      </g>
      <g class="cls-10">
        <rect class="cls-3" x="3.87" y="18.42" width="13.83" height="16.82" transform="translate(-11.59 8.52) rotate(-28.8)"/>
      </g>
      <g class="cls-11">
        <rect class="cls-3" x="3.75" y="18.63" width="19.62" height="20.94" transform="translate(-12.34 10.13) rotate(-28.8)"/>
      </g>
      <g class="cls-14">
        <rect class="cls-3" x="9.06" y="23.84" width="11.75" height="12.84" transform="translate(-12.73 10.94) rotate(-28.8)"/>
      </g>
    </g>
  </g>
</svg>