<?xml version="1.0" encoding="UTF-8"?>
<svg id="Layer_2" data-name="Layer 2" xmlns="http://www.w3.org/2000/svg" viewBox="0 0 51.91 56.11">
  <defs>
    <style>
      .cls-1 {
        fill: #092840;
      }

      .cls-1, .cls-2 {
        stroke-width: 0px;
      }

      .cls-2 {
        fill: #fff;
      }
    </style>
  </defs>
  <g id="Layer_1-2" data-name="Layer 1">
    <g>
      <polygon class="cls-1" points="51.77 14.15 51.77 41.96 26.02 55.87 .28 41.96 .28 14.15 26.02 .24 51.77 14.15"/>
      <path class="cls-2" d="M25.95,56.11l-.1-.05L0,42.09V14.03l.11-.06L25.95,0l.1.05,25.85,13.97v28.07l-25.95,14.01ZM.42,41.84l25.53,13.79,25.53-13.79V14.28L25.95.48.42,14.28v27.56Z"/>
      <polygon class="cls-2" points="50.5 14.91 50.5 41.21 25.95 54.36 1.4 41.21 1.4 14.91 25.95 1.75 50.5 14.91"/>
      <rect class="cls-2" x="1.4" y="20.34" width="49.1" height="15.43"/>
      <polygon class="cls-1" points="48.12 15.96 48.12 40.16 26.02 52.26 3.93 40.16 3.93 15.96 26.02 3.86 48.12 15.96"/>
      <rect class="cls-2" x="2.1" y="21.74" width="47.7" height="12.63"/>
      <polyline class="cls-2" points="7.36 35.8 44.54 35.8 44.54 35.75 7.36 35.75"/>
      <polyline class="cls-2" points="7.36 20.37 44.54 20.37 44.54 20.32 7.36 20.32"/>
      <rect class="cls-1" x="19.65" y="24.69" width="1.26" height="6.59"/>
      <path class="cls-1" d="M24.98,29.32c0,1.03-.97,1.11-1.24,1.11-.68,0-.86-.6-.86-.96v-2.53h-.98v2.53c0,.64.2,1.16.57,1.51.37.32.84.5,1.33.48.42-.01.83-.13,1.18-.36v.19h1.12v-4.35h-1.12v2.38Z"/>
      <polygon class="cls-1" points="28.49 25.39 27.23 25.39 27.23 26.93 26.53 26.93 26.53 27.78 27.23 27.78 27.23 31.28 28.49 31.28 28.49 27.78 29.33 27.78 29.33 26.93 28.49 26.93 28.49 25.39"/>
      <path class="cls-1" d="M32.97,30.07c-.27.22-.6.33-.94.33-.8,0-1.39-.55-1.39-1.3s.56-1.28,1.39-1.28c.34,0,.68.11.95.32l.17.14.77-.72-.19-.16c-.48-.4-1.09-.61-1.71-.6-1.44,0-2.48.97-2.48,2.3s1.07,2.33,2.48,2.33c.63,0,1.24-.21,1.72-.61l.19-.16-.79-.72-.17.15h0Z"/>
      <path class="cls-1" d="M38.05,27.34c-.37-.32-.86-.49-1.35-.48-.43,0-.84.12-1.19.36v-2.53h-1.12v6.59h1.12v-2.29c0-1.03.9-1.11,1.17-1.11.68,0,.79.6.79.96v2.43h1.12v-2.43c0-.64-.16-1.16-.54-1.51h0Z"/>
      <path class="cls-1" d="M18.27,29.75c-.45.42-1.04.65-1.65.65-1.28,0-2.21-.94-2.21-2.23s.93-2.24,2.21-2.24c.61,0,1.2.23,1.65.64l.17.16.77-.72-.17-.16c-.65-.62-1.52-.96-2.42-.95-1.88,0-3.3,1.4-3.3,3.26s1.42,3.25,3.3,3.25c.9.01,1.77-.33,2.43-.95l.17-.16-.76-.73-.18.17h0Z"/>
      <path class="cls-2" d="M28.44,9.33h.61c.14,0,.24,0,.29.02.08.02.15.07.2.14.05.07.08.16.08.26,0,.14-.04.24-.13.32-.09.08-.23.11-.43.11h-.62v-.85ZM28.44,11.43v-.97h.61c.34,0,.57-.07.7-.21.13-.14.19-.31.19-.51,0-.12-.02-.23-.07-.32-.05-.1-.11-.18-.19-.23-.08-.05-.18-.09-.29-.11-.08-.02-.2-.02-.36-.02h-.9v2.38h.31ZM25.68,9.51c.16-.15.35-.23.58-.23.16,0,.3.04.42.12.13.08.22.19.29.34.07.14.1.31.1.51,0,.31-.08.54-.23.71-.15.17-.35.25-.59.25s-.43-.08-.58-.25c-.15-.17-.23-.39-.23-.68,0-.36.08-.61.24-.77ZM25.25,10.87c.09.19.22.34.4.44.18.11.38.16.6.16.21,0,.4-.05.58-.15.18-.1.32-.24.41-.43.1-.19.15-.41.15-.65s-.05-.45-.14-.64c-.09-.19-.23-.33-.4-.44-.18-.1-.37-.16-.59-.16-.34,0-.61.11-.82.34-.21.22-.32.53-.32.93,0,.21.05.41.14.59ZM23.82,11.43v-2.1h.79v-.28h-1.89v.28h.78v2.1h.31Z"/>
      <path class="cls-2" d="M40.36,16.11v-1.01l.95-1.37h-.37l-.46.7c-.1.16-.19.3-.26.42-.07-.13-.16-.27-.24-.4l-.47-.72h-.38l.92,1.37v1.01h.31ZM36.94,16.11v-1.87l1.25,1.87h.32v-2.38h-.3v1.87l-1.25-1.87h-.32v2.38h.3ZM34.78,14.43c.06-.15.1-.3.13-.45.04.13.09.29.17.49l.25.66h-.81l.26-.7ZM34.17,16.11l.26-.72h1l.28.72h.36l-.97-2.38h-.34l-.91,2.38h.33ZM32.1,14.01h.61c.14,0,.24,0,.29.02.08.02.15.07.2.14.05.07.08.16.08.26,0,.14-.04.24-.13.32-.09.08-.23.11-.43.11h-.62v-.85ZM32.1,16.11v-.97h.61c.34,0,.57-.07.7-.21.13-.14.19-.31.19-.51,0-.12-.02-.23-.07-.32-.05-.1-.11-.18-.19-.23-.08-.05-.18-.09-.29-.11-.08-.02-.2-.02-.36-.02h-.9v2.38h.31ZM28.98,16.11v-2.03l.69,2.03h.28l.69-1.99v1.99h.3v-2.38h-.42l-.57,1.66c-.06.17-.1.29-.13.38-.02-.08-.06-.2-.11-.35l-.56-1.69h-.47v2.38h.3ZM26.24,14.19c.16-.15.35-.23.58-.23.16,0,.3.04.42.12.13.08.22.19.29.34.07.14.1.31.1.51,0,.31-.08.54-.23.71-.15.17-.35.25-.59.25s-.43-.08-.58-.25c-.15-.17-.23-.39-.23-.68,0-.36.08-.61.24-.77ZM25.81,15.54c.09.19.22.34.4.44.18.11.38.16.6.16.21,0,.4-.05.58-.15.18-.1.32-.24.41-.43.1-.19.15-.41.15-.65s-.05-.45-.14-.64c-.09-.19-.23-.33-.4-.44-.18-.1-.37-.16-.59-.16-.34,0-.61.11-.82.34-.21.22-.32.53-.32.93,0,.21.05.41.14.59ZM24.48,15.73c-.12.1-.27.15-.45.15-.15,0-.28-.04-.4-.11-.12-.07-.22-.19-.28-.34-.06-.15-.09-.33-.09-.53,0-.16.02-.31.07-.46.05-.15.14-.27.26-.35.12-.09.28-.13.46-.13.16,0,.29.04.4.12.1.08.19.21.24.38l.31-.07c-.06-.22-.18-.39-.34-.51-.16-.12-.36-.18-.6-.18-.21,0-.4.05-.58.14-.17.1-.31.24-.4.42-.09.18-.14.4-.14.65,0,.23.04.44.13.64.08.2.21.35.37.45.16.1.37.16.63.16s.46-.07.63-.2c.17-.14.29-.33.36-.59l-.31-.08c-.04.2-.13.35-.25.45ZM19.33,14.19c.16-.15.35-.23.58-.23.16,0,.3.04.42.12.13.08.22.19.29.34.07.14.1.31.1.51,0,.31-.08.54-.23.71-.15.17-.35.25-.59.25s-.43-.08-.58-.25c-.15-.17-.23-.39-.23-.68,0-.36.08-.61.24-.77ZM18.9,15.54c.09.19.22.34.4.44.18.11.38.16.6.16.21,0,.4-.05.58-.15.18-.1.32-.24.41-.43.1-.19.15-.41.15-.65s-.05-.45-.14-.64c-.09-.19-.23-.33-.4-.44-.18-.1-.37-.16-.59-.16-.34,0-.61.11-.82.34-.21.22-.32.53-.32.93,0,.21.05.41.14.59ZM16.62,14.01h.61c.14,0,.24,0,.29.02.08.02.15.07.2.14.05.07.08.16.08.26,0,.14-.04.24-.13.32-.09.08-.23.11-.43.11h-.62v-.85ZM16.62,16.11v-.97h.61c.34,0,.57-.07.7-.21.13-.14.19-.31.19-.51,0-.12-.02-.23-.07-.32-.05-.1-.11-.18-.19-.23-.08-.05-.18-.09-.29-.11-.08-.02-.2-.02-.36-.02h-.9v2.38h.31ZM14.06,15.01h.55c.15,0,.27.01.35.04.08.03.14.07.19.14.05.07.07.14.07.23,0,.08-.02.14-.05.2-.03.06-.07.1-.12.13-.05.03-.11.05-.18.06-.04,0-.11.01-.21.01h-.59v-.82ZM14.06,14.01h.48c.17,0,.29.01.36.03.07.02.12.06.16.12.04.06.06.13.06.21,0,.08-.02.15-.06.21s-.1.09-.18.12c-.06.02-.16.03-.3.03h-.51v-.72ZM14.65,16.11c.15,0,.28-.01.38-.04.1-.03.19-.07.26-.12.07-.05.13-.13.17-.22s.07-.2.07-.31c0-.14-.04-.26-.12-.36-.08-.1-.19-.17-.33-.22.11-.06.19-.13.25-.22.06-.09.08-.19.08-.29,0-.11-.03-.21-.09-.31-.06-.1-.15-.17-.26-.22-.11-.05-.26-.07-.44-.07h-.89v2.38h.91Z"/>
      <path class="cls-2" d="M37.21,40.97c.08.13.2.22.34.28.15.06.33.09.54.09.17,0,.32-.03.46-.09.14-.06.24-.15.31-.26.07-.11.11-.23.11-.36s-.03-.24-.1-.34c-.07-.1-.17-.18-.31-.24-.1-.04-.27-.09-.53-.15-.26-.06-.41-.11-.47-.17-.06-.06-.09-.13-.09-.21,0-.1.04-.18.13-.25.09-.07.23-.1.42-.1s.32.04.41.12c.09.08.15.19.16.34l.3-.02c0-.14-.04-.26-.12-.38-.07-.11-.18-.19-.31-.25s-.29-.09-.47-.09c-.16,0-.31.03-.44.08-.13.05-.23.13-.3.24-.07.1-.1.22-.1.34,0,.11.03.21.08.3.06.09.14.16.25.22.09.05.24.1.46.15.22.05.36.09.42.12.1.04.17.08.21.14.04.06.06.12.06.2s-.02.14-.07.2c-.04.06-.11.11-.21.15-.09.04-.2.05-.32.05-.14,0-.26-.02-.37-.07-.11-.05-.19-.11-.24-.19-.05-.08-.08-.17-.1-.29l-.3.03c0,.16.05.3.13.43ZM36.42,41.31v-.28h-1.46v-.81h1.32v-.28h-1.32v-.73h1.41v-.28h-1.72v2.38h1.78ZM32.21,41.31v-1.87l1.25,1.87h.32v-2.38h-.3v1.87l-1.25-1.87h-.32v2.38h.3ZM31.02,41.31v-2.38h-.31v2.38h.31ZM28.42,39.21h.61c.14,0,.24,0,.29.02.08.02.15.07.2.14.05.07.08.16.08.26,0,.14-.04.24-.13.32-.09.08-.23.11-.43.11h-.62v-.85ZM28.42,41.31v-.97h.61c.34,0,.57-.07.7-.21.13-.14.19-.31.19-.51,0-.12-.02-.23-.07-.32-.05-.1-.11-.18-.19-.23-.08-.05-.18-.09-.29-.11-.08-.02-.2-.02-.36-.02h-.9v2.38h.31ZM25.86,39.21h.61c.14,0,.24,0,.29.02.08.02.15.07.2.14.05.07.08.16.08.26,0,.14-.04.24-.13.32-.09.08-.23.11-.43.11h-.62v-.85ZM25.86,41.31v-.97h.61c.34,0,.57-.07.7-.21.13-.14.19-.31.19-.51,0-.12-.02-.23-.07-.32-.05-.1-.11-.18-.19-.23-.08-.05-.18-.09-.29-.11-.08-.02-.2-.02-.36-.02h-.9v2.38h.31ZM24.66,41.31v-2.38h-.31v2.38h.31ZM23.59,41.31v-.28h-1.17v-2.1h-.31v2.38h1.49ZM21.22,41.31v-2.38h-.31v2.38h.31ZM18.45,41.31v-1.12h1.24v1.12h.31v-2.38h-.31v.98h-1.24v-.98h-.31v2.38h.31ZM15.89,39.21h.61c.14,0,.24,0,.29.02.08.02.15.07.2.14.05.07.08.16.08.26,0,.14-.04.24-.13.32-.09.08-.23.11-.43.11h-.62v-.85ZM15.89,41.31v-.97h.61c.34,0,.57-.07.7-.21.13-.14.19-.31.19-.51,0-.12-.02-.23-.07-.32-.05-.1-.11-.18-.19-.23-.08-.05-.18-.09-.29-.11-.08-.02-.2-.02-.36-.02h-.9v2.38h.31Z"/>
      <path class="cls-2" d="M28.67,45.84c.14.12.31.19.52.19.23,0,.42-.07.57-.22.15-.14.23-.32.23-.53,0-.15-.04-.28-.12-.38s-.19-.17-.33-.2c.11-.05.19-.12.25-.2s.08-.18.08-.28c0-.11-.03-.21-.09-.31-.06-.1-.14-.17-.25-.23-.11-.06-.23-.08-.36-.08-.19,0-.35.05-.47.16-.13.11-.21.26-.24.46l.29.05c.02-.14.07-.25.15-.32.08-.07.17-.11.28-.11s.21.04.28.11c.07.07.11.16.11.27,0,.14-.05.24-.15.3-.1.06-.21.1-.34.1-.01,0-.03,0-.05,0l-.03.26c.08-.02.15-.03.21-.03.14,0,.25.04.33.13.09.09.13.2.13.33s-.05.26-.14.35c-.09.1-.21.14-.35.14-.12,0-.21-.04-.29-.11-.08-.07-.14-.19-.17-.36l-.29.04c.02.2.1.36.24.48ZM26.62,45.7c.03-.05.07-.11.12-.16.05-.05.16-.15.34-.3.21-.18.36-.32.45-.42.09-.1.16-.2.19-.29.04-.09.06-.19.06-.28,0-.19-.07-.34-.2-.47s-.31-.19-.54-.19-.41.06-.54.18c-.13.12-.21.29-.23.51l.3.03c0-.15.04-.27.13-.35s.2-.13.34-.13c.13,0,.24.04.32.12s.12.18.12.29-.05.23-.14.35c-.09.12-.27.29-.52.5-.17.14-.29.26-.38.36-.09.1-.15.21-.19.32-.02.06-.04.13-.03.2h1.57v-.28h-1.17ZM24.52,44c.08-.11.19-.17.32-.17s.25.06.34.19c.09.13.14.39.14.78s-.05.65-.14.78c-.09.13-.2.19-.34.19s-.25-.06-.34-.19c-.09-.13-.14-.39-.14-.78s.05-.66.15-.8ZM24.31,45.78c.13.16.31.25.54.25.17,0,.32-.05.43-.14.11-.09.2-.23.26-.4.06-.17.09-.4.09-.68,0-.24-.02-.42-.05-.56-.04-.14-.08-.26-.15-.35-.06-.1-.14-.17-.24-.22-.1-.05-.21-.08-.34-.08-.17,0-.32.05-.43.14-.11.09-.2.23-.26.4-.06.17-.09.4-.09.68,0,.45.08.77.24.97ZM22.26,45.7c.03-.05.07-.11.12-.16.05-.05.16-.15.34-.3.21-.18.36-.32.45-.42.09-.1.16-.2.19-.29.04-.09.06-.19.06-.28,0-.19-.07-.34-.2-.47s-.31-.19-.54-.19-.41.06-.54.18c-.13.12-.21.29-.23.51l.3.03c0-.15.04-.27.13-.35s.2-.13.34-.13c.13,0,.24.04.32.12s.12.18.12.29-.05.23-.14.35c-.09.12-.27.29-.52.5-.17.14-.29.26-.38.36-.09.1-.15.21-.19.32-.02.06-.04.13-.03.2h1.57v-.28h-1.17Z"/>
    </g>
  </g>
</svg>