<?xml version="1.0" encoding="UTF-8"?>
<svg xmlns="http://www.w3.org/2000/svg" width="500" height="500" viewBox="0 0 500 500" fill="none">
  <path fill-rule="evenodd" clip-rule="evenodd" d="M375.68 291.12C369.487 288.375 362.558 287.763 355.98 289.38C355.14 287.62 354.4 282.94 350.2 279.38C346.991 276.759 343.377 274.678 339.5 273.22C342.366 270.772 344.747 267.807 346.52 264.48C351.235 255.321 354.905 245.66 357.46 235.68C362.16 217 360.56 204.96 360.56 204.96C360.56 204.34 360.18 204.36 357.14 203.14C357.9 201.32 357.92 201 359.44 199.96C360.44 199.26 361.62 198.68 362.32 198.26C365.16 196.58 371.36 188.42 369.2 186.26C367.86 184.92 366.56 185.96 365.2 187.26C365.264 186.793 365.18 186.317 364.96 185.9C363.96 184.1 362.1 185.06 360.6 186.42C360.66 186.058 360.632 185.687 360.517 185.338C360.402 184.99 360.204 184.675 359.94 184.42C357.24 182.12 355.52 189.26 353.04 190.42C352.926 190.39 352.818 190.343 352.72 190.28C351.24 189.42 348.92 185.82 347.36 187.9C346.8 188.66 347.36 190.08 347.66 191C348.376 192.857 349.309 194.622 350.44 196.26C350.095 197.55 349.674 198.819 349.18 200.06L346.18 198.86C346.021 198.793 345.845 198.78 345.679 198.824C345.513 198.867 345.365 198.964 345.26 199.1C345.26 199.1 321.12 229.1 320.66 229.52C318.66 225.36 310.34 213.66 295.58 203.9C285.436 197.166 274.022 192.578 262.04 190.42C261.989 190.301 261.909 190.197 261.808 190.117C261.707 190.036 261.587 189.983 261.46 189.96C258.082 189.389 254.678 188.988 251.26 188.76C251.12 188.1 251.02 187.6 250.96 187.24C256.22 185.84 261.34 175.24 261.6 169.66C262.336 169.355 263.051 169.001 263.74 168.6C264.985 167.51 265.822 166.029 266.113 164.401C266.403 162.772 266.131 161.093 265.34 159.64C265.54 158.873 265.54 158.067 265.34 157.3C266 154 268.042 149.509 268.5 145.58C268.873 141.999 269.103 136.471 268 133C265.611 126.816 256 125.5 252.49 125.003C248.527 124.443 241.963 124 237.66 124C231.873 124 225.451 124.909 220.121 127.32C217.479 128.515 217.337 128.913 215.5 131.36C213.548 134.508 212.87 136.197 212.5 140C212.085 144.26 213.873 147.428 215 151.42C215.995 154.943 217.818 157.852 217.92 161.3C217.038 162.421 216.609 163.831 216.716 165.253C216.824 166.674 217.46 168.004 218.5 168.98C219.619 169.959 221.019 170.561 222.5 170.7C223.44 177.52 226.76 185.66 233.44 187.38C233.016 188.18 232.535 188.949 232 189.68C208.6 192.8 183.28 207.38 168.38 227.4C167.26 226.08 150.5 206.32 149.02 205.4C148.642 205.285 148.238 205.285 147.86 205.4C147.515 204.519 147.228 203.617 147 202.7C148.131 201.063 149.064 199.297 149.78 197.44C150.14 196.54 150.64 195.1 150.08 194.34C148.52 192.34 146.2 195.86 144.72 196.72C144.631 196.787 144.528 196.835 144.42 196.86C142.86 196.18 141.42 192.86 140.22 191.48C138.54 189.48 136.62 190.9 136.84 192.98C135.34 191.62 133.5 190.66 132.48 192.46C132.269 192.88 132.186 193.353 132.24 193.82C130.94 192.52 129.66 191.48 128.24 192.82C126.08 194.96 132.24 203.14 135.12 204.82C135.84 205.24 137 205.82 138 206.52C138.558 206.846 139.044 207.281 139.429 207.8C139.814 208.319 140.09 208.911 140.24 209.54C139.9 209.8 139.64 209.98 139.6 210.38C139.6 210.38 136.9 241.58 146.74 263.72C147.46 265.32 148.24 266.88 149.08 268.38C114.56 266.84 94.8397 284.94 91.3597 314.64C87.9997 316.08 72.5597 320.54 64.6797 332.38C59.7397 339.78 57.6997 350.06 63.3197 364.28C65.7466 370.531 69.671 376.09 74.7483 380.47C79.8256 384.85 85.9005 387.916 92.4397 389.4C97.2997 390.38 110.44 388.7 113.58 388.64C113.78 389.3 114 390.5 114.38 392.06C121.56 421.58 145.62 431.7 175.72 429.86C184.66 429.3 188.98 424.94 196.4 421.24C196.652 421.091 196.921 420.97 197.2 420.88C214.32 438.28 242.3 444.52 269.2 434.42C276.54 431.66 289.08 423.98 295.66 420.68C298.22 422.56 307.02 424.12 310.96 425.24C316.169 426.653 321.567 427.247 326.96 427C339.38 426.54 350.38 422.76 362.38 412.82C368.439 408.11 373.349 402.085 376.74 395.2C378.54 391 378.88 383.4 379.08 378.88C387.064 375.139 393.644 368.944 397.86 361.2C401.865 353.213 403.869 344.373 403.7 335.44C404 315.5 393.46 299.52 375.68 291.12ZM351.56 196.36C351.6 196.221 351.603 196.073 351.568 195.933C351.532 195.792 351.461 195.664 351.36 195.56C349.996 193.457 349.039 191.116 348.54 188.66C348.54 188.66 348.9 188.8 348.98 188.86C350.46 189.9 351.98 192.52 353.7 191.82C356.2 190.8 357.7 186.5 358.92 185.82V186.32C358.3 188.349 357.362 190.266 356.14 192C355.72 192.7 357.16 193.46 357.58 192.92C358.929 190.834 360.535 188.925 362.36 187.24C362.58 187.08 363.36 186.48 363.52 186.74C363.68 187 363.28 188.04 363.1 188.42C362.015 190.403 360.67 192.233 359.1 193.86C358.968 194.028 358.904 194.239 358.92 194.452C358.936 194.665 359.03 194.865 359.185 195.012C359.34 195.159 359.543 195.243 359.757 195.249C359.97 195.254 360.178 195.179 360.34 195.04C361.05 194.341 361.718 193.599 362.34 192.82C363.96 191.02 366.18 188.64 366.96 187.92C370.42 184.62 365.78 194.64 361.76 197.2C359.997 198.065 358.431 199.283 357.16 200.78C357.06 200.96 356.74 201.76 356.36 202.78L350 200.36C350.605 199.062 351.127 197.725 351.56 196.36ZM319.8 230.8C317.181 233.212 315.237 236.266 314.16 239.66C314.02 240.26 313.72 241.66 314.34 241.66C314.43 241.66 314.516 241.624 314.58 241.56C314.644 241.497 314.68 241.41 314.68 241.32C315.38 237.14 333.98 215.66 346.2 200.54L358.98 205.72C360.24 219.12 356.52 241.2 344.98 263.72C340.2 273.1 327.3 281.04 315.5 281.04C311.486 279.387 307.181 278.557 302.84 278.6C301.905 278.273 300.99 277.892 300.1 277.46C297.652 276.532 295.516 274.93 293.94 272.84C295.3 267.172 296.275 261.419 296.86 255.62C296.86 255.62 296.32 255.16 296.16 255.62C292.4 267.1 292.74 273.06 290.88 280.22C285.636 281.599 280.534 283.467 275.64 285.8C270.74 288.1 259.1 289.18 246.66 289.44C246.54 285.7 246.66 279.84 246.66 276.06C247.993 274.505 249.098 272.767 249.94 270.9C254.12 264.62 266.72 240.9 269.58 235.64C270.32 234.28 272.18 231.34 271.58 229.88C270.174 226.654 268.564 223.521 266.76 220.5C266.38 219.986 266.039 219.444 265.74 218.88C266.76 218.24 269.4 218.74 271.24 218.42C271.864 218.326 272.461 218.099 272.99 217.755C273.519 217.41 273.969 216.957 274.308 216.424C274.647 215.892 274.868 215.293 274.957 214.667C275.045 214.042 274.998 213.406 274.82 212.8C274.369 210.863 273.732 208.975 272.92 207.16C271.06 202.06 268.7 196.98 266.42 192.02C276.607 194.53 286.269 198.823 294.96 204.7C310.72 215.32 318.98 228 319.8 230.8ZM220.16 218.28C218.54 217.02 215.94 217.86 213.86 217.52C211.78 217.18 211 215.52 211.28 213.52C211.69 211.631 212.272 209.783 213.02 208C214.7 203.14 216.84 198.14 218.92 193.36C220.44 192.88 222.02 192.44 223.54 192.06C226.02 200.88 228.44 212.96 230.14 222.06C231.28 228.06 236.7 259.88 237.88 267.9L238.02 273.4C237.28 272.14 236.66 270.8 236.44 270.46C233.88 266.62 214.44 231.92 214.8 230.94C216.165 227.772 217.715 224.687 219.44 221.7C219.7 221.1 221.4 219.22 220.16 218.28ZM265.52 221.22C267.255 224.205 268.811 227.29 270.18 230.46C270.54 231.5 251.24 265.92 248.52 269.98C248.28 270.36 247.6 271.84 246.8 273.14L246.92 268.56C250.504 242.472 255.572 216.61 262.1 191.1C263.06 191.28 264.1 191.52 265.56 191.86C267.78 196.96 270.12 202.32 271.94 207.6C272.686 209.349 273.268 211.163 273.68 213.02C273.98 215.16 273.26 216.78 271.12 217.02C268.98 217.26 266.42 216.52 264.8 217.78C263.58 218.82 265.28 220.7 265.52 221.22ZM238.56 261.1C241.094 261.501 243.679 261.46 246.2 260.98C246.44 260.98 246.44 260.16 245.2 268.36C245.2 268.82 245.34 268.22 242.4 268.26C241.454 268.227 240.51 268.341 239.6 268.6C239.473 266.074 239.125 263.565 238.56 261.1ZM235.74 244.34C240.236 244.735 244.765 244.567 249.22 243.84C249.22 244.16 248.26 249.32 247.9 251.5C244.284 251.006 240.613 251.08 237.02 251.72C236.62 249.3 236.18 246.84 235.74 244.34ZM249.38 242.9C244.782 242.485 240.149 242.673 235.6 243.46C235.38 242.32 234.48 237.2 234.28 236.12C239.755 236.488 245.253 236.334 250.7 235.66C250.68 235.8 249.78 240.66 249.38 242.9ZM232.88 228.42C239.268 228.903 245.687 228.816 252.06 228.16C251.64 230.36 251.24 232.58 250.86 234.8C245.288 234.235 239.666 234.41 234.14 235.32C233.74 233.02 233.3 230.72 232.88 228.42ZM252.22 227.32C245.728 226.733 239.192 226.827 232.72 227.6C232.56 226.68 231.8 222.72 231.6 221.6C238.844 222.048 246.113 221.934 253.34 221.26C252.94 223.46 252.58 225.36 252.22 227.32ZM247.74 252.46C247.3 255.02 246.9 257.54 246.52 259.96C246.02 259.96 245.32 259.72 244.78 259.66C243.222 259.548 241.658 259.548 240.1 259.66C239.6 259.66 238.88 259.88 238.4 260C238 257.58 237.6 255.1 237.18 252.54C240.685 253.024 244.242 252.997 247.74 252.46ZM245.18 269.72C245.18 272.22 244.96 275.44 245.18 277.72C244.022 277.399 242.813 277.304 241.62 277.44C240.993 277.45 240.373 277.558 239.78 277.76C239.78 277.24 239.78 276.34 239.68 269.76C241.5 270.085 243.364 270.071 245.18 269.72ZM239.74 278.94C240.621 279.166 241.532 279.254 242.44 279.2C243.345 279.256 244.253 279.147 245.12 278.88V286.48C243.438 286.07 241.682 286.07 240 286.48C239.6 286.54 239.82 287.34 239.74 278.94ZM253.5 220.54C246.172 219.944 238.804 220.065 231.5 220.9C231.14 219.08 230.78 217.28 230.42 215.52C238.48 216.054 246.569 215.987 254.62 215.32C254.2 217.04 253.86 218.78 253.5 220.54ZM245.08 287.6V289.6H239.66V287.6C241.439 288.044 243.3 288.044 245.08 287.6ZM254.72 214.5C246.555 213.888 238.353 213.961 230.2 214.72C229.78 212.72 229.34 210.72 228.92 208.72C230.52 208.72 234.36 209 235.46 209.02C236.56 209.04 248.84 208.92 249.76 208.86C251.5 208.86 254.26 208.6 256 208.48C255.58 210.48 255.14 212.46 254.72 214.5ZM256.18 207.74C247.048 207.067 237.877 207.154 228.76 208C228.04 204.76 227.32 201.7 226.62 198.86C234.62 203.94 249.46 204.68 258.18 199.08C257.52 201.8 256.84 204.7 256.18 207.74ZM298.94 278.84C296.861 279.038 294.797 279.366 292.76 279.82C293.18 278.1 293.48 276.42 293.66 275.18C295.204 276.685 296.989 277.922 298.94 278.84ZM242.7 151.42C241.66 152.26 241.54 155.42 241.54 156.8C240.363 156.579 239.156 156.579 237.98 156.8C237.98 155.8 237.54 152.46 236.68 151.92C234.1 150.06 227.94 149.92 224.56 150.32C224.582 148.842 224.866 147.379 225.4 146C225.4 146 225.4 145.86 225.54 145.86C228.96 145.86 238.42 146.3 245.72 146.14C255.48 145.94 254.14 144.9 254.6 145.58C255.345 147.044 255.902 148.596 256.26 150.2C252.8 149.48 245.22 149.38 242.7 151.42ZM220.7 153.14C222.7 151.54 233.08 150.52 236.36 152.56C237.2 153.16 237.2 161.98 236.36 162.98C234.94 164.64 223.94 164.7 221.3 162.98C221.3 162.98 221.1 162.98 221.06 162.8C220.056 159.676 219.911 156.339 220.64 153.14H220.7ZM238 158.34H238.62C237.86 160.22 238.16 160.54 238 158.34ZM243.68 152.64C245.68 151.04 256.06 150.02 259.34 152.06C260.18 152.66 260.18 161.48 259.34 162.48C257.92 164.14 246.94 164.2 244.28 162.48C244.28 162.48 244.08 162.48 244.06 162.3C243.073 159.169 242.969 155.826 243.76 152.64H243.68ZM232.34 190.34C232.39 190.338 232.44 190.321 232.482 190.293C232.524 190.265 232.558 190.226 232.58 190.18C232.92 189.68 234.38 187.42 234.08 186.86C233.78 186.3 230.58 186.58 227.38 181.86C225.196 178.283 223.83 174.267 223.38 170.1C223.367 169.969 223.311 169.847 223.22 169.753C223.13 169.658 223.01 169.597 222.88 169.58C221.566 169.468 220.317 168.958 219.3 168.12C218.49 167.355 217.997 166.313 217.919 165.202C217.841 164.09 218.184 162.99 218.88 162.12C219.24 163.72 219.46 164.42 221.18 165.06C224.68 166.34 233.86 166.52 236.78 164.46C236.276 166.418 236.054 168.439 236.12 170.46C237.6 173.44 244.48 171.3 243.6 170.28C243.536 170.216 243.45 170.181 243.36 170.181C243.27 170.181 243.183 170.216 243.12 170.28C241.619 170.773 240 170.773 238.5 170.28C238.18 170.18 237.6 169.94 237.66 169.62C237.84 168.6 239.22 159.32 239.44 158.48C240.106 158.512 240.773 158.512 241.44 158.48C241.516 160.071 241.805 161.645 242.3 163.16C243.44 166.34 258.1 166.44 260.3 163.58C260.798 162.568 261.039 161.448 261 160.32C261.621 160.017 262.331 159.946 263 160.12C264.54 160.56 264.68 163.02 264.24 164.68C263.18 168.68 259.78 167.66 259.82 169.26C259.82 174.58 254.22 185.6 249.82 185.82C249.707 185.822 249.595 185.848 249.493 185.895C249.39 185.942 249.298 186.01 249.223 186.095C249.148 186.179 249.091 186.279 249.056 186.386C249.021 186.494 249.009 186.607 249.02 186.72C249.02 187.2 249.5 189.36 249.6 189.84C249.8 190.8 250.22 190.38 256.8 191.08C257.98 191.2 259.14 191.34 260.16 191.52C260.02 192.04 259.18 194.92 258.7 196.62C250.3 203.66 232.34 202.5 225.56 196.24C225.017 194.947 224.589 193.608 224.28 192.24C227.06 191.22 229.62 190.76 232.34 190.34ZM140.34 207.4C139.06 205.913 137.496 204.696 135.74 203.82C132.94 202.06 129.1 195.82 129.36 193.98C129.7 193.68 130.08 194.1 130.52 194.54C131.3 195.26 133.52 197.64 135.16 199.44C135.786 200.216 136.453 200.957 137.16 201.66C137.323 201.812 137.537 201.896 137.76 201.896C137.982 201.896 138.197 201.812 138.36 201.66C139.54 200.5 136.36 199.26 134.36 195.02C134.18 194.66 133.76 193.66 133.94 193.34C134.12 193.02 134.88 193.68 135.1 193.84C136.974 195.519 138.621 197.435 140 199.54C140.32 199.94 140.68 199.8 140.94 199.54C141.2 199.28 141.74 199.16 141.44 198.66C140.178 196.89 139.219 194.923 138.6 192.84C138.44 190.96 140.6 195.32 142.18 197.1C143.76 198.88 144.8 198.74 145.86 197.96C146.92 197.18 148.74 195 149.04 195.26C148.632 197.455 147.825 199.556 146.66 201.46C146.08 202.48 145.9 202.42 146.02 202.94C146.261 203.804 146.555 204.652 146.9 205.48C147.12 206 147.16 205.48 144.78 206.68C143.502 207.362 142.284 208.152 141.14 209.04C140.74 208.18 140.5 207.56 140.42 207.4H140.34ZM141.18 210.9C143.209 209.041 145.638 207.673 148.28 206.9C149.92 208.34 164.94 224.74 170.28 232.68C174.96 239.78 176.1 241.16 176.92 242.42C176.96 242.502 177.03 242.565 177.117 242.595C177.203 242.625 177.298 242.62 177.38 242.58C177.462 242.54 177.525 242.469 177.555 242.383C177.585 242.297 177.58 242.202 177.54 242.12C176.582 239.406 175.235 236.846 173.54 234.52C172.219 232.462 170.698 230.539 169 228.78C175.719 219.789 183.923 212.01 193.26 205.78C200.874 200.559 209.208 196.476 218 193.66C215.88 198.26 213.78 202.88 212 207.66C210.88 210.7 208.72 214.74 211.04 217.5C213.36 220.26 217.46 218.36 219.16 219.36C218.871 219.932 218.536 220.481 218.16 221C216.349 224.021 214.733 227.154 213.32 230.38C213.166 231.115 213.257 231.881 213.58 232.56C214.02 233.72 230.88 265.1 235.06 271.4C235.894 273.229 236.97 274.938 238.26 276.48V289.58C224.14 289.46 210.68 288.36 206.4 286.7C204.175 285.876 201.897 285.208 199.58 284.7C198.66 277.74 197.8 266.7 195 256.9C194.9 256.54 194.8 255.98 194.44 256.04C194.08 256.1 194.1 256.24 194.12 256.4C194.647 262.72 195.65 268.991 197.12 275.16C193.334 278.439 188.974 280.988 184.26 282.68C179.837 282.504 175.407 282.779 171.04 283.5C159.94 281.2 152.94 273.12 148.52 263.18C139.28 242.6 141.02 214.3 141.26 210.9H141.18ZM197.6 284.18C194.444 283.528 191.251 283.067 188.04 282.8C191.162 281.326 194.102 279.494 196.8 277.34C197.06 279.04 197.38 281.78 197.68 284.18H197.6ZM402.06 335.46C401.88 353.06 395.88 367.98 380.06 376.44C377.8 377.64 377.38 377.8 377.32 378.44C377.1 381.54 376.96 390.14 375.1 394.44C371.83 401.085 367.082 406.893 361.22 411.42C349.7 420.92 339.1 424.76 326.82 425.2C321.636 425.431 316.448 424.857 311.44 423.5C306.897 422.589 302.41 421.421 298 420C297.02 419.58 296 419.04 296 419.04C294.54 418.86 277.3 429.72 268.74 432.94C244.14 442.16 216.22 437.96 198.34 419.68C198.178 419.53 197.983 419.42 197.772 419.358C197.56 419.295 197.337 419.282 197.12 419.32C195.42 419.54 188.04 424.5 184 426.28C181.366 427.452 178.539 428.13 175.66 428.28C157.66 429.4 145.1 426.04 136.32 420.8C117.5 409.58 116.1 389.96 114.94 387.64C114.854 387.487 114.729 387.361 114.578 387.273C114.427 387.185 114.255 387.139 114.08 387.14C112.08 387 97.6597 388.94 92.7997 387.96C86.5197 386.527 80.6853 383.58 75.8049 379.376C70.9246 375.172 67.1465 369.839 64.7997 363.84C59.3797 350.24 61.2197 340.38 65.9197 333.28C73.9197 321.28 89.7397 317.04 92.2997 315.76C92.9197 315.44 92.4997 314.94 93.3797 310.02C97.9797 284.44 116.62 268.02 149.68 269.38C153.493 276.324 159.73 281.621 167.2 284.26C164.844 284.841 162.558 285.672 160.38 286.74C150.12 291.84 143.74 305.82 145.22 317.34C149.22 348.02 202.96 373.82 232.12 383.66C234.442 384.538 236.838 385.207 239.28 385.66C237.628 388.506 236.325 391.542 235.4 394.7C235.26 395.48 234.74 396.86 235.4 397.64C237.2 399.46 239.88 397.32 241.6 395.42C243.32 393.52 244.74 391.26 246.46 389.2C248.288 387.014 249.815 384.592 251 382C251.24 381.48 250.78 381.04 250.64 380.72C250.266 379.894 249.728 379.153 249.06 378.54C250.56 377.26 250.94 377.98 247.5 371.02C238.5 352.84 235.64 347.02 226.64 334.52C224.24 331.16 216.5 320.96 213.84 318.16C213.805 318.129 213.777 318.092 213.758 318.05C213.738 318.008 213.727 317.962 213.726 317.916C213.724 317.869 213.732 317.823 213.75 317.78C213.767 317.737 213.792 317.698 213.825 317.665C213.858 317.633 213.897 317.607 213.94 317.59C213.983 317.573 214.029 317.565 214.076 317.566C214.122 317.567 214.167 317.578 214.209 317.598C214.251 317.617 214.289 317.645 214.32 317.68C218.451 321.462 222.215 325.627 225.56 330.12C240.72 310.12 273.9 296.7 293.56 297.4C293.65 297.4 293.736 297.436 293.8 297.499C293.864 297.563 293.9 297.65 293.9 297.74C293.9 298.48 293.12 297.64 285.9 298.9C265.68 302.4 239.3 314.64 226.04 330.74C230.535 336.721 234.637 342.987 238.32 349.5C266.58 349.98 309.84 345.74 324.7 321.68C332.08 309.68 333.64 292.68 322.04 284.62C320.98 283.899 319.886 283.232 318.76 282.62C325.937 281.708 332.717 278.813 338.34 274.26C342.331 275.693 346.046 277.804 349.32 280.5C354.6 284.92 353.8 291.16 355.88 290.86C359.077 290.124 362.365 289.854 365.64 290.06C368.904 290.267 372.1 291.088 375.06 292.48C392.28 300.68 402.34 316.16 402.14 335.46H402.06ZM240.48 385.22C242.72 384.38 244.48 382.56 248.48 379.22C249.019 379.796 249.434 380.477 249.7 381.22C249.94 381.9 249.92 381.8 249.7 382.22C248.388 384.27 246.903 386.204 245.26 388C243.58 390 242.12 392.22 240.4 394.14C239.7 394.92 237.6 397.02 236.74 396.4C236.77 395.885 236.857 395.375 237 394.88C237.92 391.578 239.083 388.35 240.48 385.22ZM124.84 122C124.891 122.219 125.009 122.418 125.177 122.568C125.346 122.718 125.556 122.813 125.78 122.84C130.28 123.76 164.86 124.54 176.92 124.28C177.133 124.271 177.336 124.185 177.49 124.038C177.645 123.891 177.741 123.692 177.76 123.48C178.4 114.304 176.292 105.145 171.704 97.1727C167.115 89.2003 160.256 82.776 152 78.7199C145.315 75.9776 138.269 74.2193 131.08 73.4999C129.131 73.3099 127.168 73.3099 125.22 73.4999C125.136 73.5129 125.059 73.5534 125.001 73.6149C124.943 73.6765 124.908 73.7557 124.9 73.8399C124.72 78.2599 123.4 117.72 124.84 122ZM125.56 74.2799C127.346 74.1432 129.14 74.1767 130.92 74.3799C137.984 75.24 144.889 77.1125 151.42 79.9399C159.191 83.9137 165.653 90.0437 170.03 97.5955C174.407 105.147 176.515 113.801 176.1 122.52C159.6 122.82 130.1 121.74 126.32 121.24C125.14 116.24 125.48 79.4399 125.56 74.2199V74.2799Z" fill="#0A2840"></path>
  <path fill-rule="evenodd" clip-rule="evenodd" d="M93.36 174.88C125.36 190.26 164.46 171.9 167.36 135.24C167.37 135.124 167.355 135.007 167.317 134.897C167.279 134.786 167.219 134.685 167.14 134.6C166.52 133.94 167.34 134.84 140.12 134.2C136.72 134.2 117.4 133.58 114.12 133.06C112.78 127.68 113.36 86.7997 113.46 81.0597L113.08 80.7197C109.297 80.9456 105.549 81.5759 101.9 82.5997C86.08 88.5997 76.9 95.1597 69.46 110.6C66.4946 118.665 65.1358 127.233 65.46 135.82C66.4028 144.166 69.46 152.134 74.3422 158.97C79.2245 165.805 85.7703 171.281 93.36 174.88ZM70.64 111.16C77.78 95.8797 86.74 89.3397 102.18 83.2797C105.617 82.2604 109.148 81.5904 112.72 81.2797C112.42 92.0597 112.12 106.74 112.16 117.8C112.16 133.62 112.68 134.02 113.68 134.24C117.68 135.08 150.76 136.24 165.68 135.92C164.709 146.742 159.966 156.879 152.28 164.56C125.1 191.24 72.88 178.74 67 135.6C66.641 127.295 67.8766 118.999 70.64 111.16ZM439.56 102.48C439.46 101.46 439.36 100.28 438.78 99.8997C437.4 98.9597 424.1 95.8997 422.44 95.4797C424.3 92.2997 430.68 81.4797 430.86 77.7197C430.86 76.7197 430.6 76.3797 430.08 76.1197C426.08 74.2397 379.8 61.4197 375.52 60.7197C375.28 60.7197 375.02 60.7197 374.9 60.8597C369.18 70.1597 345.76 103.06 333.18 116.86C330.5 119.86 342.26 125.18 345.98 126.86C344.7 128.3 340.54 133.52 340.46 133.84C338.86 140.34 339.2 160.3 340.3 161.44C344 165.24 378.94 175.44 396.3 176.16C405.44 176.58 436.9 144.16 438.42 141.32C440.38 137.4 440.2 108.94 439.56 102.48ZM396.28 174.6C378.6 173.78 345.2 163.46 341.68 160.42C340.816 152.037 340.897 143.584 341.92 135.22C355.3 139.66 381.92 144.96 396.46 144.66C405.48 144.44 432.88 111.8 437.98 104.32C438.52 112.88 438.34 137.6 436.8 140.58C435.04 144 404 174.94 396.28 174.6ZM334.5 118.2C334.04 117.4 335.22 118.56 351.74 95.9397C362.24 81.5797 372.24 66.4997 375.38 61.3997C380.82 62.5597 425.38 75.5997 429.38 77.3997C429.78 83.8197 394.94 136.66 389.84 136.38C368.92 135.2 342.3 124.92 335.58 119.3C335.165 118.992 334.8 118.62 334.5 118.2ZM347.1 127.4C360.629 133.291 375.034 136.92 389.74 138.14C395.74 138.5 418.4 102.26 421.54 96.9997C423.66 97.4797 435.72 100.36 437.54 101.22C437.68 101.94 437.76 102.56 437.82 103.22C434.12 109.4 404.5 143.22 396.36 143.22C381.84 143.42 354.64 137.82 342.22 133.56C343.669 131.371 345.301 129.311 347.1 127.4Z" fill="#0A2840"></path>
  <path fill-rule="evenodd" clip-rule="evenodd" d="M398.46 160.64C398.06 148.36 398.46 153.12 397.64 147.64C397.588 147.048 397.501 146.461 397.38 145.88C397.37 145.824 397.349 145.772 397.317 145.726C397.285 145.68 397.244 145.642 397.195 145.614C397.147 145.586 397.093 145.569 397.037 145.565C396.981 145.56 396.925 145.568 396.873 145.587C396.821 145.606 396.773 145.637 396.734 145.677C396.695 145.717 396.665 145.765 396.646 145.818C396.628 145.871 396.621 145.927 396.627 145.982C396.633 146.038 396.651 146.092 396.68 146.14C396.719 146.659 396.719 147.18 396.68 147.7V150.38C396.494 155.789 396.621 161.205 397.06 166.6C397.22 168.34 397.42 170.04 397.54 171.76C397.54 171.85 397.576 171.936 397.639 172C397.703 172.064 397.79 172.1 397.88 172.1C397.97 172.1 398.057 172.064 398.12 172C398.184 171.936 398.22 171.85 398.22 171.76C398.549 168.062 398.629 164.347 398.46 160.64ZM390.76 151.86C389.92 151.86 386.52 150.96 381.88 149.86L345.1 141.52C344.72 141.52 344.46 142.04 345.1 142.24C353.9 145.34 386.08 152.74 390.84 152.64C390.943 152.629 391.038 152.578 391.104 152.497C391.17 152.416 391.2 152.313 391.19 152.21C391.179 152.106 391.128 152.011 391.047 151.945C390.967 151.88 390.863 151.849 390.76 151.86ZM390.32 158.66C389.48 158.66 386.08 157.74 381.46 156.66C380.64 156.44 344.7 148.32 344.66 148.32C344.28 148.32 344.02 148.82 344.66 149.02C353.46 152.14 385.62 159.52 390.38 159.42C390.43 159.416 390.478 159.402 390.523 159.379C390.568 159.356 390.607 159.325 390.64 159.287C390.672 159.249 390.697 159.205 390.712 159.157C390.728 159.11 390.734 159.059 390.73 159.01C390.726 158.96 390.712 158.911 390.689 158.866C390.667 158.822 390.635 158.782 390.597 158.75C390.559 158.717 390.515 158.692 390.468 158.677C390.42 158.662 390.37 158.656 390.32 158.66ZM389.88 165.7C389.04 165.7 385.62 164.78 381 163.7L344.22 155.36C343.82 155.36 343.56 155.88 344.22 156.08C353.02 159.18 385.18 166.56 389.96 166.46C390.01 166.454 390.058 166.439 390.102 166.415C390.146 166.391 390.185 166.359 390.217 166.32C390.248 166.281 390.272 166.236 390.286 166.188C390.3 166.14 390.305 166.089 390.3 166.04C390.295 165.99 390.28 165.941 390.256 165.897C390.232 165.853 390.199 165.814 390.16 165.783C390.121 165.751 390.076 165.727 390.028 165.713C389.98 165.699 389.93 165.694 389.88 165.7ZM369.6 91.9995C373.778 93.9053 378.247 95.0952 382.82 95.5195C383.04 95.5328 383.26 95.4915 383.46 95.3995C386.22 94.1195 396.1 77.7195 396.18 74.8795C396.21 74.6844 396.178 74.4847 396.088 74.3087C395.998 74.1328 395.856 73.9897 395.68 73.8995C394.2 73.1795 379.86 69.1995 378.48 68.9795C377.8 68.9795 378.82 68.6395 370.32 80.3995C368.32 83.0795 366.42 85.6795 364.8 87.5595C363.18 89.4395 367.68 91.1995 369.6 91.9995ZM378.5 69.6995C380.28 70.1595 392.32 74.1195 394.62 75.0395C393.42 78.7395 385.78 91.2595 382.78 93.7795C377.344 93.2639 372.074 91.6296 367.3 88.9795C366.92 88.7395 366.46 88.5195 366.22 88.3195C370.715 82.4087 374.818 76.2086 378.5 69.7595V69.6995ZM394.52 95.3795C394.24 95.0595 393.64 95.3795 394.04 95.8995C395.08 97.1595 404.76 100.44 408.98 101.12C409.26 101.12 409.6 101.24 409.7 101.12C409.8 101 409.7 100.74 409.38 100.52C406.2 98.4795 398.16 96.2195 394.52 95.3795ZM399.06 88.4595C398.8 88.1395 398.2 88.4595 398.58 88.9995C399.64 90.2395 409.32 93.5195 413.54 94.1995C413.82 94.1995 414.16 94.3395 414.24 94.1995C414.32 94.0595 414.24 93.8395 413.92 93.6195C410.74 91.5395 402.7 89.2795 399.06 88.4595ZM402.8 81.1995C402.54 80.8995 401.94 81.1995 402.32 81.7395C403.36 82.9795 413.06 86.2795 417.28 86.9395C417.56 86.9395 417.9 87.0795 417.98 86.9395C418.06 86.7995 417.98 86.5795 417.66 86.3595C414.46 84.2795 406.44 81.9995 402.8 81.1995ZM392.72 127.64C392.72 127.46 392.72 127.24 392.36 127.08C385.04 123.82 351.78 114.72 347.72 113.28L347.4 113.14C346.94 112.9 346.64 113.58 347.2 113.86C350.7 115.58 375.76 123.22 379.52 124.3C381.52 124.86 390.34 127.2 391.92 127.68C392.18 127.76 392.56 128 392.72 127.64ZM399.02 118.96C399.02 118.78 399.02 118.56 398.66 118.4C391.36 115.14 358.1 106 354 104.6L353.66 104.46C353.22 104.22 352.92 104.9 353.46 105.18C356.98 106.9 382.02 114.54 385.8 115.62C387.8 116.18 396.6 118.52 398.2 119C398.5 119.08 398.88 119.32 399.02 118.96ZM243.18 179.48C243.815 179.207 244.382 178.797 244.84 178.28C245.38 177.64 246.24 175.94 245.42 175.94C244.48 176.673 243.491 177.342 242.46 177.94C242.184 178.073 241.896 178.18 241.6 178.26C239.8 178.8 239.04 178.6 238.94 179.02C238.84 179.44 241.14 180.42 243.18 179.48ZM227.76 155.82C228.86 155.82 233.02 155.82 233 154.9C232.98 153.98 228.82 154.06 227.74 154.16C227.28 154.16 225.32 154.54 225.44 155.02C225.56 155.5 227.28 155.78 227.76 155.82ZM231.56 159.62V162.08C231.633 162.287 231.768 162.466 231.947 162.593C232.126 162.72 232.34 162.788 232.56 162.788C232.779 162.788 232.993 162.72 233.173 162.593C233.352 162.466 233.487 162.287 233.56 162.08V159.64C233.571 159.362 233.472 159.091 233.285 158.885C233.098 158.679 232.838 158.555 232.56 158.54C232.287 158.56 232.033 158.682 231.847 158.883C231.662 159.083 231.559 159.346 231.56 159.62ZM248.72 159.2C248.776 159.04 248.793 158.869 248.77 158.701C248.746 158.533 248.683 158.373 248.585 158.235C248.487 158.097 248.357 157.984 248.207 157.906C248.056 157.829 247.889 157.788 247.72 157.788C247.55 157.788 247.383 157.829 247.233 157.906C247.082 157.984 246.953 158.097 246.855 158.235C246.757 158.373 246.694 158.533 246.67 158.701C246.647 158.869 246.664 159.04 246.72 159.2V161.66C246.717 161.8 246.743 161.94 246.795 162.071C246.847 162.202 246.924 162.321 247.023 162.422C247.122 162.523 247.24 162.602 247.37 162.657C247.499 162.711 247.639 162.74 247.78 162.74C247.916 162.742 248.052 162.718 248.179 162.668C248.307 162.618 248.423 162.544 248.521 162.449C248.62 162.354 248.698 162.241 248.753 162.116C248.808 161.991 248.837 161.856 248.84 161.72C248.74 161.12 248.7 159.6 248.72 159.2ZM246.58 154.84C247.592 155.222 248.659 155.439 249.74 155.48H251.98C252.58 155.48 255.16 155.12 255.16 154.64C255.16 154.16 252.66 153.82 251.98 153.78C251.3 153.74 250.34 153.78 249.76 153.78C248.16 153.84 245.44 154.32 246.58 154.84ZM405.72 109.72C405.72 109.56 405.72 109.32 405.36 109.18C398 106 364.8 96.8195 360.74 95.3795L360.4 95.2395C359.96 94.9995 359.66 95.6595 360.22 95.9395C363.72 97.6795 388.78 105.32 392.54 106.4C394.54 106.96 403.34 109.3 404.94 109.78C405.2 109.86 405.58 110.1 405.72 109.72Z" fill="#0A2840"></path>
  <path opacity="0.72" d="M316.089 115.388L321.797 120.711L305.328 124.639L302.558 141.342L296.85 136.019L299.62 119.316L316.089 115.388Z" fill="#00BCF4"></path>
  <path opacity="0.82" d="M400.45 234.448L388.571 236.543L399.041 212.562L381 193.608L392.88 191.513L410.92 210.467L400.45 234.448Z" fill="#00BCF4"></path>
  <path opacity="0.96" d="M375.972 357.279L374 347.13L394.708 355.744L410.682 340L412.655 350.149L396.681 365.893L375.972 357.279Z" fill="#00BCF4"></path>
  <path d="M423 281H428L422 289.5L428 298H423L417 289.5L423 281Z" fill="#03FFFF"></path>
  <path d="M280.814 60.119L288.091 62.7182L274.818 72.3126L279.01 88.145L271.733 85.5458L267.541 69.7134L280.814 60.119Z" fill="#03FFFF"></path>
  <path opacity="0.95" d="M351.394 52.5478L357.555 47L360.187 64.7919L377.606 69.2691L371.445 74.8169L354.026 70.3396L351.394 52.5478Z" fill="#00A2D6"></path>
</svg>
