<?xml version="1.0" encoding="UTF-8"?>
<svg xmlns="http://www.w3.org/2000/svg" width="500" height="500" viewBox="0 0 500 500" fill="none">
  <path d="M246.52 330.82C246.238 330.541 245.864 330.375 245.468 330.353C245.072 330.331 244.682 330.455 244.372 330.701C244.061 330.948 243.852 331.3 243.783 331.69C243.715 332.081 243.792 332.483 244 332.82C244.96 335.28 248.44 332.46 246.52 330.82ZM247.08 287.3C246.658 287.289 246.242 287.403 245.885 287.627C245.528 287.852 245.245 288.176 245.072 288.561C244.899 288.946 244.843 289.373 244.912 289.789C244.981 290.205 245.172 290.592 245.46 290.9C247.72 293.34 250 287.68 247.08 287.3ZM248.2 264C246.74 263.74 245.12 265.64 247.12 266.9C249.66 268.52 250.86 264.5 248.2 264ZM115 269.72C101.24 273.36 84.5397 278.96 69.9997 283.22C69.2797 283.44 68.6597 285.36 71.6797 284.46C86.2397 280.08 100.68 275.02 115.3 270.66C115.405 270.606 115.488 270.517 115.534 270.407C115.579 270.298 115.585 270.176 115.549 270.063C115.513 269.95 115.438 269.853 115.337 269.791C115.237 269.728 115.117 269.703 115 269.72ZM77.9997 198.22C84.1997 201.88 105.42 214.22 111.34 217.04C111.388 217.068 111.442 217.087 111.497 217.094C111.553 217.101 111.609 217.097 111.663 217.082C111.718 217.068 111.768 217.042 111.812 217.007C111.856 216.972 111.893 216.929 111.92 216.88C111.948 216.829 111.965 216.773 111.971 216.715C111.977 216.657 111.972 216.598 111.955 216.542C111.938 216.487 111.911 216.435 111.874 216.39C111.837 216.345 111.791 216.307 111.74 216.28C105 212.48 85.4397 200.86 78.6397 197.06C77.9997 196.7 77.5197 197.86 77.9997 198.22ZM395.54 228.24C406.96 219.62 418.16 210.78 429.76 202.42C430.66 201.76 429.62 200.42 428.7 201.04C417.52 209.16 405.36 218.3 394.94 227.44C394.46 227.86 395.02 228.64 395.54 228.24ZM110.98 244.84C111.093 244.825 111.196 244.767 111.267 244.677C111.338 244.587 111.371 244.474 111.36 244.36C111.353 244.287 111.327 244.218 111.285 244.158C111.243 244.099 111.186 244.051 111.12 244.02C99.9797 241.38 75.1197 236.54 60.6797 234.02C59.9197 233.9 59.7397 235.32 60.4397 235.48C73.2197 238.38 97.7797 242.94 111.02 244.96L110.98 244.84ZM250.2 243.5C247.8 242.58 246.84 246.24 249.22 246.86C249.647 246.937 250.088 246.852 250.457 246.624C250.826 246.395 251.098 246.037 251.219 245.62C251.341 245.203 251.304 244.756 251.116 244.365C250.928 243.973 250.601 243.665 250.2 243.5ZM246.52 308.7C243.26 308.06 244.3 311.96 245.66 311.96C248 312 248.78 309.12 246.52 308.7ZM425.68 295.64C414.99 289.1 403.917 283.209 392.52 278C391.9 277.7 391.36 278.8 392 279.1C403.7 284.88 413.62 290.72 424.76 297.1C425.7 297.6 426.62 296.24 425.68 295.64ZM249.88 189.66C248.48 188.46 248.26 192.02 244.88 194.8C244.05 195.543 243.051 196.07 241.97 196.335C240.888 196.6 239.758 196.595 238.68 196.32C238.1 196.14 238.46 197.02 238.46 197.36C238.784 198.929 239.635 200.341 240.872 201.359C242.109 202.378 243.657 202.943 245.26 202.96C252.14 202.84 254.32 193.48 249.88 189.66ZM249.72 199.78C246.12 203.92 240.74 201.66 239.12 197.1C243.78 198.38 247.3 194.34 249.44 190.76C250.479 192.023 251.065 193.597 251.105 195.232C251.145 196.867 250.636 198.468 249.66 199.78H249.72ZM238 190C234.8 190 234.48 190.42 234.38 186.6C234.277 183.927 234.411 181.25 234.78 178.6C234.785 178.554 234.781 178.507 234.768 178.462C234.755 178.418 234.732 178.376 234.702 178.341C234.672 178.305 234.635 178.276 234.593 178.255C234.552 178.234 234.506 178.222 234.46 178.22C234.418 178.214 234.375 178.217 234.334 178.228C234.293 178.24 234.255 178.259 234.221 178.285C234.188 178.311 234.16 178.343 234.139 178.38C234.118 178.417 234.105 178.458 234.1 178.5C233.64 180.9 232.4 188.72 234.42 190.5C235.559 191.09 236.877 191.24 238.12 190.92C238.82 190.78 238.66 190 238 190Z" fill="#0A2840"></path>
  <path d="M379.619 143.04C379.62 142.965 379.604 142.89 379.575 142.821C379.546 142.752 379.503 142.689 379.448 142.637C379.394 142.585 379.33 142.544 379.26 142.517C379.19 142.49 379.115 142.477 379.039 142.48C355.326 142.9 331.896 137.281 310.953 126.151C290.009 115.022 272.241 98.7479 259.319 78.8602C257.799 76.5202 258.079 77.0802 256.579 79.1002C242.229 97.9248 223.599 113.058 202.233 123.246C180.866 133.433 157.38 138.381 133.719 137.68C132.039 137.68 129.599 137 129.879 138.24C126.735 162.696 125.371 187.347 125.799 212C126.959 257.34 136.439 303.28 159.579 342.72C179.999 377.4 211.459 406.66 249.799 419.82C252.129 420.936 254.535 421.885 256.999 422.66C294.119 411.72 326.419 384.06 346.159 351.3C352.092 340.8 357.104 329.805 361.139 318.44C366.178 310.063 368.936 300.513 369.139 290.74C374.673 268.988 378.083 246.751 379.319 224.34C381.039 197.72 379.619 143.08 379.619 143.04ZM356.259 322.22C349.527 330.822 341.529 338.354 332.539 344.56C325.019 341.371 319.042 335.372 315.879 327.84C320.939 317.18 325.659 301.34 325.879 289.24C325.879 288.92 325.359 288.92 325.319 289.24C324.999 291.24 324.739 293.24 324.499 295.4C316.499 288.66 300.739 282.52 291.219 279.02C291.146 279.012 291.072 279.029 291.01 279.07C290.948 279.11 290.902 279.17 290.879 279.24C290.871 279.298 290.879 279.358 290.904 279.411C290.929 279.465 290.969 279.509 291.019 279.54L307.519 286.8C309.039 298.34 310.119 314.08 310.899 334.94C310.899 336.3 308.499 338.12 308.719 339.46C301.123 343.325 293.055 346.183 284.719 347.96C284.399 346.2 282.719 347.3 281.339 347.34C280.379 347.22 280.519 348 280.679 348.74C271.008 350.382 261.241 351.397 251.439 351.78C251.439 351.46 250.999 351.16 249.919 351.12C247.059 351.02 241.319 351.12 240.059 351.02C239.198 317.574 240.361 284.106 243.539 250.8C244.459 241.46 245.719 232.36 246.739 223.02C248.259 226.28 248.239 229.02 249.179 232.14C249.659 233.68 268.219 230.62 272.379 214.14C293.339 215.52 312.379 225.1 329.279 236.92C345.119 248 364.579 262.36 367.719 282.6C369.999 296.78 364.679 310.98 356.259 322.22ZM243.539 219.86C241.812 219.098 240.34 217.856 239.299 216.28C239.56 214.112 239.519 211.918 239.179 209.76C239.059 209.36 238.919 209.46 238.639 209.5C232.799 210.3 227.419 206.2 224.639 201.34C221.279 195.34 221.379 188 221.479 181.34V169.78C228.779 171.1 245.959 169.9 253.899 169.08C253.359 172.76 253.559 185.74 258.599 183.84C260.459 183.12 260.799 180.58 262.599 179.84C264.399 179.1 267.119 181.2 264.599 186.1C262.079 191 261.999 192.28 262.779 198.38C263.386 203.247 264.513 208.034 266.139 212.66C263.985 216.5 260.454 219.378 256.259 220.715C252.064 222.051 247.518 221.746 243.539 219.86ZM246.199 222C243.722 224.321 241.629 227.021 239.999 230C238.719 229.48 233.839 227.72 232.659 217.48C234.519 217.04 236.659 216.5 238.459 216.22C239.119 218.76 243.739 221.26 246.179 221.92L246.199 222ZM266.659 214L271.399 214.16C270.21 218.426 267.863 222.279 264.619 225.293C261.375 228.308 257.361 230.366 253.019 231.24C252.099 231.44 251.179 231.56 250.259 231.74C249.706 228.466 248.689 225.288 247.239 222.3C250.937 223.072 254.782 222.69 258.255 221.206C261.729 219.721 264.662 217.206 266.659 214ZM267.399 212.92C267.399 212.32 263.979 202.26 264.139 199.46C269.674 190.5 271.399 179.12 273.099 169.72C275 167 278 153.5 269.5 153C263.339 128.351 194 155.5 221.039 169.76C220.459 182 217.999 200.2 229.459 208.16C232.103 210.053 235.342 210.927 238.579 210.62C238.56 212.138 238.46 213.653 238.279 215.16C237.199 215.16 228.899 217.36 227.359 217.82C212.738 222.159 199.284 229.74 187.999 240C187.84 229.016 187.039 218.051 185.599 207.16C185.499 206.46 185.219 206.34 184.059 206.42C190.499 202 193.999 193.28 190.559 192C193.999 191.76 191.999 182.68 183.999 183.62C182.717 183.722 181.518 184.3 180.639 185.24C180.639 180.36 182.999 177.68 182.139 176.5C179.959 173.48 175.179 181.18 175.319 186.5C174.879 184.34 175.739 180.16 174.879 179.12C174.019 178.08 173.099 178.96 172.559 179.66C169.679 183.44 169.779 188.64 169.859 193.14C169.859 195.856 170.04 198.568 170.399 201.26C170.179 201.26 169.879 201.26 169.739 201.44C158.821 216.113 151.089 232.905 147.039 250.74C142.379 219.24 143.039 189.26 145.039 157.56C186.879 158.9 230.379 137.56 256.639 105C279.479 138.2 320.119 158.9 360.359 158C361.839 192 361.539 224.6 356.599 258.32C347.159 247.5 328.199 234.04 315.899 227C301.199 218.64 284.519 212.54 267.399 212.84V212.92ZM175.399 189.16C175.699 189.58 176.519 189.16 176.339 188.72C176.186 188.421 176.091 188.095 176.059 187.76C175.859 179.5 181.699 175 181.179 177.76C180.659 180.52 178.619 182.82 179.759 187.98C179.759 188.52 180.919 188.28 180.819 187.84C180.728 187.572 180.654 187.298 180.599 187.02C181.059 186.316 181.693 185.741 182.439 185.352C183.185 184.964 184.019 184.773 184.859 184.8C190.259 184.8 191.819 189.42 190.859 190.66C189.899 191.9 189.459 189.32 188.419 188.44C184.219 184.86 180.419 190.72 182.419 194.44C183.839 196.96 188.079 197.6 188.799 194.64C189.219 192.92 190.799 192.64 190.439 195.64C189.999 202.2 183.219 205.1 182.479 206C178.503 205.654 174.712 204.168 171.559 201.72C171.459 195.96 169.779 187.28 172.239 182.06C172.419 181.62 173.699 179.36 174.239 180.18C174.779 181 173.279 186 175.459 189.08L175.399 189.16ZM189.999 192C187.999 192.14 188.759 195.12 186.499 195.4C184.239 195.68 183.059 193.02 183.679 190.64C183.765 190.123 184.007 189.645 184.373 189.27C184.739 188.896 185.211 188.642 185.726 188.544C186.24 188.446 186.772 188.508 187.251 188.722C187.729 188.936 188.13 189.291 188.399 189.74C188.839 190.42 188.939 191.48 189.999 192ZM184.339 207.4C184.879 211.54 185.079 215.4 185.459 219.6H181.219C174.842 218.921 168.925 215.959 164.559 211.26L170.399 202.34C172.273 204.063 174.47 205.397 176.863 206.266C179.256 207.134 181.797 207.52 184.339 207.4ZM149.739 244.58C153.069 233.107 157.862 222.11 163.999 211.86C167.999 217.42 176.519 220.6 183.239 220.8C184.087 220.867 184.94 220.833 185.779 220.7C187.359 238.291 187.359 255.989 185.779 273.58C185.779 273.94 186.319 274.04 186.359 273.58C187.532 262.6 188.08 251.562 187.999 240.52C188.044 240.549 188.096 240.564 188.149 240.564C188.203 240.564 188.255 240.549 188.299 240.52C201.023 229.628 216.076 221.801 232.299 217.64C232.479 222.6 234.739 229.3 239.979 231.02C241.399 231.48 241.699 227.86 246.159 223.18C240.669 265.555 238.323 308.279 239.139 351C237.139 351 234.059 350.8 232.219 350.66C231.359 350.66 231.339 351.3 231.299 351.66C224.063 351.184 216.9 349.917 209.939 347.88C210.179 346.26 208.179 346.44 207.019 346.02C206.499 345.72 206.199 346.14 206.159 346.66L196.899 342.84C196.899 333.16 197.579 323.46 198.339 313.8C200.249 289.996 203.878 266.361 209.199 243.08C209.214 243.015 209.203 242.947 209.169 242.89C209.135 242.833 209.08 242.791 209.016 242.773C208.952 242.755 208.883 242.763 208.824 242.794C208.766 242.825 208.721 242.877 208.699 242.94C203.692 262.088 200.162 281.592 198.139 301.28C187.059 307.14 174.139 309.62 161.819 306.24C152.959 303.78 148.199 299.3 145.659 290.1C142.219 277.58 146.239 256.5 149.739 244.58ZM250.619 352.1C250.799 354.36 250.899 356.64 250.899 358.94C244.575 359.501 238.212 359.44 231.899 358.76C231.899 356.2 231.899 354.2 232.199 351.64C239.419 352.26 248.459 351.66 250.619 352.1ZM197.999 302.56C196.022 321.485 195.407 340.527 196.159 359.54C196.164 359.577 196.177 359.613 196.195 359.645C196.214 359.677 196.239 359.705 196.269 359.727C196.299 359.75 196.333 359.766 196.369 359.775C196.405 359.784 196.443 359.786 196.479 359.78C196.599 359.78 197.199 359.66 197.219 359.54V348.6C199.909 350.425 202.81 351.916 205.859 353.04C205.926 353.634 206.032 354.222 206.179 354.8C206.179 355.12 206.799 355.08 206.779 354.8C206.557 352.135 206.617 349.453 206.959 346.8L208.779 347.38C208.192 350.093 208.227 352.903 208.879 355.6C208.886 355.642 208.902 355.682 208.925 355.718C208.949 355.753 208.979 355.783 209.015 355.806C209.051 355.828 209.092 355.843 209.134 355.849C209.176 355.855 209.219 355.852 209.259 355.84C209.328 355.826 209.39 355.788 209.434 355.734C209.478 355.679 209.501 355.61 209.499 355.54V354.36C216.546 356.448 223.805 357.736 231.139 358.2C230.819 359.84 232.459 359.74 236.219 360.2C237.339 360.32 238.479 360.4 239.599 360.44C239.286 366.094 239.399 371.763 239.939 377.4C240.059 378.86 239.939 380.74 241.139 381.84C241.709 382.302 242.394 382.599 243.121 382.698C243.848 382.796 244.587 382.693 245.259 382.4C245.345 382.353 245.41 382.275 245.44 382.182C245.469 382.089 245.462 381.988 245.419 381.9C245.386 381.841 245.336 381.793 245.276 381.761C245.215 381.729 245.147 381.715 245.079 381.72C240.699 382.44 241.079 379.72 240.839 376.56C240.599 373.06 240.459 369.54 240.399 366C240.399 364.18 240.399 362.3 240.279 360.48C243.804 360.563 247.33 360.436 250.839 360.1C252.019 359.92 252.059 359.92 252.039 358.92C261.887 358.708 271.703 357.732 281.399 356C281.579 359.2 283.159 356.5 281.639 348.1L283.639 347.86C284.092 350.647 284.366 353.459 284.459 356.28C284.476 356.344 284.514 356.401 284.567 356.441C284.619 356.481 284.683 356.503 284.749 356.503C284.816 356.503 284.88 356.481 284.932 356.441C284.985 356.401 285.023 356.344 285.039 356.28C285.059 355.947 285.059 355.613 285.039 355.28C290.079 354.3 295.039 353.12 299.999 351.72C299.079 352.12 295.999 353.04 295.599 353.98C294.479 356.56 301.859 355.98 302.979 355.84C304.347 355.644 305.689 355.295 306.979 354.8C306.019 356.32 304.979 357.82 303.999 359.28C301.379 362.84 305.999 362.62 311.219 358.8V365.38C311.219 365.7 311.799 365.74 311.819 365.38C311.979 362.92 312.059 360.48 312.059 358.04C314.435 356.004 316.68 353.82 318.779 351.5C320.639 352.16 320.459 351.8 326.079 349.5C309.879 374.56 285.819 394.62 256.659 402.58C255.159 402.98 255.839 403.14 254.159 402.58C208.959 385.74 178.959 351.78 161.539 307.5C173.999 311.02 186.619 308.4 197.999 302.56ZM308.219 353.46C302.059 356.52 293.899 355.16 297.159 353.92C299.454 352.947 301.679 351.818 303.819 350.54C304.809 350.338 305.769 350.016 306.679 349.58C306.735 349.563 306.786 349.534 306.829 349.495C306.872 349.457 306.906 349.409 306.929 349.356C306.952 349.302 306.963 349.245 306.961 349.187C306.959 349.129 306.945 349.072 306.919 349.02C306.902 348.965 306.873 348.914 306.834 348.871C306.796 348.827 306.749 348.792 306.696 348.768C306.644 348.743 306.587 348.73 306.529 348.729C306.471 348.727 306.413 348.738 306.359 348.76C302.944 350.185 299.17 350.513 295.559 349.7C294.939 349.6 294.479 349.48 295.059 348.78C295.639 348.08 304.479 346.56 309.199 341.04C311.043 345.257 314.163 348.789 318.119 351.14C315.214 354.968 311.508 358.115 307.259 360.36C305.619 361.12 303.039 362.12 304.939 359.48C306.106 357.886 307.142 356.2 308.039 354.44C309.439 353.84 308.52 353.3 308.199 353.46H308.219ZM319.999 350.94C317.544 349.786 315.355 348.134 313.571 346.089C311.788 344.044 310.449 341.65 309.639 339.06C311.929 335.741 313.936 332.235 315.639 328.58C318.576 336.016 324.324 341.995 331.639 345.22C328.058 347.682 324.137 349.609 319.999 350.94ZM311.879 333.26C311.499 320.84 310.539 299.6 308.619 287.26C314.117 289.957 319.399 293.073 324.419 296.58C322.401 309.436 318.158 321.841 311.879 333.24V333.26ZM378.799 214.44C377.975 238.743 374.726 262.903 369.099 286.56C368.41 276.73 364.51 267.398 357.999 260C362.813 225.837 364.153 191.274 361.999 156.84C361.999 156.3 361.439 156.42 361.079 156.42C321.079 156.92 282.719 137.18 258.819 105.34C258.519 104.92 256.999 102.08 256.319 102.88C243.06 119.099 226.421 132.23 207.564 141.356C188.707 150.483 168.086 155.385 147.139 155.72C146.519 155.72 143.559 155.42 143.499 156.26C141.947 177.705 141.653 199.221 142.619 220.7C143.199 232.046 144.36 243.354 146.099 254.58C145.418 257.764 144.858 260.973 144.419 264.2C143.319 272.2 142.419 281.92 144.619 290.2C146.979 298.9 151.399 303.82 159.839 306.62C169.839 332.62 185.219 356.74 206.099 375.46C219.919 387.86 236.279 398.86 254.099 404.42C256.099 405.02 255.619 405.1 257.419 404.62C273.015 400.146 287.463 392.362 299.779 381.8C310.887 372.208 320.434 360.947 328.079 348.42C331.704 346.332 335.161 343.964 338.419 341.34C345.499 335.74 351.859 330.48 357.179 323.14C322.539 407.24 258.179 418.82 256.559 420.24C194.679 400.76 155.999 349.64 138.559 288.92C124.559 240.06 125.099 189.18 131.279 139.14C168.219 142.22 224.739 125.14 258.039 79.7802C262.479 88.1002 302.939 145.26 377.999 144C378.379 167.64 379.819 190.78 378.779 214.44H378.799Z" fill="#0A2840"></path>
  <path d="M225.439 176.48C225.439 176.76 225.659 177.02 225.859 176.8C227.499 174.94 229.379 175.56 229.699 175.1C229.699 175.1 229.919 174.78 229.699 174.62C228.559 173.58 225.999 175.24 225.439 176.48ZM439.239 249.88C424.625 249.766 410.021 250.695 395.539 252.66C394.959 252.66 395.099 253.62 395.699 253.56C410.139 252.18 424.579 251.8 439.079 251.56C440.159 251.6 440.379 249.88 439.239 249.88ZM243.539 180.12C242.539 183.38 244.159 184.12 244.599 182.56C245.039 181 243.859 179.12 243.539 180.12ZM227.679 179.74C226.519 182.58 228.499 184.36 228.599 181.22C228.639 179.6 227.999 179.1 227.679 179.74ZM242.319 175.28C242.979 175.48 244.819 174.58 246.719 176.14C246.959 176.34 247.319 175.92 247.079 175.7C243.999 172.8 240.699 174.78 242.319 175.28Z" fill="#0A2840"></path>
  <path opacity="0.76" d="M107.161 67.3088L104.797 73.7836L95.9333 61.7419L81.3958 65.2397L83.7597 58.7649L98.2972 55.2671L107.161 67.3088Z" fill="#03FFFF"></path>
  <path d="M45.4545 91H60L42.5455 116L60 141H45.4545L28 116L45.4545 91Z" fill="#00BCF4"></path>
  <path opacity="0.93" d="M88.1633 305.948L91.6848 312.571L75.4903 310.987L67.7475 325.298L64.226 318.675L71.9688 304.364L88.1633 305.948Z" fill="#03FFFF"></path>
  <path opacity="0.95" d="M103.216 147.768L112.242 153.408L91.2184 162.951L91.8571 186.031L82.8311 180.391L82.1923 157.311L103.216 147.768Z" fill="#00A2D6"></path>
  <path opacity="0.97" d="M116.668 328.958L125.557 325L122.042 345.815L139.863 357.13L130.973 361.088L113.153 349.773L116.668 328.958Z" fill="#00BCF4"></path>
  <path opacity="0.8" d="M141.986 405.653L139 399.793L153.174 401.429L160.181 389L163.167 394.861L156.16 407.289L141.986 405.653Z" fill="#00A2D6"></path>
</svg>
